<svg xmlns="http://www.w3.org/2000/svg" xmlns:xlink="http://www.w3.org/1999/xlink" viewBox="0 0 65.84 100.54"><defs><style>.cls-1{fill:none;}.cls-2{fill:#ffc841;}.cls-3{fill:#fff;}.cls-4{clip-path:url(#clip-path);}.cls-5{fill:#231f20;}</style><clipPath id="clip-path" transform="translate(-24.03 0.33)"><rect class="cls-1" width="113.89" height="100.21"/></clipPath></defs><g id="Layer_2" data-name="Layer 2"><g id="Layer_1-2" data-name="Layer 1"><path class="cls-2" d="M34.18,33.43c-.08-1-.65-1.36-1.12-1.36-.68,0-1.06.44-1.06,1.21,0,2.1,4.29,3.1,4.29,6.44A3,3,0,0,1,33,42.87c-2,0-3.08-1.57-3.16-3.41l2-.29c.08,1.25.58,1.86,1.26,1.86a1.08,1.08,0,0,0,1.22-1.12c0-2.44-4.29-3.09-4.29-6.61,0-2,1.19-3.07,3.27-3.07,1.72,0,2.74,1.25,2.93,3Z" transform="translate(-24.03 0.33)"/><path class="cls-2" d="M39.6,32.24H37.55V30.4h6.2v1.84h-2V42.7H39.6Z" transform="translate(-24.03 0.33)"/><path class="cls-2" d="M45.35,30.4h2.12v9.28c0,.91.35,1.35,1.12,1.35s1.12-.44,1.12-1.35V30.4h2.11v9.2a3,3,0,0,1-3.23,3.27,3,3,0,0,1-3.24-3.27Z" transform="translate(-24.03 0.33)"/><path class="cls-2" d="M53.87,30.4H57c2.18,0,3.34,1.2,3.34,3.72V39c0,2.52-1.16,3.71-3.34,3.71H53.87ZM56,41h.73c1.13,0,1.52-.42,1.52-1.72V33.86c0-1.29-.39-1.72-1.52-1.72H56Z" transform="translate(-24.03 0.33)"/><path class="cls-2" d="M62.35,42.7V30.4H68v1.84H64.46v3.17h2.73v1.84H64.46v3.61h3.78V42.7Z" transform="translate(-24.03 0.33)"/><path class="cls-2" d="M70.05,42.7V30.4h2l2.57,7h0v-7h1.91V42.7H74.68L72,35h0V42.7Z" transform="translate(-24.03 0.33)"/><path class="cls-2" d="M80.17,32.24h-2V30.4h6.2v1.84h-2V42.7H80.17Z" transform="translate(-24.03 0.33)"/><path class="cls-2" d="M29,59.73H27l2.26-12.29h2.62l2.27,12.29h-2L31.71,57H29.4Zm.68-4.56h1.7l-.83-5.28h0Z" transform="translate(-24.03 0.33)"/><path class="cls-2" d="M36.43,49.27h-2V47.44h6.19v1.83h-2V59.73H36.43Z" transform="translate(-24.03 0.33)"/><path class="cls-2" d="M42.19,59.73V47.44H44.3v5h2.24v-5h2.12V59.73H46.54V54.28H44.3v5.45Z" transform="translate(-24.03 0.33)"/><path class="cls-2" d="M50.67,59.73V47.44h2.11V57.89H56.1v1.84Z" transform="translate(-24.03 0.33)"/><path class="cls-2" d="M57.72,59.73V47.44h5.65v1.83H59.83v3.17h2.73v1.84H59.83v3.61h3.78v1.84Z" transform="translate(-24.03 0.33)"/><path class="cls-2" d="M66.93,49.27h-2V47.44h6.2v1.83H69V59.73H66.93Z" transform="translate(-24.03 0.33)"/><path class="cls-2" d="M72.69,59.73V47.44h5.65v1.83H74.8v3.17h2.73v1.84H74.8v3.61h3.78v1.84Z" transform="translate(-24.03 0.33)"/><path class="cls-2" d="M84.41,50.47c-.09-1.06-.65-1.37-1.13-1.37-.68,0-1,.45-1,1.21,0,2.1,4.29,3.1,4.29,6.44a3,3,0,0,1-3.34,3.15c-2,0-3.08-1.57-3.17-3.4l2-.29c.09,1.24.58,1.85,1.26,1.85a1.08,1.08,0,0,0,1.23-1.12c0-2.44-4.29-3.08-4.29-6.61,0-2,1.19-3.06,3.27-3.06,1.72,0,2.74,1.24,2.93,3Z" transform="translate(-24.03 0.33)"/><path class="cls-3" d="M32.28,63.85h.79l.65,3.58h0l.54-3.58h.9l-1,5.61h-.81l-.7-3.71h0L32,69.46H31.2l-1.06-5.61H31l.59,3.58h0Z" transform="translate(-24.03 0.33)"/><path class="cls-3" d="M36.18,69.46V63.85h1v5.61Z" transform="translate(-24.03 0.33)"/><path class="cls-3" d="M39,64.69H38.1v-.84h2.84v.84H40v4.77H39Z" transform="translate(-24.03 0.33)"/><path class="cls-3" d="M41.83,69.46V63.85h1v2.28h1V63.85h1v5.61h-1V67h-1v2.49Z" transform="translate(-24.03 0.33)"/><path class="cls-3" d="M47.33,69.46v-.75c1.2-1.75,1.85-2.72,1.85-3.54,0-.44-.17-.64-.43-.64s-.47.24-.47.58v.39h-.92v-.27a1.37,1.37,0,0,1,1.43-1.46A1.25,1.25,0,0,1,50.1,65c0,.89-.28,1.54-1.79,3.66H50v.79Z" transform="translate(-24.03 0.33)"/><path class="cls-3" d="M51.91,67.84v.45a.43.43,0,0,0,.43.49c.3,0,.47-.18.47-.69V66.82c0-.37-.18-.51-.4-.51a.53.53,0,0,0-.52.42h-.75c0-.87.07-1.55.07-2.88h2.34l0,.79H52l0,1.21v0a.83.83,0,0,1,.74-.33c.74,0,1,.54,1,1.48v.78c0,1.18-.37,1.74-1.31,1.74-.77,0-1.38-.34-1.38-1.27v-.43Z" transform="translate(-24.03 0.33)"/><path class="cls-3" d="M56.31,65.53h.76v1.58h1.59v.77H57.07v1.58h-.76V67.88H54.72v-.77h1.59Z" transform="translate(-24.03 0.33)"/><path class="cls-3" d="M63,65.23c0-.48-.29-.62-.51-.62s-.48.2-.48.55c0,1,2,1.42,2,2.94a1.38,1.38,0,0,1-1.53,1.44A1.48,1.48,0,0,1,61,68l.92-.14c0,.57.27.85.58.85a.5.5,0,0,0,.56-.51c0-1.11-2-1.41-2-3a1.31,1.31,0,0,1,1.49-1.4,1.35,1.35,0,0,1,1.34,1.36Z" transform="translate(-24.03 0.33)"/><path class="cls-3" d="M64.93,69.46V63.85h1.39c1.19,0,1.74.46,1.74,1.65s-.55,1.66-1.74,1.66H65.9v2.3Zm1-3.09h.37c.63,0,.82-.2.82-.87s-.19-.86-.82-.86H65.9Z" transform="translate(-24.03 0.33)"/><path class="cls-3" d="M69.07,65.21a1.48,1.48,0,0,1,3,0V68.1a1.48,1.48,0,0,1-3,0Zm1,2.87c0,.42.13.62.51.62s.52-.2.52-.62V65.23c0-.42-.13-.62-.52-.62s-.51.2-.51.62Z" transform="translate(-24.03 0.33)"/><path class="cls-3" d="M74.09,69.46h-1V63.85h1.36c1.08,0,1.63.46,1.63,1.65,0,.91-.35,1.27-.68,1.42l.82,2.54h-1l-.68-2.32-.5,0Zm0-3.09h.34c.52,0,.72-.2.72-.87s-.2-.86-.72-.86h-.34Z" transform="translate(-24.03 0.33)"/><path class="cls-3" d="M77.89,64.69H77v-.84h2.84v.84h-.94v4.77h-1Z" transform="translate(-24.03 0.33)"/><path class="cls-3" d="M82.5,65.23c0-.48-.3-.62-.52-.62s-.48.2-.48.55c0,1,2,1.42,2,2.94a1.37,1.37,0,0,1-1.52,1.44A1.47,1.47,0,0,1,80.49,68l.92-.14c0,.57.26.85.57.85a.49.49,0,0,0,.56-.51c0-1.11-2-1.41-2-3a1.32,1.32,0,0,1,1.5-1.4,1.36,1.36,0,0,1,1.34,1.36Z" transform="translate(-24.03 0.33)"/><path class="cls-3" d="M32.58,74.42h-.94v-.84h2.83v.84h-.93V79.2h-1Z" transform="translate(-24.03 0.33)"/><path class="cls-3" d="M35.35,74.94a1.48,1.48,0,0,1,3,0v2.9a1.48,1.48,0,0,1-3,0Zm1,2.88c0,.42.13.62.52.62s.51-.2.51-.62V75c0-.42-.12-.63-.51-.63s-.52.21-.52.63Z" transform="translate(-24.03 0.33)"/><path class="cls-3" d="M42.92,75.46V75c0-.47-.22-.68-.47-.68s-.51.21-.51.63v2.85c0,.42.12.62.51.62s.47-.2.47-.57v-.68h1v.65a1.33,1.33,0,0,1-1.43,1.44A1.35,1.35,0,0,1,41,77.84v-2.9a1.35,1.35,0,0,1,1.48-1.44A1.39,1.39,0,0,1,43.88,75v.42Z" transform="translate(-24.03 0.33)"/><path class="cls-3" d="M45,79.2V73.58h1v2.29h1V73.58h1V79.2H47V76.71H46V79.2Z" transform="translate(-24.03 0.33)"/><path class="cls-3" d="M49.06,74.94a1.48,1.48,0,0,1,3,0v2.9a1.48,1.48,0,0,1-3,0Zm1,2.88c0,.42.12.62.51.62s.51-.2.51-.62V75c0-.42-.12-.63-.51-.63S50,74.55,50,75Z" transform="translate(-24.03 0.33)"/><path class="cls-3" d="M53.11,74.94a1.48,1.48,0,0,1,3,0v2.9a1.48,1.48,0,0,1-3,0Zm1,2.88c0,.42.12.62.51.62s.51-.2.51-.62V75c0-.42-.12-.63-.51-.63s-.51.21-.51.63Z" transform="translate(-24.03 0.33)"/><path class="cls-3" d="M59,75c0-.49-.3-.63-.52-.63s-.48.21-.48.56c0,.95,2,1.41,2,2.94a1.38,1.38,0,0,1-1.52,1.44A1.48,1.48,0,0,1,57,77.72l.92-.13c0,.57.26.85.57.85a.5.5,0,0,0,.56-.52c0-1.11-2-1.4-2-3a1.32,1.32,0,0,1,1.5-1.4A1.36,1.36,0,0,1,60,74.87Z" transform="translate(-24.03 0.33)"/><path class="cls-3" d="M61,79.2V73.58h2.58v.84H62v1.45H63.2v.84H62v1.65h1.73v.84Z" transform="translate(-24.03 0.33)"/><path class="cls-3" d="M66.17,79.2V73.58h2.69v.84H67.14v1.45h1.29v.84H67.14V79.2Z" transform="translate(-24.03 0.33)"/><path class="cls-3" d="M70.83,79.2h-1V73.58h1.36c1.08,0,1.63.46,1.63,1.66,0,.9-.35,1.27-.68,1.42L73,79.2H72l-.68-2.33a3.73,3.73,0,0,1-.5,0Zm0-3.1h.34c.52,0,.72-.19.72-.86s-.2-.86-.72-.86h-.34Z" transform="translate(-24.03 0.33)"/><path class="cls-3" d="M73.93,74.94a1.48,1.48,0,0,1,2.95,0v2.9a1.48,1.48,0,0,1-2.95,0Zm1,2.88c0,.42.13.62.52.62s.51-.2.51-.62V75c0-.42-.12-.63-.51-.63s-.52.21-.52.63Z" transform="translate(-24.03 0.33)"/><path class="cls-3" d="M81.88,73.58V79.2H81V74.81h0l-.87,4.39h-.47l-.87-4.39h0V79.2H78V73.58h1.27l.69,3.29h0l.69-3.29Z" transform="translate(-24.03 0.33)"/><g class="cls-4"><path class="cls-2" d="M27.34,3.31V0H37.92V2.27L33.15,23.43h-3.8L34.06,3.31Z" transform="translate(-24.03 0.33)"/><path class="cls-2" d="M41.2,6.1c0-4.42,1.68-6.43,5.71-6.43s5.71,2,5.71,6.43V17.33c0,4.41-1.69,6.42-5.71,6.42s-5.71-2-5.71-6.42Zm7.59-1c0-1.52-.68-2.24-1.88-2.24S45,3.57,45,5.09V18.33c0,1.53.68,2.24,1.88,2.24s1.88-.71,1.88-2.24Z" transform="translate(-24.03 0.33)"/><path class="cls-2" d="M55.83,6.1c0-4.42,1.69-6.43,5.71-6.43s5.71,2,5.71,6.43V17.33c0,4.41-1.68,6.42-5.71,6.42s-5.71-2-5.71-6.42Zm7.59-1c0-1.52-.68-2.24-1.88-2.24s-1.88.72-1.88,2.24V18.33c0,1.53.68,2.24,1.88,2.24s1.88-.71,1.88-2.24Z" transform="translate(-24.03 0.33)"/><path class="cls-2" d="M77.05,7h3.18v6.63h6.62v3.18H80.23v6.62H77.05V16.81H70.43V13.63h6.62Z" transform="translate(-24.03 0.33)"/><path class="cls-3" d="M24.43,91.79a8,8,0,1,0,8-8,8,8,0,0,0-8,8" transform="translate(-24.03 0.33)"/><path class="cls-5" d="M24.78,89.44l.46-.2a6.63,6.63,0,0,1,1.18-.34l.17,0,.17,0,.36,0,.37,0,.19,0h.19l.38,0h.31l.09-.45A7.53,7.53,0,0,1,29,87h-.33l-.24,0-.23,0L28,86.88l-.21-.07-.19-.08-.17-.08a1.48,1.48,0,0,1-.48-.44l-.08-.15,0,0,.11.15a1.45,1.45,0,0,0,.49.33,1,1,0,0,0,.16.06l.18,0,.2.05.21,0,.21,0h.69s0,0,0-.06a7.5,7.5,0,0,1,.76-1.32l.2-.28.2-.26a4.49,4.49,0,0,1,.43-.44,3,3,0,0,1,.7-.47l.26,0-.09,0a3.31,3.31,0,0,0-.75.58,4,4,0,0,0-.37.45l-.19.27c-.05.09-.12.18-.18.28s-.12.2-.17.3l-.09.16-.09.16a.3.3,0,0,1,0,.08.36.36,0,0,1,0,.09l-.08.17s-.05.11-.07.17l0,.08h.16l.26,0,.27,0c.35-.06.72-.14,1.08-.24S32,86.11,32.4,86s.75-.25,1.13-.35l.29-.08.28-.07.28,0,.29,0,.28,0,.27,0h.54a5,5,0,0,1,1,.12,3.76,3.76,0,0,1,.78.25,1.33,1.33,0,0,1,.24.11l.29.27h0a5.29,5.29,0,0,0-.58-.21l-.17,0-.19,0-.1,0-.1,0-.21,0-.22,0H35.38l-.12,0-.27,0-.26,0a9.57,9.57,0,0,0-1.08.28l-1.11.36c-.37.11-.75.23-1.14.32a9.16,9.16,0,0,1-1.14.22L30,87l-.27,0h-.33a9.87,9.87,0,0,0-.34,1.3c0,.12-.05.24-.07.37h.93l.43,0,.87.06.44,0,.44,0,.44.06.22,0L33,89l.44.07.44.09.22,0,.22.05.43.1.43.1.42.12.41.12.4.13.2.07.19.07.39.14.37.16.18.08.18.08.34.17.32.17.08,0,0,0h0l.15.1a2.82,2.82,0,0,1,.29.18,6.66,6.66,0,0,1,1,.75l.33.33a1.09,1.09,0,0,0,0,.18c-.13-.12-.27-.25-.43-.38l-.22-.16a2.07,2.07,0,0,0-.24-.17l-.26-.17L39,91.36l-.3-.16-.15-.08,0,0,0,0-.09,0-.32-.16-.34-.14-.18-.08-.18-.06L37,90.46c-.25-.08-.51-.18-.77-.25-.52-.17-1.08-.3-1.64-.43l-.85-.17-.43-.08-.44-.07-.22,0-.21,0L32,89.33l-.43-.06-.44,0-.85-.07-.42,0-.42,0-.41,0h-.13s0,.07,0,.1l-.09.89c0,.29,0,.58,0,.87a3.16,3.16,0,0,1,.53.13,7.13,7.13,0,0,1,1.61.87,15.32,15.32,0,0,1,1.39,1.14l.32.3.31.3.6.59c.4.39.78.77,1.15,1.12l1,1,.24.21.24.21.22.19.22.16a4.77,4.77,0,0,0,.79.48,3.05,3.05,0,0,0,.35.15l0,0a3.21,3.21,0,0,1-.35-.1,5.08,5.08,0,0,1-.85-.42l-.23-.16a2.2,2.2,0,0,0-.25-.17l-.5-.4q-.53-.42-1.11-.93c-.38-.33-.78-.69-1.19-1.07L32.64,94l-.32-.29L32,93.39c-.43-.38-.89-.75-1.36-1.09-.24-.16-.48-.32-.73-.46a4.77,4.77,0,0,0-.76-.36,2.91,2.91,0,0,0-.39-.12c0,.18,0,.35,0,.52,0,.61,0,1.22.12,1.82,0,.14,0,.29.05.44s0,.29.07.44.09.58.15.86A11.57,11.57,0,0,0,29.61,97a5.51,5.51,0,0,0,.31.69c0,.12.11.22.16.33l.18.3a7.87,7.87,0,0,0,.73,1,5,5,0,0,0,.4.4l-.25,0-.27-.25a6,6,0,0,1-.42-.44c-.14-.17-.27-.35-.41-.54l-.2-.3-.19-.32a6.7,6.7,0,0,1-.35-.71,11,11,0,0,1-.52-1.62,18.64,18.64,0,0,1-.45-3.63c0-.19,0-.38,0-.57a2,2,0,0,0-.69.13,2.81,2.81,0,0,0-.35.17l-.08,0-.08,0-.15.11a2.84,2.84,0,0,0-.52.52,4.3,4.3,0,0,0-.38.6,4.16,4.16,0,0,0-.27.62,4.5,4.5,0,0,0-.17.6c-.05.19-.08.38-.11.55a8.59,8.59,0,0,0-.06.93v.07a1.62,1.62,0,0,1-.1-.18,5.61,5.61,0,0,1,0-.83,5.24,5.24,0,0,1,.2-1.22,4.49,4.49,0,0,1,.24-.67,4.16,4.16,0,0,1,.39-.67,3.16,3.16,0,0,1,.55-.61l.09-.07.09-.07.08,0,.1-.06a2.87,2.87,0,0,1,.39-.2,2.39,2.39,0,0,1,.85-.18c0-.29,0-.59.05-.87s.07-.66.12-1h-1l-.35,0-.35,0h-.17l-.16,0-.32,0a1.59,1.59,0,0,1-.3.06l-.29.07-.13,0h-.07l-.06,0-.25.08-.22.09-.09,0s0-.1,0-.16" transform="translate(-24.03 0.33)"/><path class="cls-5" d="M32.44,84.19a7.61,7.61,0,1,0,7.6,7.6,7.61,7.61,0,0,0-7.6-7.6m0,16a8.42,8.42,0,1,1,8.41-8.42,8.42,8.42,0,0,1-8.41,8.42" transform="translate(-24.03 0.33)"/><path class="cls-5" d="M48.94,91.79a8,8,0,1,0,8-8,8,8,0,0,0-8,8" transform="translate(-24.03 0.33)"/><path class="cls-3" d="M49.19,90.64S50.11,88,52.43,88c0,0,1,4.72,6.68,5.46,0,0,1.82,5.26-3,6.11,0,0-7.56-.68-6.92-8.91" transform="translate(-24.03 0.33)"/><path class="cls-5" d="M49.36,90.68c-.25,3.33.8,5.81,3.14,7.36a9.05,9.05,0,0,0,3.6,1.34,3.68,3.68,0,0,0,2.67-1.65A5.67,5.67,0,0,0,59,93.59a8,8,0,0,1-5.49-3.06,7.1,7.1,0,0,1-1.19-2.38c-2,.15-2.85,2.3-2.94,2.53m6.76,9h0a8.79,8.79,0,0,1-3.77-1.39C50.63,97.2,48.69,95,49,90.63v0s1-2.7,3.39-2.77h.14l0,.14a6.56,6.56,0,0,0,1.17,2.4,7.66,7.66,0,0,0,5.36,2.93l.11,0,0,.09c0,.11.89,2.64-.21,4.52a4,4,0,0,1-2.92,1.81Z" transform="translate(-24.03 0.33)"/><path class="cls-5" d="M57.81,83.83s-1.89,0-5.38,4.15c0,0,1,4.72,6.68,5.46,0,0,2.7-3.83,5.43-4.19a8.54,8.54,0,0,0-6.73-5.42" transform="translate(-24.03 0.33)"/><path class="cls-3" d="M55.56,92.22c1.51-1.27,4.15-3.49,5.07-4.11,1.12-.75,2-1.4,2.25-1.57a2.22,2.22,0,0,1-.14-.24A3.12,3.12,0,0,0,61.18,85l-.55-.22s-1.08-.43-3.37,1.36a14.41,14.41,0,0,0-3.38,4.66,7.23,7.23,0,0,0,1.68,1.47" transform="translate(-24.03 0.33)"/><path class="cls-3" d="M62.88,89.85s1.55,1.57,1.3,5.38A9.08,9.08,0,0,1,62.05,98a17.79,17.79,0,0,1-2.35,1.36s3.62-2.18,1.89-8.56Z" transform="translate(-24.03 0.33)"/><path class="cls-3" d="M56.27,84.43s-.63-.3-2.69.26l-3,2.22s2.47-1.55,4.31-1.49Z" transform="translate(-24.03 0.33)"/><path class="cls-5" d="M58.69,98.44a3.61,3.61,0,0,0,.79-1.62A15.11,15.11,0,0,1,53.41,94c-2.66-2-3.28-4-3.43-5a5.28,5.28,0,0,0-.84,1.31,7.93,7.93,0,0,0,2.64,5.88,9,9,0,0,0,6.91,2.26" transform="translate(-24.03 0.33)"/><path class="cls-5" d="M57,84.19a7.61,7.61,0,1,0,7.6,7.6,7.62,7.62,0,0,0-7.6-7.6m0,16a8.42,8.42,0,1,1,8.41-8.42A8.42,8.42,0,0,1,57,100.21" transform="translate(-24.03 0.33)"/><path class="cls-3" d="M73.45,91.78a8,8,0,1,0,8-8,8,8,0,0,0-8,8" transform="translate(-24.03 0.33)"/><path class="cls-5" d="M81.45,84.19a7.61,7.61,0,1,0,7.61,7.6,7.61,7.61,0,0,0-7.61-7.6m0,16a8.42,8.42,0,1,1,8.42-8.42,8.42,8.42,0,0,1-8.42,8.42" transform="translate(-24.03 0.33)"/><path class="cls-5" d="M88.26,87.05l-.13.12c-.07.07-.19.19-.34.32a8.79,8.79,0,0,1-1.39,1,9.5,9.5,0,0,1-2.22.92,11,11,0,0,1-2.73.36,10.89,10.89,0,0,1-2.72-.36,9.59,9.59,0,0,1-2.23-.92,8.63,8.63,0,0,1-1.38-1c-.16-.13-.27-.25-.35-.32l-.12-.12.07-.07.12.11c.08.08.19.19.35.33a8.13,8.13,0,0,0,1.37,1,9.25,9.25,0,0,0,2.19.91,10.31,10.31,0,0,0,5.4,0,9.16,9.16,0,0,0,2.2-.91,8.13,8.13,0,0,0,1.37-1c.15-.14.27-.25.34-.33l.12-.11Z" transform="translate(-24.03 0.33)"/><path class="cls-5" d="M74.5,88.12l-.09-.05s.11-.22.23-.43.24-.42.24-.42h0a4.43,4.43,0,0,0,.4-.27l.4-.28.06.09-.4.28-.39.26s-.13.23-.23.41-.23.43-.23.43" transform="translate(-24.03 0.33)"/><path class="cls-5" d="M74.73,88.32l-.09,0,.22-.44c.1-.22.22-.43.22-.43v0h0l.39-.28.38-.29.06.08-.38.29-.39.27c0,.05-.12.24-.21.42s-.21.44-.22.44" transform="translate(-24.03 0.33)"/><path class="cls-5" d="M75,88.52l-.1,0s.1-.23.2-.45.21-.44.21-.44h0l.38-.29.37-.31.07.08s-.19.16-.38.3-.33.26-.37.3-.12.23-.21.42-.19.44-.19.45" transform="translate(-24.03 0.33)"/><path class="cls-5" d="M75.23,88.7l-.1,0,.06-.14c0-.09.08-.2.12-.32l.2-.45h0s.19-.16.37-.31l.26-.22.11-.1.07.08-.12.1-.25.22-.37.3-.18.43-.13.31Z" transform="translate(-24.03 0.33)"/><path class="cls-5" d="M75.48,88.88l-.1,0,.17-.46.18-.46h0l.37-.32.35-.32.07.07-.36.33-.35.31-.17.44c-.09.23-.17.46-.17.46" transform="translate(-24.03 0.33)"/><path class="cls-5" d="M75.74,89.05l-.1,0s.07-.24.15-.47l.17-.47.36-.34.35-.34.07.07s-.17.18-.35.35l-.34.32-.08.2-.08.25c-.08.22-.15.46-.15.46" transform="translate(-24.03 0.33)"/><path class="cls-5" d="M76,89.21l-.1,0,0-.15.1-.32c.07-.23.15-.46.15-.46v0h0l.34-.35.34-.35.07.07-.1.11-.23.24-.34.34s-.08.25-.14.45Z" transform="translate(-24.03 0.33)"/><path class="cls-5" d="M76.27,89.36l-.1,0,.12-.47.14-.47h0l.33-.35.32-.36.08.06s-.16.19-.33.37l-.32.34s-.07.25-.13.46l-.12.47" transform="translate(-24.03 0.33)"/><path class="cls-5" d="M76.54,89.5l-.1,0s0-.24.11-.48.12-.47.12-.47h0l.32-.36.31-.37.08.06-.31.37-.32.36-.11.46c-.06.23-.11.47-.11.47" transform="translate(-24.03 0.33)"/><path class="cls-5" d="M76.82,89.64l-.1,0s0-.25.09-.48.11-.48.11-.48h0l.3-.37.3-.38.08.06-.3.38-.3.36s-.06.26-.1.47-.09.47-.09.48" transform="translate(-24.03 0.33)"/><path class="cls-5" d="M77.1,89.76l-.1,0s0-.24.07-.48.1-.47.1-.48h0l.29-.38c.15-.19.29-.39.29-.39l.08.06s-.14.2-.29.39-.26.33-.29.38-.05.25-.08.46-.08.48-.08.48" transform="translate(-24.03 0.33)"/><path class="cls-5" d="M77.38,89.88h-.1s0-.25.06-.49l.08-.48h0l.28-.39.28-.4.08.06-.27.4-.28.38s0,.26-.08.47-.06.48-.06.48" transform="translate(-24.03 0.33)"/><path class="cls-5" d="M77.66,90h-.1s0-.25.06-.49.06-.48.06-.48v0h0l.27-.4c.13-.19.26-.4.26-.4l.09,0s-.13.21-.27.41l-.26.39s0,.26-.06.47l-.06.48" transform="translate(-24.03 0.33)"/><path class="cls-5" d="M78,90.08h-.1l0-.49c0-.24,0-.48,0-.48v0h0s.14-.2.27-.4l.25-.42.09.06-.26.41-.25.4c0,.05,0,.26-.05.47l0,.48" transform="translate(-24.03 0.33)"/><path class="cls-5" d="M78.24,90.18h-.1s0-.25,0-.49,0-.48,0-.48v0h0s.13-.2.25-.41l.24-.42.09,0s-.12.22-.25.42l-.24.41s0,.26,0,.47,0,.48,0,.49" transform="translate(-24.03 0.33)"/><path class="cls-5" d="M78.54,90.26h-.1v-.49l0-.5.08-.14.16-.29c.12-.21.23-.43.23-.43l.09,0s-.11.22-.23.43l-.23.41,0,.47c0,.24,0,.49,0,.49" transform="translate(-24.03 0.33)"/><path class="cls-5" d="M78.73,90.34v-1h0s.12-.22.23-.43l.21-.43.09,0-.21.44c-.1.18-.2.37-.23.41v1Z" transform="translate(-24.03 0.33)"/><path class="cls-5" d="M79,90.4l0-.48c0-.24,0-.49,0-.49h0s.11-.22.21-.44.21-.43.21-.44l.09,0s-.1.22-.21.44-.18.37-.21.42,0,.26,0,.47l0,.49Z" transform="translate(-24.03 0.33)"/><path class="cls-5" d="M79.33,90.47s0-.25,0-.49l0-.49h0l.2-.44c.1-.22.19-.44.19-.44l.1,0-.2.45-.19.43s0,.26,0,.47,0,.49,0,.49Z" transform="translate(-24.03 0.33)"/><path class="cls-5" d="M79.63,90.52s0-.25,0-.49,0-.48,0-.48v0h0s.1-.22.19-.44l.18-.45.1,0-.18.45-.19.43s0,.26,0,.47,0,.49,0,.49Z" transform="translate(-24.03 0.33)"/><path class="cls-5" d="M79.93,90.56s0-.24-.06-.48,0-.24,0-.33l0-.17.06-.15c0-.08.08-.2.12-.31s.17-.45.17-.45l.1,0s-.08.23-.17.46a3.21,3.21,0,0,0-.12.31l-.06.13,0,.14c0,.09,0,.21,0,.33l.06.48Z" transform="translate(-24.03 0.33)"/><path class="cls-5" d="M80.23,90.6s0-.25-.07-.48-.06-.49-.06-.49h0s.09-.23.17-.46.15-.45.15-.45l.1,0-.16.46-.16.44c0,.05,0,.26.06.47s.07.48.07.48Z" transform="translate(-24.03 0.33)"/><path class="cls-5" d="M80.53,90.63l-.08-.48-.08-.5.16-.47.14-.46.1,0-.14.46-.15.45,0,.14,0,.33.08.48Z" transform="translate(-24.03 0.33)"/><path class="cls-5" d="M80.83,90.65s0-.24-.09-.48-.09-.48-.09-.48h0v0s.08-.23.15-.46.13-.46.13-.46l.09,0s-.06.23-.13.46-.12.4-.14.45l.09.47c0,.24.09.48.09.48Z" transform="translate(-24.03 0.33)"/><path class="cls-5" d="M81.14,90.66s-.06-.24-.11-.48l-.1-.47h0v0s.07-.23.13-.46l.12-.47.1,0-.12.47c-.06.21-.11.41-.13.46s0,.26.1.46.1.47.1.48Z" transform="translate(-24.03 0.33)"/><path class="cls-5" d="M81.44,90.67l-.12-.48c-.06-.23-.11-.47-.11-.47v0h0l.12-.47.1-.47.1,0-.11.47c0,.2-.1.41-.11.46l.11.46.12.47Z" transform="translate(-24.03 0.33)"/><path class="cls-5" d="M81.74,90.66s-.07-.24-.13-.47l-.12-.47h0s.05-.24.1-.48l.1-.47.1,0-.1.47c0,.21-.09.42-.1.47s.06.25.12.45.13.47.13.47Z" transform="translate(-24.03 0.33)"/><path class="cls-5" d="M82.05,90.65l0-.14c0-.09-.06-.21-.1-.33s-.13-.46-.13-.47h0s0-.24.1-.47,0-.24.06-.33l0-.15.1,0,0,.15c0,.09,0,.21-.06.33l-.09.46s.07.25.13.46.07.23.1.32l0,.14Z" transform="translate(-24.03 0.33)"/><path class="cls-5" d="M82.35,90.63l-.16-.46c-.07-.23-.15-.46-.15-.47h0s0-.24.08-.48.07-.47.07-.48l.1,0s0,.24-.07.48-.07.41-.08.47.08.25.15.45l.15.46Z" transform="translate(-24.03 0.33)"/><path class="cls-5" d="M82.65,90.6l-.17-.45-.16-.47h0s0-.24.07-.48,0-.48,0-.48h.1s0,.25-.05.49-.06.41-.07.46l.16.45c.08.23.17.45.17.46Z" transform="translate(-24.03 0.33)"/><path class="cls-5" d="M83,90.57l-.18-.46c-.09-.22-.17-.45-.17-.45h0v0s0-.24.05-.48,0-.48,0-.48h.11s0,.24,0,.48,0,.42,0,.47.09.25.17.45.18.45.18.45Z" transform="translate(-24.03 0.33)"/><path class="cls-5" d="M83.25,90.52s-.1-.22-.19-.44l-.19-.47,0-.49c0-.24,0-.48,0-.48h.11s0,.25,0,.49l0,.47.18.44.2.44Z" transform="translate(-24.03 0.33)"/><path class="cls-5" d="M83.56,90.47s-.11-.22-.21-.44l-.2-.45h0s0-.25,0-.48,0-.48,0-.49h.1s0,.24,0,.48,0,.42,0,.47l.19.44c.1.22.21.44.21.44Z" transform="translate(-24.03 0.33)"/><path class="cls-5" d="M83.85,90.41,83.63,90l-.2-.43v0h0l0-.48v-.49h.1V89c0,.21,0,.42,0,.47s.11.24.21.43l.21.43Z" transform="translate(-24.03 0.33)"/><path class="cls-5" d="M84.15,90.34s-.12-.21-.23-.43l-.22-.43h0v0s0-.24,0-.48v-.48h.1s0,.25,0,.49,0,.42,0,.47l.22.43.23.42Z" transform="translate(-24.03 0.33)"/><path class="cls-5" d="M84.45,90.26s-.13-.21-.25-.42-.23-.43-.23-.43h0s0-.25,0-.48,0-.48,0-.49H84l0,.48c0,.21,0,.42,0,.48l.22.41.24.42Z" transform="translate(-24.03 0.33)"/><path class="cls-5" d="M84.74,90.18l-.26-.41-.24-.43h0l0-.48c0-.24,0-.48,0-.49h.1l0,.48c0,.21,0,.42,0,.47l.24.41c.12.21.25.41.26.42Z" transform="translate(-24.03 0.33)"/><path class="cls-5" d="M85,90.09l-.27-.41-.25-.42h0s0-.25,0-.48,0-.48,0-.48h.1s0,.24,0,.48,0,.42,0,.47l.25.4.26.41Z" transform="translate(-24.03 0.33)"/><path class="cls-5" d="M85.32,90s-.15-.2-.28-.4l-.28-.41-.05-.5c0-.24-.06-.47-.06-.48h.1l.06.48,0,.47.26.4.28.39Z" transform="translate(-24.03 0.33)"/><path class="cls-5" d="M85.6,89.88l-.29-.4-.28-.4h0L85,88.58l-.08-.47.1,0,.08.48c0,.2.06.41.06.46s.15.22.28.39l.29.39Z" transform="translate(-24.03 0.33)"/><path class="cls-5" d="M85.89,89.75s-.16-.19-.31-.38L85.29,89h0l-.08-.48c0-.23-.09-.47-.09-.47l.1,0s.05.24.09.47.07.42.08.47l.28.38c.15.19.3.38.31.38Z" transform="translate(-24.03 0.33)"/><path class="cls-5" d="M86.17,89.63s-.16-.19-.32-.38l-.3-.38h0l-.1-.47-.1-.48.1,0,.1.48c0,.2.09.41.1.46l.29.37c.15.19.31.37.31.37Z" transform="translate(-24.03 0.33)"/><path class="cls-5" d="M86.44,89.49s-.17-.18-.32-.37l-.32-.37h0s-.05-.24-.11-.47l-.12-.47.1,0,.12.47.11.46.3.36.33.36Z" transform="translate(-24.03 0.33)"/><path class="cls-5" d="M86.71,89.35,86.38,89,86,88.62l0-.16-.08-.32-.14-.46.1,0s.07.23.13.46l.13.46.09.11.22.24a3.88,3.88,0,0,0,.34.35Z" transform="translate(-24.03 0.33)"/><path class="cls-5" d="M87,89.19l-.11-.1-.24-.24c-.17-.17-.33-.35-.33-.35h0s-.06-.24-.13-.47L86,87.56l.09,0,0,.15.1.31c.06.2.12.41.14.46l.33.34.34.34Z" transform="translate(-24.03 0.33)"/><path class="cls-5" d="M87.24,89l-.35-.33-.35-.34h0s-.08-.24-.16-.46-.16-.45-.16-.46l.09,0,.17.45c.07.2.13.4.15.45a3.72,3.72,0,0,0,.34.33l.35.34Z" transform="translate(-24.03 0.33)"/><path class="cls-5" d="M87.5,88.86l-.37-.32a2.71,2.71,0,0,1-.24-.23l-.12-.11-.06-.15a3.21,3.21,0,0,0-.12-.31c-.08-.23-.18-.45-.18-.45l.1,0,.18.45a2.54,2.54,0,0,0,.12.31l0,.13.1.1.25.23.37.31Z" transform="translate(-24.03 0.33)"/><path class="cls-5" d="M87.76,88.68a4.24,4.24,0,0,1-.38-.31,3.78,3.78,0,0,1-.37-.32h0v0l-.18-.44c-.09-.22-.19-.44-.19-.44l.09,0s.1.22.19.44l.18.44.36.3.38.31Z" transform="translate(-24.03 0.33)"/><path class="cls-5" d="M88,88.49l-.39-.29-.38-.31h0v0l-.2-.44c-.1-.22-.21-.43-.21-.43l.09,0s.11.22.21.44l.2.43.36.3.39.29Z" transform="translate(-24.03 0.33)"/><path class="cls-5" d="M88.24,88.3,87.85,88l-.4-.3h0l-.21-.43L87,86.84l.09,0,.23.43.2.43.38.28c.2.15.4.28.4.28Z" transform="translate(-24.03 0.33)"/><path class="cls-5" d="M88.48,88.09l-.41-.27-.4-.28h0s-.11-.22-.23-.43l-.23-.42.08-.05s.13.21.24.42l.23.42.38.27c.2.13.41.26.41.27Z" transform="translate(-24.03 0.33)"/><path class="cls-5" d="M88.71,87.88l-.42-.26L88,87.44l-.13-.09-.08-.14-.17-.29-.26-.41.09-.05.25.41c.07.11.13.21.17.29l.07.12.12.08.28.18.42.25Z" transform="translate(-24.03 0.33)"/><path class="cls-5" d="M74.65,96.52l.12-.12c.08-.07.19-.19.35-.32a8,8,0,0,1,1.38-1,9.69,9.69,0,0,1,2.22-.92,10.53,10.53,0,0,1,5.46,0,9.5,9.5,0,0,1,2.22.92,8.19,8.19,0,0,1,1.39,1c.15.13.27.25.34.32l.12.12-.07.07-.12-.11c-.08-.08-.19-.2-.34-.33a8,8,0,0,0-1.37-1,8.77,8.77,0,0,0-2.2-.91,10.31,10.31,0,0,0-5.4,0,9.1,9.1,0,0,0-2.2.91,7.83,7.83,0,0,0-1.36,1,4.09,4.09,0,0,0-.35.33l-.12.11Z" transform="translate(-24.03 0.33)"/><path class="cls-5" d="M87.22,96.92l-.06-.09.39-.28.4-.26.23-.41c.11-.21.22-.43.23-.43l.09,0-.23.44-.24.42h0l-.4.27a3.49,3.49,0,0,0-.39.28" transform="translate(-24.03 0.33)"/><path class="cls-5" d="M87,96.75,87,96.67l.39-.29.38-.27.22-.43c.11-.21.21-.43.21-.44l.09.05s-.1.22-.21.44a4.39,4.39,0,0,1-.23.43h0l-.39.28-.39.29" transform="translate(-24.03 0.33)"/><path class="cls-5" d="M86.84,96.6l-.06-.08.37-.31.38-.29.2-.42c.1-.22.2-.44.2-.45l.09,0-.2.45-.2.44h0l-.38.29-.38.31" transform="translate(-24.03 0.33)"/><path class="cls-5" d="M86.65,96.45l-.07-.08.11-.1.26-.22.36-.3.19-.43.12-.31.06-.14.09,0,0,.14c0,.09-.08.2-.13.32s-.19.44-.19.45h0s-.19.16-.37.31l-.25.22Z" transform="translate(-24.03 0.33)"/><path class="cls-5" d="M86.45,96.3l-.07-.07.35-.33.36-.31.17-.44c.08-.23.17-.46.17-.46l.09,0s-.08.24-.17.46-.17.45-.17.46h0L86.8,96l-.35.32" transform="translate(-24.03 0.33)"/><path class="cls-5" d="M86.24,96.17l-.07-.07.34-.35.35-.32L87,95l.15-.46.09,0s-.07.24-.15.47l-.17.47-.12.11-.24.23c-.17.16-.34.34-.34.34" transform="translate(-24.03 0.33)"/><path class="cls-5" d="M86,96,86,96l.1-.11.23-.24.33-.34s.09-.25.15-.45l.13-.47.1,0,0,.14-.1.33a4.74,4.74,0,0,1-.15.46v0h0l-.34.35Z" transform="translate(-24.03 0.33)"/><path class="cls-5" d="M85.81,95.91l-.07-.06.32-.37.32-.34s.08-.25.13-.46.13-.47.13-.47l.09,0-.12.47c-.06.23-.13.47-.13.47h0s-.17.18-.34.35-.31.36-.32.36" transform="translate(-24.03 0.33)"/><path class="cls-5" d="M85.59,95.79l-.07-.06s.15-.19.31-.37l.31-.36s.07-.25.12-.46l.1-.47.1,0-.1.48-.12.47h0l-.31.36c-.16.19-.31.37-.32.37" transform="translate(-24.03 0.33)"/><path class="cls-5" d="M85.37,95.68l-.08-.06.3-.38.3-.36s.06-.26.11-.47.09-.47.09-.48l.1,0s0,.25-.1.48-.1.48-.1.48h0l-.31.37-.3.38" transform="translate(-24.03 0.33)"/><path class="cls-5" d="M85.14,95.58l-.08-.06.29-.39.29-.38.09-.46.08-.48.1,0-.08.48c0,.24-.09.47-.09.48h0l-.3.38c-.14.19-.28.39-.29.39" transform="translate(-24.03 0.33)"/><path class="cls-5" d="M84.92,95.48l-.09-.06.28-.4.28-.38s0-.26.07-.47.07-.48.07-.48h.1s0,.25-.07.49-.07.48-.07.48h0l-.29.39-.27.4" transform="translate(-24.03 0.33)"/><path class="cls-5" d="M84.68,95.39l-.08,0s.13-.21.26-.41l.27-.39c0-.05,0-.26.06-.47s0-.48,0-.49h.1s0,.25,0,.49l-.06.48v0h0L85,95c-.14.19-.27.4-.27.4" transform="translate(-24.03 0.33)"/><path class="cls-5" d="M84.45,95.3l-.09,0s.12-.21.25-.41.23-.36.26-.4,0-.26,0-.47,0-.48,0-.49h.1s0,.25,0,.49,0,.48,0,.48v0h0l-.26.4c-.13.2-.25.41-.25.41" transform="translate(-24.03 0.33)"/><path class="cls-5" d="M84.21,95.23l-.09,0s.12-.22.24-.42l.25-.41s0-.26,0-.47,0-.48,0-.49h.1l0,.49c0,.24,0,.48,0,.48h0v0s-.13.2-.25.41-.24.41-.24.42" transform="translate(-24.03 0.33)"/><path class="cls-5" d="M84,95.16l-.09,0s.11-.22.23-.43l.23-.41V93.8c0-.24,0-.49,0-.49h.1s0,.25,0,.49l0,.5-.08.14-.17.29-.22.43" transform="translate(-24.03 0.33)"/><path class="cls-5" d="M83.72,95.09l-.09,0,.07-.14.15-.3.22-.41c0-.06,0-.27,0-.48v-.49h.11v.49c0,.24,0,.49,0,.49h0l-.23.43Z" transform="translate(-24.03 0.33)"/><path class="cls-5" d="M83.48,95l-.09,0,.2-.44.21-.42s0-.27,0-.47,0-.49,0-.49h.1s0,.25,0,.49v.49h0l-.22.44-.2.43" transform="translate(-24.03 0.33)"/><path class="cls-5" d="M83.23,95l-.09,0s.09-.22.19-.44l.2-.43s0-.26,0-.47,0-.49,0-.49h.1s0,.25,0,.49l0,.49h0s-.11.22-.21.44-.19.44-.19.44" transform="translate(-24.03 0.33)"/><path class="cls-5" d="M83,94.94l-.09,0,.18-.45c.08-.19.16-.38.19-.43s0-.27,0-.47l0-.49h.1s0,.25,0,.49l0,.48v0h0s-.1.22-.19.44l-.18.45" transform="translate(-24.03 0.33)"/><path class="cls-5" d="M82.73,94.9l-.09,0s.08-.23.17-.46.08-.23.12-.31L83,94v-.14c0-.09,0-.21,0-.33L82.88,93H83l.06.48c0,.12,0,.24,0,.33V94l-.06.15c0,.08-.08.19-.12.31s-.17.45-.17.45" transform="translate(-24.03 0.33)"/><path class="cls-5" d="M82.48,94.87l-.09,0s.07-.23.15-.46l.17-.44s0-.26-.06-.47-.07-.48-.07-.49h.1s0,.24.07.48l.06.49h0l-.16.46-.16.45" transform="translate(-24.03 0.33)"/><path class="cls-5" d="M82.23,94.85l-.1,0s.07-.24.15-.46l.15-.46,0-.13,0-.33L82.28,93l.09,0a4.65,4.65,0,0,1,.09.48l.07.49-.16.48c-.07.22-.14.46-.14.46" transform="translate(-24.03 0.33)"/><path class="cls-5" d="M82,94.83l-.1,0s.06-.23.13-.46.12-.4.14-.45,0-.26-.08-.47l-.1-.48.1,0,.1.48.08.48h0l-.14.47c-.07.23-.13.46-.13.46" transform="translate(-24.03 0.33)"/><path class="cls-5" d="M81.72,94.82l-.09,0s.05-.24.12-.47.11-.41.12-.46l-.09-.46c0-.24-.11-.47-.11-.48l.1,0s.06.24.11.48.09.47.09.47h0s-.06.24-.13.47-.11.47-.12.47" transform="translate(-24.03 0.33)"/><path class="cls-5" d="M81.47,94.82l-.1,0,.11-.47c0-.2.1-.41.12-.46s-.06-.25-.11-.46l-.12-.47.1,0,.12.48c0,.23.11.47.11.47v0h0s-.07.23-.12.47Z" transform="translate(-24.03 0.33)"/><path class="cls-5" d="M81.22,94.82l-.1,0s0-.24.09-.47l.11-.47s-.07-.25-.12-.45-.13-.47-.13-.47l.09,0,.14.47.12.47h0s-.06.24-.11.48-.09.47-.09.47" transform="translate(-24.03 0.33)"/><path class="cls-5" d="M81,94.83l-.1,0,0-.15c0-.09,0-.21.06-.33l.09-.46c0-.05-.07-.25-.13-.46s-.07-.23-.1-.32l0-.14.1,0,0,.14c0,.09.06.21.09.32l.14.47v0h0s0,.24-.09.47,0,.24-.06.33Z" transform="translate(-24.03 0.33)"/><path class="cls-5" d="M80.71,94.85l-.1,0s0-.24.07-.48.07-.41.08-.47-.08-.25-.14-.45-.16-.45-.16-.46l.1,0s.08.23.15.46.15.46.15.47h0l-.08.48c0,.23-.07.47-.07.48" transform="translate(-24.03 0.33)"/><path class="cls-5" d="M80.46,94.87h-.1s0-.25.06-.49.06-.41.06-.46-.08-.26-.15-.45-.17-.46-.17-.46l.09,0,.17.45c.09.23.16.46.16.46v0h0s0,.24-.07.48l-.06.48" transform="translate(-24.03 0.33)"/><path class="cls-5" d="M80.21,94.9h-.1l0-.48c0-.21,0-.42.06-.47s-.09-.25-.17-.45L79.86,93,80,93s.1.23.18.46l.18.45h0v0l-.06.48c0,.23,0,.47,0,.48" transform="translate(-24.03 0.33)"/><path class="cls-5" d="M80,94.93h-.1s0-.25,0-.49l0-.47-.05-.13-.13-.31c-.09-.22-.19-.44-.19-.44l.09,0s.1.22.19.44L80,94l0,.49c0,.24,0,.48,0,.48" transform="translate(-24.03 0.33)"/><path class="cls-5" d="M79.71,95h-.1l0-.48c0-.21,0-.42,0-.47l-.2-.44c-.09-.22-.2-.44-.2-.44l.09,0s.11.22.21.44.19.45.19.45h0s0,.25,0,.48l0,.48" transform="translate(-24.03 0.33)"/><path class="cls-5" d="M79.36,95s0-.25,0-.49,0-.42,0-.47l-.2-.43L79,93.21l.09,0s.12.22.22.44.21.43.21.43v0h0s0,.24,0,.48,0,.48,0,.49Z" transform="translate(-24.03 0.33)"/><path class="cls-5" d="M79.12,95.08s0-.24,0-.48v-.47l-.21-.43-.23-.42.08,0s.12.21.24.43l.22.43h0v.5c0,.24,0,.48,0,.48Z" transform="translate(-24.03 0.33)"/><path class="cls-5" d="M78.88,95.15s0-.24,0-.48,0-.43,0-.48-.12-.23-.23-.41-.24-.42-.24-.42l.09-.06s.13.22.24.43l.24.43h0s0,.24,0,.48,0,.48,0,.49Z" transform="translate(-24.03 0.33)"/><path class="cls-5" d="M78.63,95.22s0-.24,0-.48,0-.42,0-.47-.13-.23-.24-.41-.25-.41-.25-.42l.09,0,.25.41.25.43h0s0,.24,0,.48,0,.48,0,.49Z" transform="translate(-24.03 0.33)"/><path class="cls-5" d="M78.4,95.3s0-.24-.05-.48,0-.42,0-.47l-.25-.4c-.13-.21-.27-.41-.27-.41l.08-.06s.14.21.27.41l.26.42h0s0,.25,0,.48,0,.48,0,.48Z" transform="translate(-24.03 0.33)"/><path class="cls-5" d="M78.16,95.39s0-.24-.07-.48l0-.47-.26-.4c-.13-.2-.27-.39-.28-.4l.09,0,.27.4.28.41,0,.16,0,.34c0,.23.07.47.07.48Z" transform="translate(-24.03 0.33)"/><path class="cls-5" d="M77.93,95.48,77.85,95c0-.2-.06-.41-.07-.46l-.27-.39-.29-.39.08-.07.29.4.28.4h0s0,.24.07.48l.08.47Z" transform="translate(-24.03 0.33)"/><path class="cls-5" d="M77.7,95.58l-.1-.47c0-.21-.07-.42-.08-.47l-.28-.38-.3-.38.08-.06.3.38c.15.19.29.39.29.39h0l.08.48.1.47Z" transform="translate(-24.03 0.33)"/><path class="cls-5" d="M77.47,95.69s-.06-.24-.11-.48l-.09-.46s-.16-.21-.3-.37-.31-.37-.31-.37l.08-.07.31.38c.16.18.31.38.31.38h0s0,.24.09.47.11.47.11.48Z" transform="translate(-24.03 0.33)"/><path class="cls-5" d="M77.25,95.8s-.07-.23-.12-.47L77,94.87l-.31-.36-.32-.36.07-.07.33.36.31.38h0s.06.24.11.47l.12.46Z" transform="translate(-24.03 0.33)"/><path class="cls-5" d="M77,95.92l-.14-.46L76.77,95l-.09-.11-.23-.24-.33-.36.07-.07s.17.18.34.36l.33.37,0,.16.09.32a3.49,3.49,0,0,0,.14.46Z" transform="translate(-24.03 0.33)"/><path class="cls-5" d="M76.81,96.05l-.07-.21-.08-.25c-.06-.2-.12-.41-.13-.46s-.18-.19-.33-.34l-.35-.34.07-.08.11.11.24.24.34.35h0l.14.47.15.45Z" transform="translate(-24.03 0.33)"/><path class="cls-5" d="M76.6,96.18l-.16-.45c-.07-.2-.14-.4-.15-.45L76,95c-.17-.17-.36-.33-.36-.34l.07-.07.36.33.35.34h0s.07.24.15.46.17.45.17.46Z" transform="translate(-24.03 0.33)"/><path class="cls-5" d="M76.4,96.32s-.1-.23-.18-.45l-.12-.31,0-.13-.1-.1-.25-.23-.36-.31.06-.08.37.32.25.23.12.11,0,.15c0,.09.08.2.12.31l.18.45Z" transform="translate(-24.03 0.33)"/><path class="cls-5" d="M76.2,96.46,76,96l-.18-.44s-.19-.17-.36-.3L75.09,95l.06-.08.38.31a3.78,3.78,0,0,1,.37.32h0v0s.09.22.19.44.19.44.19.44Z" transform="translate(-24.03 0.33)"/><path class="cls-5" d="M76,96.62s-.1-.22-.21-.44l-.19-.43-.37-.3-.39-.29.06-.08.39.29c.19.15.38.3.38.31h0a4.62,4.62,0,0,0,.2.45c.1.21.2.43.21.43Z" transform="translate(-24.03 0.33)"/><path class="cls-5" d="M75.81,96.78s-.11-.22-.22-.44-.19-.37-.21-.42L75,95.64a3.53,3.53,0,0,0-.4-.28l.06-.09.4.28.39.3h0s.1.22.21.43.22.42.22.43Z" transform="translate(-24.03 0.33)"/><path class="cls-5" d="M75.63,96.94l-.24-.42c-.1-.18-.2-.37-.22-.42l-.39-.27-.41-.27.06-.08.41.27.4.27h0l.23.43.24.42Z" transform="translate(-24.03 0.33)"/><path class="cls-5" d="M75.46,97.11s-.14-.21-.26-.41L75,96.41,75,96.29l-.12-.08a2.77,2.77,0,0,0-.28-.18l-.41-.25,0-.09.42.26.28.17.14.09.08.15a2.33,2.33,0,0,0,.17.28c.12.21.25.41.25.41Z" transform="translate(-24.03 0.33)"/></g></g></g></svg>