<svg xmlns="http://www.w3.org/2000/svg" xmlns:xlink="http://www.w3.org/1999/xlink" viewBox="0 0 109.75 91.57"><defs><style>.cls-1{fill:none;}.cls-2{font-size:7.79px;}.cls-2,.cls-35{fill:#fff;}.cls-2,.cls-35,.cls-42{font-family:TradeGothicLTStd-BdCn20, Trade Gothic LT Std;}.cls-3{letter-spacing:0.04em;}.cls-4{letter-spacing:0.04em;}.cls-5{letter-spacing:0.02em;}.cls-6{letter-spacing:0.05em;}.cls-7{letter-spacing:0.05em;}.cls-8{letter-spacing:0.02em;}.cls-9{letter-spacing:0.04em;}.cls-10{letter-spacing:0.03em;}.cls-11{letter-spacing:0.04em;}.cls-12{letter-spacing:0.02em;}.cls-13{letter-spacing:0.06em;}.cls-14{letter-spacing:0.02em;}.cls-15{letter-spacing:0.02em;}.cls-16{letter-spacing:0.04em;}.cls-17{letter-spacing:0.05em;}.cls-18{letter-spacing:0.03em;}.cls-19{letter-spacing:0.01em;}.cls-20{letter-spacing:0.02em;}.cls-21{letter-spacing:0.02em;}.cls-22{letter-spacing:0.03em;}.cls-23{letter-spacing:0.02em;}.cls-24{letter-spacing:0.02em;}.cls-25{letter-spacing:0.03em;}.cls-26{letter-spacing:0.03em;}.cls-27{letter-spacing:0.03em;}.cls-28{letter-spacing:0.02em;}.cls-29{letter-spacing:0.02em;}.cls-30{letter-spacing:0.03em;}.cls-31{letter-spacing:0.01em;}.cls-32{letter-spacing:0.05em;}.cls-33{letter-spacing:0.03em;}.cls-34{clip-path:url(#clip-path);}.cls-35{font-size:6.63px;}.cls-36{letter-spacing:0.02em;}.cls-37{letter-spacing:0.05em;}.cls-38{letter-spacing:0.02em;}.cls-39{letter-spacing:0.01em;}.cls-40{letter-spacing:0.04em;}.cls-41{letter-spacing:0.01em;}.cls-42{font-size:32.45px;fill:#ffc841;}.cls-43{letter-spacing:-0.06em;}.cls-44{letter-spacing:-0.05em;}.cls-45{fill:#231f20;}</style><clipPath id="clip-path" transform="translate(-3.05 0)"><rect class="cls-1" width="113.89" height="90.18"/></clipPath></defs><g id="Layer_2" data-name="Layer 2"><g id="Layer_1-2" data-name="Layer 1"><text class="cls-2" transform="translate(12.47 71.97)"><tspan class="cls-3">M</tspan><tspan class="cls-4" x="5.11" y="0">A</tspan><tspan class="cls-5" x="8.9" y="0">R</tspan><tspan class="cls-6" x="12.98" y="0">Y</tspan><tspan class="cls-7" x="16.8" y="0">K</tspan><tspan class="cls-8" x="20.65" y="0">N</tspan><tspan class="cls-5" x="24.71" y="0">O</tspan><tspan class="cls-9" x="28.79" y="0">L</tspan><tspan x="32.15" y="0">L </tspan><tspan class="cls-10" x="36.91" y="0">I</tspan><tspan x="39.28" y="0">S </tspan><tspan class="cls-11" x="44.47" y="0">T</tspan><tspan class="cls-12" x="47.82" y="0">H</tspan><tspan x="51.9" y="0">E </tspan><tspan class="cls-13" x="57.08" y="0">L</tspan><tspan class="cls-4" x="60.6" y="0">A</tspan><tspan class="cls-14" x="64.39" y="0">R</tspan><tspan class="cls-15" x="68.46" y="0">G</tspan><tspan class="cls-16" x="72.49" y="0">E</tspan><tspan class="cls-17" x="76.25" y="0">S</tspan><tspan x="80.09" y="0">T </tspan></text><text class="cls-2" transform="translate(0 81.71)"><tspan class="cls-18">C</tspan><tspan class="cls-19" x="4.11" y="0">A</tspan><tspan class="cls-11" x="7.68" y="0">T</tspan><tspan class="cls-20" x="11.03" y="0">H</tspan><tspan class="cls-21" x="15.1" y="0">O</tspan><tspan class="cls-22" x="19.18" y="0">L</tspan><tspan class="cls-19" x="22.46" y="0">I</tspan><tspan class="cls-23" x="24.73" y="0">C</tspan><tspan x="28.77" y="0">, </tspan><tspan class="cls-24" x="32.23" y="0">C</tspan><tspan class="cls-25" x="36.26" y="0">O</tspan><tspan class="cls-26" x="40.37" y="0">-</tspan><tspan class="cls-27" x="43.17" y="0">E</tspan><tspan class="cls-28" x="46.87" y="0">D</tspan><tspan class="cls-29" x="50.91" y="0">U</tspan><tspan class="cls-18" x="54.97" y="0">C</tspan><tspan class="cls-19" x="59.08" y="0">A</tspan><tspan class="cls-30" x="62.65" y="0">T</tspan><tspan class="cls-31" x="65.94" y="0">I</tspan><tspan class="cls-20" x="68.21" y="0">O</tspan><tspan class="cls-4" x="72.28" y="0">N</tspan><tspan class="cls-32" x="76.5" y="0">A</tspan><tspan x="80.31" y="0">L </tspan><tspan class="cls-33" x="85.07" y="0">S</tspan><tspan class="cls-24" x="88.78" y="0">C</tspan><tspan class="cls-29" x="92.8" y="0">H</tspan><tspan class="cls-28" x="96.86" y="0">O</tspan><tspan class="cls-5" x="100.91" y="0">O</tspan><tspan x="104.99" y="0">L </tspan></text><g class="cls-34"><text class="cls-35" transform="translate(41.56 90)"><tspan class="cls-36">I</tspan><tspan x="1.98" y="0">N </tspan><tspan class="cls-37" x="6.77" y="0">H</tspan><tspan class="cls-38" x="10.41" y="0">A</tspan><tspan class="cls-39" x="13.48" y="0">W</tspan><tspan class="cls-40" x="18" y="0">A</tspan><tspan class="cls-41" x="21.22" y="0">I</tspan><tspan x="23.15" y="0">I</tspan></text></g><text class="cls-42" transform="translate(28.68 61.32)">K<tspan class="cls-43" x="14.41" y="0">-</tspan><tspan class="cls-44" x="23.26" y="0">1</tspan><tspan x="36.11" y="0">2</tspan></text><polygon class="cls-45" points="51.72 0 51.72 10.13 43.34 10.13 43.34 14.27 51.72 14.27 51.72 33.87 55.89 33.87 55.89 14.27 64.45 14.27 64.45 10.13 55.89 10.13 55.89 0 51.72 0"/></g></g></svg>