<svg xmlns="http://www.w3.org/2000/svg" xmlns:xlink="http://www.w3.org/1999/xlink" viewBox="0 0 71.46 87.78"><defs><style>.cls-1{fill:none;}.cls-2{fill:#fff;}.cls-3{fill:#ffc841;}.cls-4{clip-path:url(#clip-path);}.cls-5{fill:#231f20;}</style><clipPath id="clip-path" transform="translate(-21.43 0)"><rect class="cls-1" width="113.89" height="101.36"/></clipPath></defs><g id="Layer_2" data-name="Layer 2"><g id="Layer_1-2" data-name="Layer 1"><path class="cls-2" d="M42.52,83.47c0-.48-.29-.62-.51-.62s-.48.2-.48.55c0,1,2,1.42,2,2.94A1.38,1.38,0,0,1,42,87.78a1.48,1.48,0,0,1-1.45-1.56l.92-.13c0,.57.27.85.58.85a.5.5,0,0,0,.56-.51c0-1.12-2-1.41-2-3A1.31,1.31,0,0,1,42.1,82a1.34,1.34,0,0,1,1.34,1.36Z" transform="translate(-21.43 0)"/><path class="cls-2" d="M44.54,87.7V82.08h1V87.7Z" transform="translate(-21.43 0)"/><path class="cls-2" d="M46.68,87.7V82.08h.9l1.17,3.22h0V82.08h.87V87.7H48.8l-1.23-3.51h0V87.7Z" transform="translate(-21.43 0)"/><path class="cls-2" d="M52.69,84v-.44c0-.47-.22-.67-.47-.67s-.51.2-.51.62v2.85c0,.42.13.62.51.62s.47-.2.47-.57V85.7h1v.64a1.46,1.46,0,0,1-2.91,0V83.45A1.34,1.34,0,0,1,52.22,82a1.4,1.4,0,0,1,1.44,1.54V84Z" transform="translate(-21.43 0)"/><path class="cls-2" d="M54.78,87.7V82.08h2.58v.84H55.75v1.45H57v.84H55.75v1.65h1.72v.84Z" transform="translate(-21.43 0)"/><path class="cls-2" d="M59.84,87.7V87c1.2-1.75,1.85-2.72,1.85-3.54,0-.45-.17-.64-.43-.64s-.47.24-.47.58v.38h-.92v-.26A1.37,1.37,0,0,1,61.3,82a1.25,1.25,0,0,1,1.31,1.24c0,.89-.28,1.54-1.79,3.66h1.71v.79Z" transform="translate(-21.43 0)"/><path class="cls-2" d="M63.58,83.55C63.58,82.49,64,82,65,82s1.37.48,1.37,1.54v2.69c0,1.06-.41,1.54-1.37,1.54s-1.37-.48-1.37-1.54Zm1.82-.24c0-.37-.16-.54-.45-.54s-.45.17-.45.54v3.17c0,.37.16.54.45.54s.45-.17.45-.54Z" transform="translate(-21.43 0)"/><path class="cls-2" d="M68.2,83.25h-.77v-.52A6.1,6.1,0,0,0,68.58,82h.49V87.7H68.2Z" transform="translate(-21.43 0)"/><path class="cls-2" d="M71.39,86.08v.45a.43.43,0,0,0,.43.49c.3,0,.47-.18.47-.69V85.06c0-.37-.18-.52-.4-.52a.54.54,0,0,0-.52.43h-.75c0-.87.07-1.56.07-2.89H73l0,.8H71.48l0,1.21v0a.83.83,0,0,1,.74-.33c.74,0,1,.54,1,1.48V86c0,1.18-.37,1.74-1.31,1.74-.77,0-1.38-.34-1.38-1.28v-.42Z" transform="translate(-21.43 0)"/><path class="cls-3" d="M21.79,61V48.77h2.09V61Z" transform="translate(-21.43 0)"/><path class="cls-3" d="M26,61V48.77h2.1V59.13h3.29V61Z" transform="translate(-21.43 0)"/><path class="cls-3" d="M33,61V48.77h2.09v5h2.23v-5H39.4V61H37.31v-5.4H35.08V61Z" transform="translate(-21.43 0)"/><path class="cls-3" d="M52.7,55.5a18.42,18.42,0,0,1-1.15,3.19,2.26,2.26,0,0,0,1.17.57v1.86a3.59,3.59,0,0,1-2.37-.93,3.13,3.13,0,0,1-2.39.93A2.73,2.73,0,0,1,45,58.27a5.47,5.47,0,0,1,1.6-3.45,9.12,9.12,0,0,1-1-3.35,2.56,2.56,0,0,1,2.65-2.87,2.34,2.34,0,0,1,2.48,2.53c0,1.52-1.15,2.65-2.09,3.69a13.29,13.29,0,0,0,1.52,2.48A16.14,16.14,0,0,0,51,55Zm-4.51,3.8a1.32,1.32,0,0,0,1-.36,11.7,11.7,0,0,1-1.68-2.45A2.41,2.41,0,0,0,47,58,1.25,1.25,0,0,0,48.19,59.3ZM48,53.36a3.92,3.92,0,0,0,1-2.23c0-1-.27-1.32-.76-1.32s-.83.44-.83,1.2A6.81,6.81,0,0,0,48,53.36Z" transform="translate(-21.43 0)"/><path class="cls-3" d="M62.11,51.77c-.08-1.05-.64-1.35-1.11-1.35-.68,0-1,.44-1,1.2,0,2.07,4.26,3.07,4.26,6.38a3,3,0,0,1-3.31,3.12,3.21,3.21,0,0,1-3.14-3.38l2-.28c.09,1.23.57,1.84,1.25,1.84a1.07,1.07,0,0,0,1.21-1.12c0-2.41-4.25-3-4.25-6.55,0-1.94,1.18-3,3.24-3,1.71,0,2.72,1.23,2.9,2.95Z" transform="translate(-21.43 0)"/><path class="cls-3" d="M67.48,50.59h-2V48.77H71.6v1.82h-2V61H67.48Z" transform="translate(-21.43 0)"/><path class="cls-3" d="M73.89,61h-2l2.24-12.18h2.6L79,61h-2l-.37-2.7h-2.3Zm.68-4.52h1.68l-.82-5.23h0Z" transform="translate(-21.43 0)"/><path class="cls-3" d="M81.23,50.59h-2V48.77h6.14v1.82h-2V61H81.23Z" transform="translate(-21.43 0)"/><path class="cls-3" d="M86.93,61V48.77h5.61v1.82H89v3.14h2.7v1.82H89v3.58h3.74V61Z" transform="translate(-21.43 0)"/><path class="cls-3" d="M25.65,69.71v-.95c0-1-.47-1.47-1-1.47-.85,0-1.11.44-1.11,1.35v6.18c0,.91.26,1.35,1.11,1.35s1-.44,1-1.23V73.47h2.09v1.4A2.9,2.9,0,0,1,24.64,78a2.93,2.93,0,0,1-3.21-3.12V68.59a2.93,2.93,0,0,1,3.21-3.12,3,3,0,0,1,3.1,3.34v.9Z" transform="translate(-21.43 0)"/><path class="cls-3" d="M29.8,77.82V65.64h2.09v5h2.23v-5h2.09V77.82H34.12v-5.4H31.89v5.4Z" transform="translate(-21.43 0)"/><path class="cls-3" d="M39.82,77.82h-2L40,65.64h2.6l2.25,12.18h-2l-.37-2.7H40.2Zm.68-4.52h1.69l-.83-5.23h0Z" transform="translate(-21.43 0)"/><path class="cls-3" d="M54.91,65.64V77.82H53.09V68.3h0l-1.89,9.52h-1L48.26,68.3h0v9.52H46.4V65.64h2.76l1.48,7.12h0l1.49-7.12Z" transform="translate(-21.43 0)"/><path class="cls-3" d="M56.9,77.82V65.64h3c2.59,0,3.78,1,3.78,3.59s-1.19,3.6-3.78,3.6H59v5ZM59,71.11h.81c1.37,0,1.79-.43,1.79-1.88s-.42-1.87-1.79-1.87H59Z" transform="translate(-21.43 0)"/><path class="cls-3" d="M65.62,77.82V65.64h2.1V77.82Z" transform="translate(-21.43 0)"/><path class="cls-3" d="M69.88,68.59a3.21,3.21,0,0,1,6.41,0v6.28a3.21,3.21,0,0,1-6.41,0ZM72,74.82c0,.91.27,1.35,1.11,1.35s1.12-.44,1.12-1.35V68.64c0-.91-.27-1.35-1.12-1.35S72,67.73,72,68.64Z" transform="translate(-21.43 0)"/><path class="cls-3" d="M78.31,77.82V65.64h1.94l2.55,7h0v-7h1.89V77.82H82.9l-2.66-7.61h0v7.61Z" transform="translate(-21.43 0)"/><path class="cls-3" d="M90.8,68.64c-.09-1-.64-1.35-1.12-1.35-.67,0-1,.44-1,1.2,0,2.08,4.25,3.07,4.25,6.38A3,3,0,0,1,89.58,78c-1.94,0-3-1.55-3.14-3.37l2-.29c.08,1.23.57,1.84,1.24,1.84a1.08,1.08,0,0,0,1.22-1.11c0-2.42-4.25-3.06-4.25-6.55,0-1.94,1.18-3,3.24-3,1.7,0,2.71,1.23,2.9,3Z" transform="translate(-21.43 0)"/><g class="cls-4"><path class="cls-3" d="M48.91,7.63H46.55V6a17.61,17.61,0,0,0,3.53-2.23H51.6V21.36H48.91Z" transform="translate(-21.43 0)"/><path class="cls-3" d="M58,16.34v1.18c0,1.08.43,1.73,1.34,1.73s1.42-.6,1.42-2V15.89c0-1.88-.72-2.45-2.55-2.45V11.09c1.76,0,2.43-.58,2.43-2.64,0-1.64-.32-2.31-1.2-2.31s-1.35.41-1.35,1.78v.72H55.43V7.82a3.78,3.78,0,0,1,4.06-4c2.57,0,3.86,2.13,3.86,4.44,0,2-.33,3.14-1.87,4,1.76.92,2.14,1.95,2.14,4.3,0,3.46-1.37,5.09-4.32,5.09-2.47,0-4-1.25-4-4.23v-1Z" transform="translate(-21.43 0)"/><path class="cls-5" d="M45.92,19.17a6,6,0,0,1-2.62-.39l.83,2.54a9.85,9.85,0,0,0,2.72.33Z" transform="translate(-21.43 0)"/></g><polygon class="cls-5" points="22.54 4.14 19.88 4.14 19.88 6.26 22.69 6.26 22.54 4.14"/><g class="cls-4"><path class="cls-5" d="M69.35,12.13,70.18.47H67.94l-.83,11.66A29.81,29.81,0,0,1,58.47,31l3.86,11.78h2.24L60.71,31a29.76,29.76,0,0,0,8.64-18.91" transform="translate(-21.43 0)"/><path class="cls-5" d="M50,42.36h14L60.26,31.18a.46.46,0,0,1,.12-.47,29.27,29.27,0,0,0,8.5-18.62L69.68.93H44.21L45,12.09a29.33,29.33,0,0,0,8.51,18.62.46.46,0,0,1,.11.47Zm14.6.93H49.33A.47.47,0,0,1,49,43.1a.48.48,0,0,1-.07-.42l3.77-11.52a30.29,30.29,0,0,1-8.57-19L43.24.5a.49.49,0,0,1,.13-.35A.45.45,0,0,1,43.71,0H70.18a.47.47,0,0,1,.35.15.48.48,0,0,1,.12.35l-.84,11.66a30.18,30.18,0,0,1-8.57,19L65,42.68a.48.48,0,0,1-.06.42.47.47,0,0,1-.38.19" transform="translate(-21.43 0)"/><path class="cls-5" d="M68.31,19.64c-.17.51-.36,1-.56,1.52a10.54,10.54,0,0,0,9.91-10.53v-5a1.07,1.07,0,0,0-1.07-1.07H70.35l-.08,1.18H76a.46.46,0,0,1,.46.47v4.37a9.41,9.41,0,0,1-4.51,8l0,0a7.05,7.05,0,0,1-3.63,1m-1.2,2.47h-.06a.47.47,0,0,1-.46-.56.32.32,0,0,1,0-.09c.34-.79.64-1.61.91-2.43a.46.46,0,0,1,.44-.32h.31a6.25,6.25,0,0,0,3.18-.85v0a8.46,8.46,0,0,0,4.07-7.21V6.73H69.77a.48.48,0,0,1-.47-.5l.15-2.12a.48.48,0,0,1,.47-.43h6.67a2,2,0,0,1,2,2v5A11.47,11.47,0,0,1,67.11,22.11" transform="translate(-21.43 0)"/><path class="cls-5" d="M37.3,4.61a1.07,1.07,0,0,0-1.06,1.07v5a10.53,10.53,0,0,0,9.9,10.53c-.2-.5-.38-1-.56-1.52a7,7,0,0,1-3.62-1l0,0a9.4,9.4,0,0,1-4.52-8V6.26a.47.47,0,0,1,.47-.47h5.73l-.08-1.18Zm9.55,17.5h-.07A11.47,11.47,0,0,1,35.3,10.63v-5a2,2,0,0,1,2-2H44a.47.47,0,0,1,.47.43l.15,2.12a.46.46,0,0,1-.12.35.49.49,0,0,1-.34.15H38.35v3.9a8.46,8.46,0,0,0,4.07,7.21l0,0a6.19,6.19,0,0,0,3.17.85h.31a.48.48,0,0,1,.45.32c.26.82.57,1.64.91,2.43a.58.58,0,0,1,0,.19.47.47,0,0,1-.46.46" transform="translate(-21.43 0)"/><path class="cls-5" d="M54.31,31.32H53.19a.28.28,0,0,1-.28-.28.27.27,0,0,1,.28-.28h1.12a.28.28,0,0,1,.28.28.29.29,0,0,1-.28.28" transform="translate(-21.43 0)"/><path class="cls-5" d="M57.83,31.32H56.07a.28.28,0,0,1-.28-.28.27.27,0,0,1,.28-.28h1.76a.28.28,0,0,1,.28.28.29.29,0,0,1-.28.28" transform="translate(-21.43 0)"/><path class="cls-5" d="M60.71,31.32H59.59a.28.28,0,0,1-.28-.28.27.27,0,0,1,.28-.28h1.12A.28.28,0,0,1,61,31a.29.29,0,0,1-.28.28" transform="translate(-21.43 0)"/></g></g></g></svg>