<svg xmlns="http://www.w3.org/2000/svg" xmlns:xlink="http://www.w3.org/1999/xlink" viewBox="0 0 76.74 89.54"><defs><style>.cls-1{fill:none;}.cls-2{font-size:7.79px;fill:#fff;}.cls-10,.cls-2,.cls-24{font-family:TradeGothicLTStd-BdCn20, Trade Gothic LT Std;}.cls-3{letter-spacing:0.02em;}.cls-4{letter-spacing:0.01em;}.cls-5{letter-spacing:0.02em;}.cls-6{letter-spacing:0.02em;}.cls-7{letter-spacing:0.03em;}.cls-8{letter-spacing:0.02em;}.cls-9{letter-spacing:-0.02em;}.cls-10{font-size:16.87px;}.cls-10,.cls-24{fill:#ffc841;}.cls-11{letter-spacing:-0.01em;}.cls-12{letter-spacing:0.02em;}.cls-13{letter-spacing:0.03em;}.cls-14{letter-spacing:-0.01em;}.cls-15{letter-spacing:0.02em;}.cls-16{letter-spacing:0em;}.cls-17{letter-spacing:0em;}.cls-18{letter-spacing:0.02em;}.cls-19{letter-spacing:0.03em;}.cls-20{letter-spacing:0em;}.cls-21{letter-spacing:-0.01em;}.cls-22{letter-spacing:0.01em;}.cls-23{clip-path:url(#clip-path);}.cls-24{font-size:24px;}.cls-25{letter-spacing:-0.05em;}.cls-26{fill:#231f20;}</style><clipPath id="clip-path" transform="translate(-20.42 0)"><rect class="cls-1" width="113.89" height="101.36"/></clipPath></defs><g id="Layer_2" data-name="Layer 2"><g id="Layer_1-2" data-name="Layer 1"><text class="cls-2" transform="translate(19.88 87.7)"><tspan class="cls-3">S</tspan><tspan class="cls-4" x="3.64" y="0">I</tspan><tspan class="cls-5" x="5.92" y="0">N</tspan><tspan class="cls-6" x="9.98" y="0">C</tspan><tspan x="14.02" y="0">E </tspan><tspan class="cls-7" x="19.2" y="0">2</tspan><tspan class="cls-8" x="22.93" y="0">0</tspan><tspan class="cls-9" x="26.52" y="0">1</tspan><tspan x="29.83" y="0">5</tspan></text><text class="cls-10" transform="translate(0.07 60.95)"><tspan class="cls-11">I</tspan><tspan class="cls-12" x="4.61" y="0">L</tspan><tspan x="11.49" y="0">H &amp; </tspan><tspan class="cls-13" x="36.8" y="0">S</tspan><tspan class="cls-14" x="44.76" y="0">TA</tspan><tspan class="cls-15" x="58.52" y="0">T</tspan><tspan class="cls-16" x="65.43" y="0">E </tspan></text><text class="cls-10" transform="translate(0 77.82)"><tspan class="cls-17">C</tspan><tspan class="cls-18" x="8.37" y="0">H</tspan><tspan class="cls-19" x="17.18" y="0">A</tspan><tspan class="cls-20" x="25.09" y="0">M</tspan><tspan x="35.47" y="0">P</tspan><tspan class="cls-21" x="43.9" y="0">I</tspan><tspan x="48.44" y="0">O</tspan><tspan class="cls-22" x="56.88" y="0">N</tspan><tspan class="cls-16" x="65.55" y="0">S</tspan></text><g class="cls-23"><text class="cls-24" transform="translate(24.24 21.36)"><tspan class="cls-25">1</tspan><tspan x="9.58" y="0">3</tspan></text><path class="cls-26" d="M45.92,19.17a6,6,0,0,1-2.62-.39l.83,2.54a9.85,9.85,0,0,0,2.72.33Z" transform="translate(-20.42 0)"/></g><polygon class="cls-26" points="23.55 4.14 20.89 4.14 20.89 6.26 23.71 6.26 23.55 4.14"/><g class="cls-23"><path class="cls-26" d="M69.35,12.13,70.18.47H67.94l-.83,11.66A29.81,29.81,0,0,1,58.47,31l3.86,11.78h2.24L60.71,31a29.76,29.76,0,0,0,8.64-18.91" transform="translate(-20.42 0)"/><path class="cls-26" d="M50,42.36h14L60.26,31.18a.46.46,0,0,1,.12-.47,29.27,29.27,0,0,0,8.5-18.62L69.68.93H44.21L45,12.09a29.33,29.33,0,0,0,8.51,18.62.46.46,0,0,1,.11.47Zm14.6.93H49.33A.47.47,0,0,1,49,43.1a.48.48,0,0,1-.07-.42l3.77-11.52a30.29,30.29,0,0,1-8.57-19L43.24.5a.49.49,0,0,1,.13-.35A.45.45,0,0,1,43.71,0H70.18a.47.47,0,0,1,.35.15.48.48,0,0,1,.12.35l-.84,11.66a30.18,30.18,0,0,1-8.57,19L65,42.68a.48.48,0,0,1-.06.42.47.47,0,0,1-.38.19" transform="translate(-20.42 0)"/><path class="cls-26" d="M68.31,19.64c-.17.51-.36,1-.56,1.52a10.54,10.54,0,0,0,9.91-10.53v-5a1.07,1.07,0,0,0-1.07-1.07H70.35l-.08,1.18H76a.46.46,0,0,1,.46.47v4.37a9.41,9.41,0,0,1-4.51,8l0,0a7.05,7.05,0,0,1-3.63,1m-1.2,2.47h-.06a.47.47,0,0,1-.46-.56.32.32,0,0,1,0-.09c.34-.79.64-1.61.91-2.43a.46.46,0,0,1,.44-.32h.31a6.25,6.25,0,0,0,3.18-.85v0a8.46,8.46,0,0,0,4.07-7.21V6.73H69.77a.48.48,0,0,1-.47-.5l.15-2.12a.48.48,0,0,1,.47-.43h6.67a2,2,0,0,1,2,2v5A11.47,11.47,0,0,1,67.11,22.11" transform="translate(-20.42 0)"/><path class="cls-26" d="M37.3,4.61a1.07,1.07,0,0,0-1.06,1.07v5a10.53,10.53,0,0,0,9.9,10.53c-.2-.5-.38-1-.56-1.52a7,7,0,0,1-3.62-1l0,0a9.4,9.4,0,0,1-4.52-8V6.26a.47.47,0,0,1,.47-.47h5.73l-.08-1.18Zm9.55,17.5h-.07A11.47,11.47,0,0,1,35.3,10.63v-5a2,2,0,0,1,2-2H44a.47.47,0,0,1,.47.43l.15,2.12a.46.46,0,0,1-.12.35.49.49,0,0,1-.34.15H38.35v3.9a8.46,8.46,0,0,0,4.07,7.21l0,0a6.19,6.19,0,0,0,3.17.85h.31a.48.48,0,0,1,.45.32c.26.82.57,1.64.91,2.43a.58.58,0,0,1,0,.19.47.47,0,0,1-.46.46" transform="translate(-20.42 0)"/><path class="cls-26" d="M54.31,31.32H53.19a.28.28,0,0,1-.28-.28.27.27,0,0,1,.28-.28h1.12a.28.28,0,0,1,.28.28.29.29,0,0,1-.28.28" transform="translate(-20.42 0)"/><path class="cls-26" d="M57.83,31.32H56.07a.28.28,0,0,1-.28-.28.27.27,0,0,1,.28-.28h1.76a.28.28,0,0,1,.28.28.29.29,0,0,1-.28.28" transform="translate(-20.42 0)"/><path class="cls-26" d="M60.71,31.32H59.59a.28.28,0,0,1-.28-.28.27.27,0,0,1,.28-.28h1.12A.28.28,0,0,1,61,31a.29.29,0,0,1-.28.28" transform="translate(-20.42 0)"/></g></g></g></svg>