<svg xmlns="http://www.w3.org/2000/svg" xmlns:xlink="http://www.w3.org/1999/xlink" viewBox="0 0 107.43 90"><defs><style>.cls-1{fill:none;}.cls-2{fill:#fff;}.cls-3{clip-path:url(#clip-path);}.cls-4{fill:#ffc841;}.cls-5{fill:#231f20;}</style><clipPath id="clip-path" transform="translate(-3.52 0)"><rect class="cls-1" width="113.89" height="90.18"/></clipPath></defs><g id="Layer_2" data-name="Layer 2"><g id="Layer_1-2" data-name="Layer 1"><path class="cls-2" d="M19.86,66.36V72H19V67.59h0L18.13,72h-.47l-.87-4.38h0V72h-.84V66.36H17.2l.69,3.28h0l.69-3.28Z" transform="translate(-3.52 0)"/><path class="cls-2" d="M21.66,72h-.94l1-5.61H23L24,72h-.93l-.17-1.24H21.83ZM22,69.89h.78l-.38-2.41h0Z" transform="translate(-3.52 0)"/><path class="cls-2" d="M25.85,72h-1V66.36h1.35c1.09,0,1.64.45,1.64,1.65,0,.91-.35,1.27-.68,1.42L28,72H27l-.69-2.32-.5,0Zm0-3.09h.35c.52,0,.71-.2.71-.87s-.19-.86-.71-.86h-.35Z" transform="translate(-3.52 0)"/><path class="cls-2" d="M30.71,72h-1V69.64l-1.17-3.28h1l.68,2.14h0l.65-2.14h1l-1.17,3.28Z" transform="translate(-3.52 0)"/><path class="cls-2" d="M32.74,72V66.36h1v2.07h0l1-2.07h1l-1.05,2.09L35.83,72h-1l-.79-2.61h0L33.7,70v2Z" transform="translate(-3.52 0)"/><path class="cls-2" d="M36.64,72V66.36h.9l1.17,3.21h0V66.36h.87V72h-.84l-1.23-3.51h0V72Z" transform="translate(-3.52 0)"/><path class="cls-2" d="M40.7,67.72a1.48,1.48,0,0,1,3,0v2.89a1.48,1.48,0,0,1-3,0Zm1,2.87c0,.42.13.62.52.62s.51-.2.51-.62V67.74c0-.42-.12-.62-.51-.62s-.52.2-.52.62Z" transform="translate(-3.52 0)"/><path class="cls-2" d="M44.73,72V66.36h1v4.77h1.51V72Z" transform="translate(-3.52 0)"/><path class="cls-2" d="M48.1,72V66.36h1v4.77h1.52V72Z" transform="translate(-3.52 0)"/><path class="cls-2" d="M53,72V66.36h1V72Z" transform="translate(-3.52 0)"/><path class="cls-2" d="M57,67.74c0-.48-.3-.62-.52-.62s-.48.2-.48.55c0,1,2,1.42,2,2.94a1.37,1.37,0,0,1-1.52,1.44A1.47,1.47,0,0,1,55,70.5l.92-.14c0,.57.26.85.57.85a.49.49,0,0,0,.56-.51c0-1.11-2-1.41-2-3a1.32,1.32,0,0,1,1.5-1.4A1.36,1.36,0,0,1,58,67.64Z" transform="translate(-3.52 0)"/><path class="cls-2" d="M61,67.2h-.94v-.84h2.83v.84H62V72H61Z" transform="translate(-3.52 0)"/><path class="cls-2" d="M63.81,72V66.36h1v2.28h1V66.36h1V72h-1V69.48h-1V72Z" transform="translate(-3.52 0)"/><path class="cls-2" d="M67.88,72V66.36h2.59v.84H68.85v1.44h1.24v.84H68.85v1.65h1.73V72Z" transform="translate(-3.52 0)"/><path class="cls-2" d="M73,72V66.36h1v4.77h1.52V72Z" transform="translate(-3.52 0)"/><path class="cls-2" d="M77.15,72h-.93l1-5.61h1.2l1,5.61h-.93l-.17-1.24H77.32Zm.31-2.08h.78l-.38-2.41h0Z" transform="translate(-3.52 0)"/><path class="cls-2" d="M81.35,72h-1V66.36h1.36c1.08,0,1.63.45,1.63,1.65,0,.91-.35,1.27-.68,1.42L83.51,72h-1l-.68-2.32-.5,0Zm0-3.09h.34c.52,0,.72-.2.72-.87s-.2-.86-.72-.86h-.34Z" transform="translate(-3.52 0)"/><path class="cls-2" d="M85.78,69.13h1.58V72h-.47l-.18-.42a1.1,1.1,0,0,1-1,.5,1.28,1.28,0,0,1-1.29-1.44V67.72a1.32,1.32,0,0,1,1.41-1.44,1.4,1.4,0,0,1,1.45,1.54v.36h-.92c0-.84-.17-1.06-.55-1.06s-.43.14-.43.61v2.89c0,.36.12.59.45.59s.53-.22.53-.78v-.54h-.61Z" transform="translate(-3.52 0)"/><path class="cls-2" d="M88.48,72V66.36h2.59v.84H89.45v1.44h1.24v.84H89.45v1.65h1.72V72Z" transform="translate(-3.52 0)"/><path class="cls-2" d="M94,67.74c0-.48-.29-.62-.51-.62s-.48.2-.48.55c0,1,2,1.42,2,2.94a1.38,1.38,0,0,1-1.53,1.44A1.48,1.48,0,0,1,92,70.5l.92-.14c0,.57.27.85.58.85a.5.5,0,0,0,.56-.51c0-1.11-2-1.41-2-3a1.31,1.31,0,0,1,1.49-1.4,1.35,1.35,0,0,1,1.34,1.36Z" transform="translate(-3.52 0)"/><path class="cls-2" d="M96.63,67.2H95.7v-.84h2.83v.84H97.6V72h-1Z" transform="translate(-3.52 0)"/><path class="cls-2" d="M5.47,78v-.44c0-.47-.22-.68-.47-.68s-.51.21-.51.63v2.84c0,.42.12.63.51.63s.47-.21.47-.57V79.7h1v.65A1.34,1.34,0,0,1,5,81.79a1.35,1.35,0,0,1-1.48-1.44v-2.9A1.35,1.35,0,0,1,5,76a1.39,1.39,0,0,1,1.43,1.54V78Z" transform="translate(-3.52 0)"/><path class="cls-2" d="M8.19,81.71H7.26l1-5.62h1.2l1,5.62H9.59l-.17-1.25H8.36Zm.31-2.09h.78L8.9,77.21h0Z" transform="translate(-3.52 0)"/><path class="cls-2" d="M11.76,76.93h-.93v-.84h2.83v.84h-.94v4.78h-1Z" transform="translate(-3.52 0)"/><path class="cls-2" d="M14.56,81.71V76.09h1v2.29h1V76.09h1v5.62h-1V79.22h-1v2.49Z" transform="translate(-3.52 0)"/><path class="cls-2" d="M18.62,77.45A1.35,1.35,0,0,1,20.1,76a1.35,1.35,0,0,1,1.48,1.44v2.9a1.35,1.35,0,0,1-1.48,1.44,1.35,1.35,0,0,1-1.48-1.44Zm1,2.87c0,.42.12.63.51.63s.51-.21.51-.63V77.48c0-.42-.12-.63-.51-.63s-.51.21-.51.63Z" transform="translate(-3.52 0)"/><path class="cls-2" d="M22.65,81.71V76.09h1v4.78h1.52v.84Z" transform="translate(-3.52 0)"/><path class="cls-2" d="M26.11,81.71V76.09h1v5.62Z" transform="translate(-3.52 0)"/><path class="cls-2" d="M30.2,78v-.44c0-.47-.22-.68-.47-.68s-.51.21-.51.63v2.84c0,.42.12.63.51.63s.47-.21.47-.57V79.7h1v.65a1.33,1.33,0,0,1-1.43,1.44,1.35,1.35,0,0,1-1.48-1.44v-2.9A1.35,1.35,0,0,1,29.73,76a1.39,1.39,0,0,1,1.43,1.54V78Z" transform="translate(-3.52 0)"/><path class="cls-2" d="M33.15,81.71l-.54,1H32.2l.38-1h-.35v-.92h.92Z" transform="translate(-3.52 0)"/><path class="cls-2" d="M37.7,78v-.44c0-.47-.22-.68-.47-.68s-.51.21-.51.63v2.84c0,.42.12.63.51.63s.47-.21.47-.57V79.7h1v.65a1.33,1.33,0,0,1-1.43,1.44,1.35,1.35,0,0,1-1.48-1.44v-2.9A1.35,1.35,0,0,1,37.23,76a1.39,1.39,0,0,1,1.43,1.54V78Z" transform="translate(-3.52 0)"/><path class="cls-2" d="M39.78,77.45a1.48,1.48,0,0,1,3,0v2.9a1.48,1.48,0,0,1-3,0Zm1,2.87c0,.42.13.63.52.63s.51-.21.51-.63V77.48c0-.42-.12-.63-.51-.63s-.52.21-.52.63Z" transform="translate(-3.52 0)"/><path class="cls-2" d="M43.77,80v-.71h1.9V80Z" transform="translate(-3.52 0)"/><path class="cls-2" d="M46.69,81.71V76.09h2.59v.84H47.66v1.45H48.9v.84H47.66v1.65h1.73v.84Z" transform="translate(-3.52 0)"/><path class="cls-2" d="M50.39,76.09h1.43c1,0,1.52.54,1.52,1.7V80c0,1.15-.53,1.7-1.52,1.7H50.39Zm1,4.83h.34c.51,0,.69-.2.69-.79V77.67c0-.59-.18-.79-.69-.79h-.34Z" transform="translate(-3.52 0)"/><path class="cls-2" d="M54.43,76.09h1v4.24c0,.41.16.62.51.62s.52-.21.52-.62V76.09h1v4.2a1.48,1.48,0,1,1-3,0Z" transform="translate(-3.52 0)"/><path class="cls-2" d="M60.44,78v-.44c0-.47-.22-.68-.47-.68s-.51.21-.51.63v2.84c0,.42.12.63.51.63s.47-.21.47-.57V79.7h1v.65A1.33,1.33,0,0,1,60,81.79a1.35,1.35,0,0,1-1.48-1.44v-2.9A1.35,1.35,0,0,1,60,76a1.39,1.39,0,0,1,1.43,1.54V78Z" transform="translate(-3.52 0)"/><path class="cls-2" d="M63.16,81.71h-.93l1-5.62h1.19l1,5.62h-.93l-.18-1.25h-1Zm.32-2.09h.77l-.38-2.41h0Z" transform="translate(-3.52 0)"/><path class="cls-2" d="M66.73,76.93H65.8v-.84h2.83v.84H67.7v4.78h-1Z" transform="translate(-3.52 0)"/><path class="cls-2" d="M69.6,81.71V76.09h1v5.62Z" transform="translate(-3.52 0)"/><path class="cls-2" d="M71.73,77.45a1.48,1.48,0,0,1,3,0v2.9a1.48,1.48,0,0,1-3,0Zm1,2.87c0,.42.12.63.51.63s.51-.21.51-.63V77.48c0-.42-.12-.63-.51-.63s-.51.21-.51.63Z" transform="translate(-3.52 0)"/><path class="cls-2" d="M75.8,81.71V76.09h.89l1.18,3.21h0V76.09h.87v5.62h-.84L76.68,78.2h0v3.51Z" transform="translate(-3.52 0)"/><path class="cls-2" d="M80.59,81.71h-.94l1-5.62h1.19l1,5.62H82l-.18-1.25h-1Zm.31-2.09h.77l-.38-2.41h0Z" transform="translate(-3.52 0)"/><path class="cls-2" d="M83.79,81.71V76.09h1v4.78h1.52v.84Z" transform="translate(-3.52 0)"/><path class="cls-2" d="M90.35,77.48c0-.49-.3-.63-.51-.63s-.49.21-.49.56c0,1,2,1.41,2,2.94a1.38,1.38,0,0,1-1.52,1.44,1.48,1.48,0,0,1-1.45-1.56l.92-.13c0,.57.26.85.58.85a.5.5,0,0,0,.56-.52c0-1.11-2-1.41-2-3A1.32,1.32,0,0,1,89.93,76a1.35,1.35,0,0,1,1.34,1.36Z" transform="translate(-3.52 0)"/><path class="cls-2" d="M94.24,78v-.44c0-.47-.21-.68-.46-.68s-.52.21-.52.63v2.84c0,.42.13.63.52.63s.46-.21.46-.57V79.7h1v.65a1.46,1.46,0,0,1-2.91,0v-2.9A1.35,1.35,0,0,1,93.78,76a1.39,1.39,0,0,1,1.43,1.54V78Z" transform="translate(-3.52 0)"/><path class="cls-2" d="M96.32,81.71V76.09h1v2.29h1V76.09h1v5.62h-1V79.22h-1v2.49Z" transform="translate(-3.52 0)"/><path class="cls-2" d="M100.38,77.45a1.48,1.48,0,0,1,3,0v2.9a1.48,1.48,0,0,1-3,0Zm1,2.87c0,.42.12.63.51.63s.51-.21.51-.63V77.48c0-.42-.12-.63-.51-.63s-.51.21-.51.63Z" transform="translate(-3.52 0)"/><path class="cls-2" d="M104.43,77.45a1.48,1.48,0,0,1,3,0v2.9a1.48,1.48,0,0,1-3,0Zm1,2.87c0,.42.12.63.51.63s.51-.21.51-.63V77.48c0-.42-.12-.63-.51-.63s-.51.21-.51.63Z" transform="translate(-3.52 0)"/><path class="cls-2" d="M108.47,81.71V76.09h1v4.78H111v.84Z" transform="translate(-3.52 0)"/><g class="cls-3"><path class="cls-2" d="M45.12,90V85.21H46V90Z" transform="translate(-3.52 0)"/><path class="cls-2" d="M47,90V85.21h.76l1,2.74h0V85.21h.75V90H48.8l-1-3h0v3Z" transform="translate(-3.52 0)"/><path class="cls-2" d="M51.78,90V85.21h.83v2h.87v-2h.83V90h-.83V87.88h-.87V90Z" transform="translate(-3.52 0)"/><path class="cls-2" d="M55.9,90h-.8L56,85.21h1L57.89,90h-.8l-.15-1.06H56Zm.26-1.78h.67l-.33-2.06h0Z" transform="translate(-3.52 0)"/><path class="cls-2" d="M59.92,85.21h.68l.56,3.05h0l.46-3.05h.77L61.56,90h-.69l-.6-3.17h0L59.7,90H59l-.91-4.79h.77l.5,3.05h0Z" transform="translate(-3.52 0)"/><path class="cls-2" d="M63.49,90h-.8l.89-4.79h1L65.48,90h-.8l-.14-1.06h-.9Zm.27-1.78h.66l-.33-2.06h0Z" transform="translate(-3.52 0)"/><path class="cls-2" d="M66.34,90V85.21h.82V90Z" transform="translate(-3.52 0)"/><path class="cls-2" d="M68.27,90V85.21h.83V90Z" transform="translate(-3.52 0)"/></g><path class="cls-4" d="M33.48,61.32V37.89h4v8.67h.06l4.22-8.67h4l-4.35,8.73,4.9,14.7H42.28L39,50.42h-.06L37.51,53v8.3Z" transform="translate(-3.52 0)"/><path class="cls-4" d="M47.57,54.09v-3h8v3Z" transform="translate(-3.52 0)"/><path class="cls-4" d="M60.74,42.76H57.56V40.59a24.65,24.65,0,0,0,4.77-3h2V61.32H60.74Z" transform="translate(-3.52 0)"/><path class="cls-4" d="M69.27,61.32V58.18c5-7.31,7.73-11.33,7.73-14.77,0-1.85-.72-2.66-1.82-2.66-1.3,0-2,1-2,2.43v1.59H69.4v-1.1c0-3.44,2.21-6.1,6-6.1a5.22,5.22,0,0,1,5.45,5.19c0,3.7-1.17,6.43-7.47,15.25h7.11v3.31Z" transform="translate(-3.52 0)"/><polygon class="cls-5" points="51.25 0 51.25 10.13 42.87 10.13 42.87 14.27 51.25 14.27 51.25 33.87 55.43 33.87 55.43 14.27 63.98 14.27 63.98 10.13 55.43 10.13 55.43 0 51.25 0"/></g></g></svg>