<svg xmlns="http://www.w3.org/2000/svg" xmlns:xlink="http://www.w3.org/1999/xlink" viewBox="0 0 1448.45 412.06"><defs><style>.cls-1{fill:none;}.cls-2{clip-path:url(#clip-path);}.cls-3{fill:#731d34;}.cls-4{fill:#ffc83e;}.cls-5{fill:#fff;}.cls-6{clip-path:url(#clip-path-7);}.cls-7{fill:url(#linear-gradient);}.cls-8{fill:#3f3f3d;}</style><clipPath id="clip-path" transform="translate(0 0)"><rect class="cls-1" width="1449.71" height="413.22"/></clipPath><clipPath id="clip-path-7" transform="translate(0 0)"><path class="cls-1" d="M1404,148.75v3.17l4.65,6.13q11.41,0,18.18-6.13,0-6.34-7.61-9.09Q1404,144.3,1404,148.75M960.28,359.94q38.47-53.9,86.89-89.63Q979.73,404.13,940.62,404.13q0-12.06,19.66-44.19M1060.91,150v1.27q.84,4.86,9.09,4.86,8.88,0,30.44-13.74-7.61,24.09-33.61,85-4,20.94-30.44,36.79-90.06,74.61-108,133.82v9.3a11.29,11.29,0,0,0,4.39,4.76h14.82q54.33-12.3,119.26-155.49c43.55-31.43,96.77-47.15,194.3-47.15h16.7q70.82,0,149,12.05,3.18,5.92,7.61,5.92l14-1.16v-7.71q-70.41-16.71-161.31-16.71h-35.3c-80.06,0-127.07,12.12-175.7,36.36q31.92-71,45.66-118.59l-6.12-1.48h-3.18q-16.7,13.52-34.88,25.57h-1.48q0-2.74,13.53-38v-1.27a11.27,11.27,0,0,1-4.44-1.48q-14,0-24.31,47.15M976.6,165.87q9.93-13.53,13.74-15.22,0,8-13.74,16.91ZM937.06,87.23l-4.85,3a11.47,11.47,0,0,0,1.69,4.65Q917,132.89,917,143.46q0,9.09,9.31,9.09h4.65q22.78-6.84,46.55-27.51a120.73,120.73,0,0,0,8.41,13.56v1.27q-24.52,17.76-24.52,30.44,3.81,6.34,6.13,6.34h12.26q24.11-8.44,24.1-27.48l-1.27-10.57q38.05-19.87,38.06-21.56v-2.75a11.66,11.66,0,0,1-4.66-1.69q-9.51,0-41,18.39-7.61-14.79-7.61-18.39,3.81-5.92,6.13-5.92c0,3.94.91,5.92,2.75,5.92h7.61c2.12,0,3.17-1.06,3.17-3.17v-8.88q0-3.81-9.09-4.65-17.76,0-24.52,16.7a14.48,14.48,0,0,0,.28,2.57q-22.62,16.85-41.5,26.6v-7.61Q947.42,98,947.42,93.36V91.67c-1.41-3-2.88-4.44-4.43-4.44Zm384.11,78.64q9.93-13.53,13.74-15.22,0,8-13.74,16.91Zm-176.76-22.2,1.48-15.22q6.77,10.78,7.62,10.78a15.62,15.62,0,0,1-7.62,9.31h-1.48Zm15.22-24.09h1.48v6.13h-1.48Zm1.48-7.62h1.7v6.14h-1.7Zm115.45-31.29c-3,.78-6.35,20.06-15.21,36-9.64,13.34-17.56,17.5-19.9,17.5l-2.75-1.27q4.44-16.06,4.44-19.87v-3l-7.61-1.48h-1.69l-4.44,2.75q-21.78,26-24.31,26,0-3.37,13.53-39.53v-3a2.9,2.9,0,0,0-2.75-3.17H1211q-5.29,0-13.43,24.72c-10.07,9.3-19.13,15.46-27.16,18.4q4.44-20.29,4.44-21.56Q1172.33,98,1164.29,98l-9.09,1.69q-22.83,17.33-22.84,44v1.7q0,7.81,5.92,10.78H1152q12.26-8,12.26-13.74c9.76,0,19.12-3,28.07-8.75-.33,1.21-.67,2.41-1,3.67q0,7.62,4.44,9.3h10.78q7.61,0,19.66-12.47,0,7.6,10.78,7.61s10.46,1.06,15.52-1.57c3.93-2,12-8.88,18.17-17.52a27.45,27.45,0,0,0,4.62-7.57c0-.06.07-.12.1-.19h0a103.06,103.06,0,0,0,5.81-17.56,56.47,56.47,0,0,1,13.75,1.7Q1278,133.32,1278,139.87q0,9.3,9.3,9.3h5.92q11.37,0,30-22a130.59,130.59,0,0,0,7.26,11.4v1.27q-24.53,17.76-24.52,30.44,3.81,6.34,6.13,6.34h12.26q24.11-8.44,24.1-27.48l-1.26-10.57q38-19.87,38-21.56v-2.75a11.68,11.68,0,0,1-4.65-1.69q-9.51,0-41,18.39Q1332,116.2,1332,112.6q3.81-5.92,6.13-5.92c0,3.94.92,5.92,2.75,5.92h7.61c2.12,0,3.17-1.06,3.17-3.17v-8.88q0-3.81-9.09-4.65-17.76,0-24.52,16.7a14,14,0,0,0,.13,1.52,9.34,9.34,0,0,0-2,2.92q-20.29,22.83-24.31,22.83V138.6q16.7-37.63,16.71-41.23V95.9q-20.52-9.32-26-15.23ZM0,56.52V75.2H20.76V181.4H42.2V75.2H63V56.52Zm119.85,0v50.86H97V56.52H75.57V181.4H97V126.05h22.83V181.4H141.3V56.52Zm42.19,0V181.4h59.85V162.72h-38.4V126.05h27.67V107.38H183.49V75.2h36V56.52Zm268.73,0V181.4h21.45V126.05h28.71V107.38H452.22V75.2h38.39V56.52Zm121.06,0v94.27c0,9.16-3.62,13.66-11.42,13.66S529,160,529,150.79V56.52H507.55v93.41c0,21.44,12.46,33.21,32.86,33.21s32.87-11.77,32.87-33.21V56.52Zm33.9,0V75.2h20.74V181.4h21.45V75.2h20.76V56.52Zm119.85,0v94.27c0,9.16-3.64,13.66-11.42,13.66s-11.42-4.5-11.42-13.66V56.52H661.3v93.41c0,21.44,12.45,33.21,32.86,33.21S727,171.37,727,149.93V56.52Zm63.63,17.65h7.61c11.59,0,15.92,4.32,15.92,19.19s-4.33,19.21-15.92,19.21h-7.61ZM747.76,56.52V181.4h21.45V130.21a105.1,105.1,0,0,0,11.07-.52L795.5,181.4h21.79l-18.16-56.55c7.27-3.29,15-11.42,15-31.49,0-26.63-12.28-36.84-36.32-36.84Zm86.47,0V181.4h59.84V162.72H855.68V126.05h27.67V107.38H855.68V75.2h36V56.52Zm139.2-39.27q-16.71,8.25-16.7,10.36c0,2.12,1,3.17,3.17,3.17h4.44q3.79,0,18.39-4.44V17.25Z"/></clipPath><linearGradient id="linear-gradient" x1="-213.38" y1="687.26" x2="-209.05" y2="687.26" gradientTransform="matrix(234.38, 0, 0, -234.38, 50012.67, 161295.94)" gradientUnits="userSpaceOnUse"><stop offset="0" stop-color="#731d34"/><stop offset="0.7" stop-color="#c01f4a"/><stop offset="1" stop-color="#c01f4a"/></linearGradient></defs><g id="Layer_2" data-name="Layer 2"><g id="Layer_1-2" data-name="Layer 1"><g class="cls-2"><path class="cls-3" d="M333.94,11.12c-2.33-4.7-5.52-9-10.32-11.12-3.45,2-7.16,6.09-10,11.19-42.48,6.25-75.4,50.14-75.4,103.36,0,57.5,38.44,104.13,85.84,104.13s85.82-46.63,85.82-104.13c0-53.43-33.18-97.46-75.9-103.43" transform="translate(0 0)"/><path class="cls-4" d="M336.67,18.77A37.3,37.3,0,0,1,334,43.3c28,5.82,49.36,35.6,49.36,71.5,0,40.09-26.59,72.56-59.38,72.56s-59.38-32.47-59.38-72.56c0-35.45,20.8-64.94,48.3-71.27a39.23,39.23,0,0,1-1.88-24.7c-37.8,7.56-66.64,47.65-66.64,96,0,53.73,35.63,97.28,79.6,97.28s79.59-43.55,79.59-97.28c0-48.45-29-88.62-66.94-96" transform="translate(0 0)"/><path class="cls-4" d="M310.9,19c-38.46,7.81-66.36,48.07-66.36,95.83,0,53.57,35.65,97.15,79.48,97.15s79.47-43.58,79.47-97.15c0-47.94-28-88.24-66.66-95.89a37.36,37.36,0,0,1-2.62,24.29c13.63,2.88,26.09,11.57,35.11,24.5,9.15,13.11,14.19,29.84,14.19,47.1,0,19.41-6.18,37.66-17.41,51.38S339.92,187.48,324,187.48s-30.85-7.56-42.08-21.29-17.42-32-17.42-51.38C264.52,80,284.8,50,312.78,43.44A39,39,0,0,1,310.9,19M324,212.2c-21.3,0-41.32-10.13-56.38-28.53s-23.34-42.85-23.34-68.86c0-23.24,6.81-45.73,19.17-63.35C275.7,34,292.59,22.4,311,18.71l.18,0,0,.17a38.8,38.8,0,0,0,1.87,24.63l.06.13-.14,0C285,50.08,264.76,80,264.76,114.81c0,39.94,26.58,72.43,59.26,72.43s59.26-32.49,59.26-72.43c0-35.44-20.72-65.46-49.26-71.39l-.15,0,.06-.14a37.13,37.13,0,0,0,2.63-24.45l0-.18.18,0c18.51,3.62,35.48,15.22,47.77,32.68,12.42,17.63,19.26,40.18,19.26,63.48,0,26-8.29,50.46-23.34,68.86S345.31,212.2,324,212.2" transform="translate(0 0)"/><path class="cls-3" d="M249.4,123.4l7.12-3.56a.24.24,0,0,0,0-.07s-.09-.06-.11-.06-3.22-1.09-5.32-1.71c-.75-.23-2-.46-2-.46,0-.15,0-1.5,0-1.81,0-.57-.15-1.3-.22-2a1,1,0,0,1,.65-.1,2.43,2.43,0,0,0,.24.86c.12.17.25.25.71.2,1.2-.11,5-.41,7.2-.62a6.47,6.47,0,0,0,1.73-.31c.23-.12.26-1,.25-1.08a1.12,1.12,0,0,1,.63-.06c0,.67-.06,1.55,0,2.29s.21,1.86.28,2.63a1.17,1.17,0,0,1-.64.07c0-.21-.13-1-.38-1.16a1.38,1.38,0,0,0-.61-.11c-.17,0-.74,0-1.05.08l-6,.48s-.45,0-.44.14,0,.05.12.08l8.33,2.53c.16,0,.75.38.76.68a.4.4,0,0,1,0,.15l-8.78,4.22c3.58-.07,4-.09,6.69-.13a6.72,6.72,0,0,0,1.18-.13c.35-.12.48-1.36.48-1.49a1.17,1.17,0,0,1,.63-.06c0,.67-.07,1.35,0,2.09s.17,1.32.25,2.09a1.06,1.06,0,0,1-.62.05c0-.2-.24-1.23-.69-1.4a13.6,13.6,0,0,0-1.52-.12c-2,0-6.51.09-7.32.1a.56.56,0,0,0-.37.1,2,2,0,0,0-.32,1.11,1,1,0,0,1-.64,0c0-.78,0-1,0-1.83,0-.56-.13-1.08-.2-1.75" transform="translate(0 0)"/><path class="cls-3" d="M260.56,127a1.13,1.13,0,0,0,.38,0c0-.28-.07-.54-.11-.79s-.1-.76-.13-1.22,0-.89,0-1.31c0-.23,0-.46,0-.68a1.22,1.22,0,0,0-.4,0c0,.32-.14,1.38-.55,1.51a5.85,5.85,0,0,1-1.22.14c-1.61,0-2.41,0-3.55.07l-3.14.06-.06-.23,8.74-4.19a.15.15,0,0,0,0-.06c0-.22-.51-.54-.67-.58l-8.33-2.53c-.1,0-.2-.07-.21-.19s.37-.25.54-.26l6-.48,1.05-.08a1.69,1.69,0,0,1,.67.12c.29.17.41.9.45,1.16h.06a2.11,2.11,0,0,0,.33,0c0-.26-.06-.56-.1-.86-.07-.59-.14-1.2-.16-1.7s0-1,0-1.5c0-.24,0-.48,0-.69a1.23,1.23,0,0,0-.39,0c0,.25,0,1-.32,1.1a5.47,5.47,0,0,1-1.6.31l-.17,0-4.87.42-2.33.2c-.51,0-.67,0-.82-.24a2.27,2.27,0,0,1-.25-.84h0a1.22,1.22,0,0,0-.37.07c0,.23.06.48.09.72,0,.42.11.82.12,1.17s0,1.36,0,1.72c.3.07,1.24.25,1.87.44,2.07.61,5.29,1.7,5.32,1.71s.19.08.19.18a.25.25,0,0,1-.05.13l0,0h0l-7,3.53c0,.22.06.43.08.63,0,.35.09.69.11,1.05s0,.75,0,1.06,0,.4,0,.67h.18a.78.78,0,0,0,.21,0,2.05,2.05,0,0,1,.37-1.13.67.67,0,0,1,.44-.13l1.41,0,5.92-.07a11,11,0,0,1,1.55.13c.5.17.71,1.08.77,1.4m.12.25a.83.83,0,0,1-.26,0l-.08,0v-.08c0-.21-.24-1.16-.61-1.29a11.65,11.65,0,0,0-1.48-.12c-1.46,0-4.25,0-5.91.07-.67,0-1.18,0-1.41,0a.64.64,0,0,0-.3.08,2,2,0,0,0-.27,1V127l0,0a.69.69,0,0,1-.41.09.8.8,0,0,1-.38-.06l0,0v0c0-.32,0-.56,0-.78s0-.59,0-1-.06-.68-.11-1-.06-.46-.08-.72v-.09l.07,0,7-3.49c-.6-.2-3.39-1.14-5.25-1.69-.74-.22-1.93-.45-1.94-.45l-.11,0v-.1c0-.15,0-1.49-.05-1.81a10.48,10.48,0,0,0-.12-1.15c0-.27-.07-.54-.1-.8v-.06l0,0a1.1,1.1,0,0,1,.59-.16.41.41,0,0,1,.21,0l.06,0v.07a2.37,2.37,0,0,0,.21.79c.1.13.2.19.61.15l2.33-.19c1.57-.13,3.53-.3,4.87-.43l.17,0a6,6,0,0,0,1.52-.28c.12-.06.19-.69.18-1v-.08l.07,0a1.3,1.3,0,0,1,.71-.07l.09,0v.09c0,.25,0,.52,0,.8,0,.51,0,1,0,1.49s.1,1.09.17,1.68c0,.34.08.66.11,1v0l0,0c-.12.12-.53.12-.55.12a.62.62,0,0,1-.21,0l-.08,0v-.09c0-.26-.16-1-.33-1.06a1.38,1.38,0,0,0-.49-.09H259l-1,.07-6,.49h-.18l8.21,2.5c.16,0,.83.4.85.79a.54.54,0,0,1,0,.19v.06l-8.35,4,2.59,0,3.56-.07a7.32,7.32,0,0,0,1.14-.12c.24-.08.41-1.15.39-1.37v-.08l.07,0a1.44,1.44,0,0,1,.72-.07l.09,0v.09c0,.27,0,.53,0,.8s0,.84,0,1.29.08.81.13,1.2.08.56.11.89v.07l-.06,0a1.05,1.05,0,0,1-.45.09" transform="translate(0 0)"/><path class="cls-3" d="M255.87,108.11s.07,0,.07,0c.06-.33.14-1,.17-1.39s.07-.82.09-1.34c0,0-.09-.06-.09-.06l-3.48,1.1ZM250.12,106c-.22-.12-.61-.49-.6-.68a.51.51,0,0,1,.15-.33l9-2.68c.55-.17.9-.24,1.28-.36.73-.22.84-1.13.85-1.26a1,1,0,0,1,.64,0c-.09.67-.27,1.5-.33,2.24s-.07,1.93-.09,2.54c-.09.08-.64,0-.64-.06a1.65,1.65,0,0,0-.22-1,.34.34,0,0,0-.27-.18c-.16,0-2.7.78-2.7.78s-.07.06-.07.11c-.1.64-.13,1.19-.16,1.61-.06.68-.1,1.16-.14,1.75a.16.16,0,0,0,.08.12s.92.5,1.38.73a8.44,8.44,0,0,0,1.13.47c.45,0,.69-1.11.7-1.24a.92.92,0,0,1,.64,0,14.64,14.64,0,0,0-.3,1.8,12.63,12.63,0,0,0,0,1.83.88.88,0,0,1-.62,0,2.14,2.14,0,0,0-.45-1.22,7.29,7.29,0,0,0-1.14-.7Z" transform="translate(0 0)"/><path class="cls-3" d="M252.94,106.42l2.9,1.54c.06-.37.12-1,.15-1.28.05-.48.07-.77.08-1.25Zm2.94,1.81h0l-.07,0-3.23-1.72,0-.22,3.51-1.11,0,0c.12,0,.18.1.17.18,0,.53,0,.83-.08,1.34,0,.36-.11,1-.18,1.4a.15.15,0,0,1-.17.13m4,3.87a1,1,0,0,0,.38,0V112a13.39,13.39,0,0,1,0-1.64,13.84,13.84,0,0,1,.26-1.64l0-.08a1.33,1.33,0,0,0-.39,0c-.06.28-.28,1.27-.78,1.27h0a7,7,0,0,1-1.18-.49c-.46-.22-1.38-.72-1.39-.73a.25.25,0,0,1-.13-.24c0-.58.07-1,.13-1.73l0-.32c0-.36.06-.81.13-1.31a.28.28,0,0,1,.12-.18l0,0c.59-.19,2.53-.79,2.72-.79a.47.47,0,0,1,.38.23,1.85,1.85,0,0,1,.25,1,1.72,1.72,0,0,0,.29,0h.11v-.52c0-.62,0-1.38.08-1.94s.12-1,.21-1.46c0-.24.08-.48.11-.7a1.78,1.78,0,0,0-.4,0A1.54,1.54,0,0,1,260,102l-.54.15c-.21,0-.44.11-.73.2l-9,2.67a.55.55,0,0,0-.09.25c0,.09.3.42.53.56l8.08,4.31a7.45,7.45,0,0,1,1.16.7,2.2,2.2,0,0,1,.5,1.23m.25.27a1.22,1.22,0,0,1-.42-.07l-.08,0v-.09a2.12,2.12,0,0,0-.4-1.11,7.37,7.37,0,0,0-1.13-.68l-8.08-4.31c-.21-.12-.68-.53-.66-.79a.64.64,0,0,1,.22-.44l9-2.68a7.46,7.46,0,0,1,.74-.21l.53-.15c.67-.21.77-1.06.77-1.16v-.07l.06,0a.92.92,0,0,1,.35-.05c.13,0,.35,0,.43.11l0,0v0c0,.24-.08.51-.13.79-.08.48-.17,1-.2,1.44s-.06,1.31-.08,1.92c0,.23,0,.45,0,.61v.06l0,0a.46.46,0,0,1-.3.07c-.07,0-.39,0-.49-.12l0,0v-.06a1.63,1.63,0,0,0-.2-.94c-.07-.1-.13-.13-.19-.13s-1.68.47-2.62.77l0,0c-.07.48-.1.93-.13,1.29l0,.31c-.06.7-.11,1.16-.14,1.74l0,0s.92.5,1.37.72a7.32,7.32,0,0,0,1.1.46c.29,0,.54-.9.56-1.13v-.06l0,0a.55.55,0,0,1,.29-.06,1,1,0,0,1,.5.11l.05,0-.05.25a12.06,12.06,0,0,0-.26,1.61,11.19,11.19,0,0,0,0,1.61v.27l0,0a.56.56,0,0,1-.32.07" transform="translate(0 0)"/><path class="cls-3" d="M252,93.27c-.09.38-.15.75,0,.87a3.32,3.32,0,0,0,1,.3l3.51.76.16-.75a2,2,0,0,0-1.79-2.27c-1.33-.29-2.62-.26-2.91,1.09m3.27-3.58a3.37,3.37,0,0,1,2.24,2.83l3.64-1.7a3.83,3.83,0,0,0,2.22-2.38c.14-.06.59.11.62.13-.07.49-.25,1.5-.39,2.17A3.19,3.19,0,0,1,261.82,93l-4.23,1.87s-.28.11-.31.24l0,.24,2.58.57a5.33,5.33,0,0,0,1.61.21c.24,0,.47-.78.53-1a.87.87,0,0,1,.62.14c-.2.62-.47,1.63-.62,2.32s-.32,1.69-.39,2.34a.87.87,0,0,1-.62-.13c0-.22.13-1-.07-1.12a5.4,5.4,0,0,0-1.56-.47l-6.18-1.34a5,5,0,0,0-1.61-.21c-.23,0-.43.78-.5,1a1,1,0,0,1-.62-.13c.21-.73.41-1.66.56-2.34s.29-1.58.5-2.55c.45-2,1.82-3.37,3.84-2.94" transform="translate(0 0)"/><path class="cls-3" d="M253.76,92.15a1.43,1.43,0,0,0-1.62,1.15c0,.19-.14.65,0,.74a3.32,3.32,0,0,0,.95.28l3.41.74.14-.64a1.6,1.6,0,0,0-.32-1.28,2.29,2.29,0,0,0-1.39-.84,5.26,5.26,0,0,0-1.15-.15m2.9,3.19L253,94.56a3.55,3.55,0,0,1-1.05-.32c-.23-.17-.16-.57-.07-1a1.65,1.65,0,0,1,1.85-1.32,5.67,5.67,0,0,1,1.2.14,2.56,2.56,0,0,1,1.53.94,1.78,1.78,0,0,1,.36,1.47Zm4.41,4.41a1,1,0,0,0,.39.08c.07-.66.23-1.59.37-2.26s.4-1.62.6-2.25a1.49,1.49,0,0,0-.39-.09c-.26.86-.47,1-.6,1a5.29,5.29,0,0,1-1.65-.22l-2.71-.58.08-.37c0-.18.31-.29.39-.32l4.22-1.87a3.07,3.07,0,0,0,1.74-2.16c.13-.61.31-1.55.38-2.08a1.59,1.59,0,0,0-.39-.09,4,4,0,0,1-2.27,2.37l-3.81,1.78v-.17a3.25,3.25,0,0,0-2.15-2.72c-1.81-.39-3.24.72-3.69,2.85-.12.52-.21,1-.29,1.48s-.14.75-.21,1.06c-.13.61-.33,1.53-.54,2.26a1.06,1.06,0,0,0,.38.09h0c.17-.58.33-1,.57-1a5.21,5.21,0,0,1,1.65.21l6.19,1.34a5.35,5.35,0,0,1,1.59.49c.08,0,.26.17.14,1.17m.39.32a1,1,0,0,1-.61-.19l0,0v0c.1-.75,0-1,0-1a5.34,5.34,0,0,0-1.51-.46L253.1,97a5.07,5.07,0,0,0-1.56-.22s-.16.09-.38.85l0,.12-.05,0a.33.33,0,0,1-.15,0,1.1,1.1,0,0,1-.6-.19l0,0,0-.07c.21-.74.42-1.7.55-2.33.07-.31.14-.67.21-1.05s.18-1,.3-1.49c.42-2,1.62-3.12,3.2-3.12a3.07,3.07,0,0,1,3.09,2.85l3.49-1.63a3.73,3.73,0,0,0,2.16-2.3v-.06l.06,0a.21.21,0,0,1,.12,0,1.58,1.58,0,0,1,.62.18l0,0v.07c-.07.51-.26,1.53-.4,2.18a3.24,3.24,0,0,1-1.87,2.32L257.64,95a.73.73,0,0,0-.25.15l0,.13,2.47.54a5.05,5.05,0,0,0,1.56.21c.05,0,.22-.18.44-.9V95l.06,0a.33.33,0,0,1,.15,0,1.1,1.1,0,0,1,.6.19l0,0,0,.07c-.2.62-.48,1.62-.62,2.32a22.21,22.21,0,0,0-.39,2.33V100l-.06,0-.15,0" transform="translate(0 0)"/><path class="cls-3" d="M260.61,83.65a.79.79,0,0,0-.35,0c-1,.09-4.48.66-4.48.66-.54.07-.68.1-1.07.17s-.83.69-.92.9a.88.88,0,0,1-.59-.22c.28-.59.67-1.56.91-2.23s.52-1.63.67-2.27a.92.92,0,0,1,.61.21c-.06.21-.32,1,.09,1.12.07,0,.16,0,.3,0L260,81.3a35.67,35.67,0,0,0-2.82-3.24,1,1,0,0,0-.34-.21c-.29-.1-.72.84-.81,1a1,1,0,0,1-.6-.21,18.79,18.79,0,0,0,.75-1.75c.25-.71.32-1.16.51-1.82a.9.9,0,0,1,.6.21c-.05.21-.29,1,0,1.32s3.07,3.83,3.87,4.62a.81.81,0,0,0,.28.2l2.17.76a4.83,4.83,0,0,0,1.57.42c.24,0,.56-.71.65-.92a1,1,0,0,1,.6.21c-.28.6-.68,1.57-.91,2.23s-.53,1.64-.68,2.28a.92.92,0,0,1-.6-.21c.06-.21.25-1,.06-1.12a5.17,5.17,0,0,0-1.47-.66Z" transform="translate(0 0)"/><path class="cls-3" d="M264.41,86.19a.91.91,0,0,0,.37.13c.16-.64.44-1.55.66-2.2s.6-1.55.89-2.15a1.22,1.22,0,0,0-.38-.13c-.37.81-.59.92-.73.92h0a5.59,5.59,0,0,1-1.57-.42l-2.17-.77a.77.77,0,0,1-.32-.22c-.8-.8-3.49-4.12-3.89-4.64s-.11-1.06,0-1.35a.86.86,0,0,0-.37-.13c-.07.22-.12.42-.17.63s-.18.68-.33,1.1a11,11,0,0,1-.56,1.35c0,.11-.1.22-.15.33a1.49,1.49,0,0,0,.37.14c.48-1.06.75-1.06.84-1.06l.09,0a1.08,1.08,0,0,1,.39.24c2.89,3.12,2.86,3.26,2.85,3.34v.06l-.1,0-4.25.64a.94.94,0,0,1-.36,0c-.47-.17-.27-.91-.19-1.2a.86.86,0,0,0-.37-.13c-.16.64-.44,1.56-.66,2.2s-.6,1.55-.88,2.15a1.14,1.14,0,0,0,.38.13,1.62,1.62,0,0,1,1-.89c.4-.08.54-.1,1.07-.18.14,0,3.46-.57,4.49-.66a1,1,0,0,1,.4,0l2.41.85a4.58,4.58,0,0,1,1.36.63c.06,0,.24.2,0,1.17m.43.38a1,1,0,0,1-.66-.27l0,0v0c.2-.73.14-1,.11-1a4.51,4.51,0,0,0-1.29-.59l-.15,0-2.26-.8a.71.71,0,0,0-.3,0c-1,.08-4.44.65-4.47.66-.54.07-.67.1-1.07.17s-.72.58-.83.82l0,0,0,0h-.09a1.08,1.08,0,0,1-.64-.26l0-.06,0-.07a23.87,23.87,0,0,0,.9-2.22,22.3,22.3,0,0,0,.68-2.26l0-.07.07,0h.07a1,1,0,0,1,.65.27l0,0,0,.11c0,.2-.23.83,0,.92l.22,0,4.11-.62c-.27-.38-1.33-1.57-2.72-3.07a.9.9,0,0,0-.29-.18c-.08,0-.32.21-.65,1l0,0h-.05a1,1,0,0,1-.73-.25l0-.06,0-.06.19-.42a11.69,11.69,0,0,0,.55-1.33,10.94,10.94,0,0,0,.31-1.08c.06-.23.12-.46.2-.73l0-.06.07,0h.07a1,1,0,0,1,.65.27l0,0,0,.11c-.06.24-.24.86,0,1.15.38.51,3.09,3.84,3.87,4.62a.56.56,0,0,0,.23.16l2.17.77a5.29,5.29,0,0,0,1.49.41h0s.17,0,.54-.84l0-.05.06,0a1,1,0,0,1,.72.25l.05.06,0,.07c-.28.59-.67,1.54-.91,2.22s-.52,1.63-.67,2.26l0,.07-.07,0h-.07" transform="translate(0 0)"/><path class="cls-3" d="M259.77,68.88a1,1,0,0,1,.57.29c-.09.21-.38.93-.22,1.1a5.09,5.09,0,0,0,1.37.86l2.7,1.39a18.92,18.92,0,0,0-.6-2.28,19.64,19.64,0,0,0-1.17-3.06.93.93,0,0,0-.42-.41c-.32-.16-.68.45-.79.66a.93.93,0,0,1-.56-.25c.31-.54.82-1.34,1.1-1.89a16.87,16.87,0,0,0,.85-1.91.91.91,0,0,1,.52.3,3.45,3.45,0,0,0-.19,2l1.52,4.34c.06.14.12.18.22.17l5.1-.79a3.76,3.76,0,0,0,2.76-1.72c.15,0,.55.26.57.29-.19.45-.64,1.38-1,2a3.12,3.12,0,0,1-2.33,1.7l-4.94.79a.25.25,0,0,0-.14.12.2.2,0,0,0,0,.2L267.12,74a5.25,5.25,0,0,0,1.5.62c.24,0,.65-.62.77-.82a1.07,1.07,0,0,1,.57.29c-.37.56-.89,1.46-1.21,2.09s-.74,1.55-1,2.17a1,1,0,0,1-.57-.29c.09-.21.38-.93.22-1.1a5,5,0,0,0-1.38-.86l-5.62-2.89a5.14,5.14,0,0,0-1.5-.62c-.24,0-.66.63-.77.82a1,1,0,0,1-.57-.3c.36-.55.89-1.45,1.21-2.08s.74-1.55,1-2.17" transform="translate(0 0)"/><path class="cls-3" d="M267.34,78.06a1.15,1.15,0,0,0,.35.18c.25-.62.64-1.49.95-2.09s.81-1.47,1.17-2a1,1,0,0,0-.36-.18c-.51.81-.74.81-.82.81a5,5,0,0,1-1.56-.63l-2.41-1.25a.33.33,0,0,1,0-.33.41.41,0,0,1,.21-.17l5-.8A3,3,0,0,0,272,70c.31-.59.71-1.45.91-1.9a1.51,1.51,0,0,0-.35-.2,4.11,4.11,0,0,1-2.81,1.71l-5.14.79a.32.32,0,0,1-.31-.25l-1.53-4.34A3.47,3.47,0,0,1,263,63.7a1,1,0,0,0-.31-.18,19.16,19.16,0,0,1-.82,1.82c-.19.38-.49.88-.76,1.31l-.3.5a1,1,0,0,0,.34.16c.14-.25.42-.68.75-.68a.32.32,0,0,1,.16,0,1,1,0,0,1,.48.46,15.41,15.41,0,0,1,.94,2.39l.24.68a22,22,0,0,1,.6,2.29l-.18.13-2.69-1.38a4.91,4.91,0,0,1-1.41-.89c-.09-.09-.17-.32.17-1.16a1.15,1.15,0,0,0-.35-.18c-.25.62-.65,1.5-1,2.09s-.81,1.46-1.17,2a1.06,1.06,0,0,0,.35.18c.52-.81.75-.81.82-.81a5.06,5.06,0,0,1,1.57.63L266.1,76a5.14,5.14,0,0,1,1.41.89c.05,0,.21.23-.17,1.16m.42.43a1,1,0,0,1-.66-.36l0,0,0,0c.29-.69.27-.94.24-1a4.89,4.89,0,0,0-1.34-.83l-5.63-2.9a4.91,4.91,0,0,0-1.45-.6c-.07,0-.29.15-.66.76l0,0-.09,0a1,1,0,0,1-.65-.36l0-.06.05-.06c.35-.55.87-1.44,1.2-2.07s.73-1.55,1-2.16l0-.06h.07a1,1,0,0,1,.68.35l0,0,0,0c-.35.82-.24,1-.24,1a5.54,5.54,0,0,0,1.34.83L264,72.29a17.32,17.32,0,0,0-.54-2l-.23-.69a16.07,16.07,0,0,0-.93-2.36.76.76,0,0,0-.38-.35h-.05c-.18,0-.41.31-.57.61l0,.07h-.07a1.14,1.14,0,0,1-.66-.29l-.06-.07,0-.07.36-.59c.26-.44.56-.92.75-1.3a18.68,18.68,0,0,0,.84-1.9l0-.08h.08a1,1,0,0,1,.62.38l0,0v0a3.27,3.27,0,0,0-.2,2L264.56,70c0,.09.06.09.09.09l5.1-.79a3.64,3.64,0,0,0,2.67-1.65l0-.06h.1a1.41,1.41,0,0,1,.64.34l0,.06,0,.06c-.19.43-.63,1.36-1,2a3.22,3.22,0,0,1-2.41,1.76l-4.95.79-.05,0s0,0,0,0l2.34,1.21a4.91,4.91,0,0,0,1.45.6c.07,0,.29-.16.66-.76l0,0h.09a1,1,0,0,1,.65.35l0,.06,0,.06c-.36.55-.88,1.44-1.2,2.08s-.74,1.54-1,2.15l0,.07Z" transform="translate(0 0)"/><path class="cls-3" d="M266.4,57.75c1.46.28,5.59,0,8.94-.13a5.36,5.36,0,0,0-.55-.45l-2.59-1.9a10.39,10.39,0,0,0-1.89-1.16c-.32-.07-1,.71-1.1.88a1.18,1.18,0,0,1-.52-.38c.49-.61.87-1,1.33-1.57s.78-1.23,1.15-1.79a1.1,1.1,0,0,1,.5.41c-.08.11-.72,1-.51,1.36a13.8,13.8,0,0,0,1.61,1.39l4.71,3.47c.8.59,1.23.87,2,1.37a1.23,1.23,0,0,1-.19.38.91.91,0,0,1-.63.19l-11,.4,5,3.7a8.16,8.16,0,0,0,1.45.84c.33.09,1.1-.74,1.18-.85a1.05,1.05,0,0,1,.54.36c-.42.52-.92,1-1.37,1.62s-.67,1.1-1.1,1.74a1.17,1.17,0,0,1-.51-.38c.12-.16.6-1.06.44-1.35A6.51,6.51,0,0,0,272,64.71l-4.9-3.61a3.47,3.47,0,0,0-1.42-.67c-.27,0-.83.52-.95.68s-.51-.23-.53-.35c.33-.4.76-.84,1.22-1.46a14.87,14.87,0,0,0,1-1.55" transform="translate(0 0)"/><path class="cls-3" d="M273,67.25a1.57,1.57,0,0,0,.32.24c.16-.24.29-.46.41-.67s.38-.63.65-1,.58-.71.86-1l.45-.51a1.32,1.32,0,0,0-.35-.23c-.19.22-.87.94-1.25.83a7.16,7.16,0,0,1-1.49-.86l-5-3.69.07-.21,11-.42a.82.82,0,0,0,.54-.13c0-.05.11-.18.15-.26l-.41-.27c-.5-.34-.89-.6-1.51-1.06l-4.7-3.46a14.45,14.45,0,0,1-1.64-1.42c-.23-.37.29-1.18.47-1.44a1.31,1.31,0,0,0-.32-.25l-.36.58c-.23.37-.46.76-.73,1.13a10.74,10.74,0,0,1-.77.91c-.16.18-.33.37-.51.6a2.35,2.35,0,0,0,.32.23c.18-.22.73-.86,1.11-.86h.07a10.46,10.46,0,0,1,1.93,1.17l2.59,1.91a3,3,0,0,1,.57.47l-.09.19-2.68.11c-1.6.07-3.1.13-4.31.13a12.45,12.45,0,0,1-1.89-.1,16.55,16.55,0,0,1-.95,1.49c-.32.44-.63.78-.9,1.09l-.28.31a1.46,1.46,0,0,0,.33.22c.17-.2.69-.68,1-.68a3.46,3.46,0,0,1,1.5.7l4.9,3.6a6.22,6.22,0,0,1,1.32,1.23c.2.34-.24,1.15-.4,1.41m.43.51h-.08a1.24,1.24,0,0,1-.6-.44l0-.06,0-.07c.15-.2.55-1,.43-1.22a6,6,0,0,0-1.24-1.15L267,61.2a3.36,3.36,0,0,0-1.37-.65c-.2,0-.71.45-.85.63l0,0h-.09c-.15,0-.59-.29-.62-.46v-.05l0,0,.34-.38c.27-.3.57-.64.89-1.07a15.58,15.58,0,0,0,1-1.54l0-.07h.08a10.85,10.85,0,0,0,1.93.12c1.21,0,2.71-.07,4.3-.14l2.39-.1-.32-.24-2.59-1.9a10.57,10.57,0,0,0-1.84-1.14h0c-.27,0-.82.6-1,.83l0,0h-.06a1.22,1.22,0,0,1-.62-.45l0-.07.05-.06c.2-.25.4-.46.58-.67a10.26,10.26,0,0,0,.74-.89c.27-.37.5-.75.72-1.12l.42-.67.06-.08.08,0a1.14,1.14,0,0,1,.58.48l0,.06,0,0c-.29.39-.63,1.05-.51,1.23a13.78,13.78,0,0,0,1.58,1.36l4.71,3.46c.61.45,1,.72,1.49,1l.52.35v0c0,.14-.21.46-.21.47-.16.21-.56.23-.73.23l-10.65.4,4.74,3.49a7.44,7.44,0,0,0,1.41.82c.3,0,.93-.64,1.05-.81l0,0h.07a1.28,1.28,0,0,1,.63.41l.05.07-.06.07q-.24.3-.51.6c-.28.32-.58.66-.85,1s-.44.66-.63,1-.29.48-.47.76Z" transform="translate(0 0)"/><path class="cls-3" d="M278.77,50.79c1.81,1.92,4.53,3.53,6.36,1.81,1.45-1.37.32-3.56-1.11-5.07-1.8-1.92-4.58-3.53-6.41-1.81-1.45,1.37-.26,3.56,1.16,5.07m6.79-5.56a5.72,5.72,0,1,1-8.16-.32,5.9,5.9,0,0,1,8.16.32" transform="translate(0 0)"/><path class="cls-3" d="M279.45,45.11a2.5,2.5,0,0,0-1.76.7,2.1,2.1,0,0,0-.46,2.35,7.08,7.08,0,0,0,1.63,2.55c1.48,1.56,3.13,2.5,4.44,2.5a2.46,2.46,0,0,0,1.74-.69,2.14,2.14,0,0,0,.5-2.37,7,7,0,0,0-1.61-2.54,6.85,6.85,0,0,0-4.48-2.5m3.85,8.34h0c-1.37,0-3.09-1-4.61-2.58A7.37,7.37,0,0,1,277,48.23a2.33,2.33,0,0,1,.53-2.59,2.69,2.69,0,0,1,1.92-.77c1.4,0,3.14,1,4.66,2.57a7.25,7.25,0,0,1,1.66,2.64,2.39,2.39,0,0,1-.56,2.61,2.73,2.73,0,0,1-1.91.76m-2-9.9a5.36,5.36,0,0,0-5.5,5.33,5.61,5.61,0,0,0,5.69,5.87,5.61,5.61,0,0,0,4-9.44,5.74,5.74,0,0,0-4.18-1.76M281.48,55a6,6,0,0,1-4.34-1.83,5.93,5.93,0,0,1-1.58-4.29,5.56,5.56,0,0,1,5.73-5.56,6,6,0,0,1,4.35,1.84A5.77,5.77,0,0,1,281.48,55" transform="translate(0 0)"/><path class="cls-3" d="M293.1,45.65c.22.14.74-.08,1.1-.32l.93-.6a2.11,2.11,0,0,0,1-1.33,4.73,4.73,0,0,0-.14-1.87c0-.06,0-.15.14-.21a1.15,1.15,0,0,1,.48-.19,21.74,21.74,0,0,0,.86,3l-4.86,3.18-2,1.33a1,1,0,0,1-.35-.53c.18-.14.8-.61.74-.84a4.87,4.87,0,0,0-.77-1.43l-3.45-5.29a5.47,5.47,0,0,0-1-1.29c-.19-.13-.88.23-1.07.34a.92.92,0,0,1-.35-.53c.59-.31,1.49-.84,2.09-1.22s1.4-1,1.91-1.4a.88.88,0,0,1,.35.53c-.17.14-.78.62-.73.85a5.12,5.12,0,0,0,.77,1.43l3.49,5.35a5.86,5.86,0,0,0,.86,1.07" transform="translate(0 0)"/><path class="cls-3" d="M290.39,48.13a1.19,1.19,0,0,0,.22.33l1.94-1.28,4.78-3.12a18,18,0,0,1-.71-2.45l-.09-.35a1.59,1.59,0,0,0-.32.16c-.06,0-.09.08-.09.09a4.55,4.55,0,0,1,.13,1.91,2.22,2.22,0,0,1-1.05,1.41l-.93.6a2,2,0,0,1-1,.38.5.5,0,0,1-.26-.06,6,6,0,0,1-.89-1.1l-3.49-5.36a5.11,5.11,0,0,1-.79-1.46c0-.13,0-.37.72-.93a1.31,1.31,0,0,0-.21-.33c-.52.42-1.3,1-1.86,1.35s-1.42.87-2,1.17a1,1,0,0,0,.22.34,2.34,2.34,0,0,1,.94-.34.29.29,0,0,1,.19,0,4.88,4.88,0,0,1,1,1.3l3.47,5.31a5.15,5.15,0,0,1,.78,1.46c.05.21-.17.47-.73.92m.24.61-.07,0a1,1,0,0,1-.42-.65V48l0,0c.71-.55.7-.7.7-.72a5.24,5.24,0,0,0-.75-1.38l-3.46-5.3a5.17,5.17,0,0,0-1-1.25h0a2.42,2.42,0,0,0-.89.35l0,0-.05,0a1,1,0,0,1-.43-.65V39l.07,0c.58-.3,1.47-.82,2.07-1.21s1.4-1,1.91-1.39l.06,0,.06,0a1,1,0,0,1,.42.65v0l0,0c-.6.46-.71.68-.69.72a4.6,4.6,0,0,0,.75,1.39l3.49,5.36a5.48,5.48,0,0,0,.83,1,.25.25,0,0,0,.12,0,1.84,1.84,0,0,0,.85-.35l.93-.6a2,2,0,0,0,.95-1.26,4.44,4.44,0,0,0-.13-1.81c0-.11,0-.24.19-.34a1.33,1.33,0,0,1,.52-.21h0l.07,0,.13.53a16.43,16.43,0,0,0,.74,2.49l0,.09-.09.06-4.86,3.18-2,1.32Z" transform="translate(0 0)"/><path class="cls-3" d="M301.87,40.82c.19.18.74,0,1.13-.12l1-.45a2.05,2.05,0,0,0,1.2-1.14,4.21,4.21,0,0,0,.19-1.86c0-.07.07-.14.18-.19a1.21,1.21,0,0,1,.5-.1,23.38,23.38,0,0,0,.34,3.07l-5.33,2.32-2.2,1a.91.91,0,0,1-.25-.58c.19-.1.89-.46.87-.7A4.85,4.85,0,0,0,299,40.5l-2.51-5.81a4.91,4.91,0,0,0-.76-1.42c-.17-.18-.91.07-1.12.14a1,1,0,0,1-.25-.59,23.8,23.8,0,0,0,2.25-.84,23.48,23.48,0,0,0,2.13-1.06.89.89,0,0,1,.26.59c-.2.1-.88.47-.87.71a5,5,0,0,0,.52,1.53l2.54,5.87a5.67,5.67,0,0,0,.67,1.2" transform="translate(0 0)"/><path class="cls-3" d="M298.78,42.81a1.28,1.28,0,0,0,.16.36l2.12-.93L306.3,40a20,20,0,0,1-.28-2.51l0-.38a2.3,2.3,0,0,0-.35.1.22.22,0,0,0-.1.08,4.57,4.57,0,0,1-.19,1.91,2.21,2.21,0,0,1-1.28,1.2l-1,.45a2.58,2.58,0,0,1-.89.21.57.57,0,0,1-.39-.12,5.79,5.79,0,0,1-.69-1.23l-2.54-5.87a5.07,5.07,0,0,1-.53-1.58c0-.08,0-.31.87-.78a1.1,1.1,0,0,0-.16-.37c-.58.33-1.43.75-2.06,1s-1.54.62-2.18.82a1.53,1.53,0,0,0,.16.37,2.91,2.91,0,0,1,.87-.19.41.41,0,0,1,.3.09,5.24,5.24,0,0,1,.78,1.46l2.52,5.81a5,5,0,0,1,.53,1.58c0,.21-.24.44-.87.78m.12.64,0,0a1,1,0,0,1-.31-.71l0-.06,0,0c.8-.41.81-.56.81-.58a4.89,4.89,0,0,0-.51-1.49l-2.51-5.81a5.23,5.23,0,0,0-.74-1.39s0,0-.13,0a3,3,0,0,0-.86.2l-.05,0-.05,0a1,1,0,0,1-.31-.71l0-.07.07,0c.62-.2,1.58-.56,2.24-.84s1.54-.73,2.12-1.05l.06,0,.06,0a1,1,0,0,1,.3.7v.06l-.06,0c-.66.36-.8.56-.8.61a5.09,5.09,0,0,0,.51,1.49l2.55,5.87a4.68,4.68,0,0,0,.63,1.15s.11.05.22.05a2.2,2.2,0,0,0,.79-.19l1-.45a2,2,0,0,0,1.15-1.07,4.43,4.43,0,0,0,.17-1.81c0-.11.08-.23.25-.31a1.81,1.81,0,0,1,.51-.12.15.15,0,0,1,.09,0l.07,0,0,.56a16.55,16.55,0,0,0,.3,2.57l0,.1-.09,0-5.33,2.32-2.2,1Z" transform="translate(0 0)"/><path class="cls-3" d="M279.44,173.75a.61.61,0,0,1-.33.28c-.11-.11-.49-.48-.64-.42a3.48,3.48,0,0,0-.9.65l-1.26,1.09a.06.06,0,0,0,0,0c.29.35.55.69.89,1.08s.62.69.9,1h.05l1.25-1.09a3.29,3.29,0,0,0,.78-.8c.08-.14-.23-.57-.32-.69a.66.66,0,0,1,.33-.29c.26.37.7.94,1,1.31s.79.86,1.12,1.18a.66.66,0,0,1-.33.28c-.1-.11-.49-.48-.64-.42a3.32,3.32,0,0,0-.9.65l-3.28,2.82a3.5,3.5,0,0,0-.78.8c-.08.14.23.57.32.69a.54.54,0,0,1-.33.28c-.26-.36-.69-.93-1-1.3s-.79-.86-1.12-1.18a.7.7,0,0,1,.33-.28c.11.11.49.48.64.42a3.32,3.32,0,0,0,.9-.65l1.47-1.27s0,0,0,0c-.27-.33-.54-.67-.85-1a7.47,7.47,0,0,0-.95-1s-.05,0-.05,0l-1.46,1.25a3.71,3.71,0,0,0-.78.8c-.08.14.23.57.32.69a.59.59,0,0,1-.33.29,14.72,14.72,0,0,0-1-1.3,15.82,15.82,0,0,0-1.12-1.18.63.63,0,0,1,.33-.29c.11.11.49.48.64.42a3.32,3.32,0,0,0,.9-.65l3.28-2.82a3.48,3.48,0,0,0,.78-.79c.08-.14-.23-.58-.32-.7a.6.6,0,0,1,.33-.28c.26.37.69.93,1,1.3s.79.86,1.12,1.18" transform="translate(0 0)"/><path class="cls-3" d="M274.38,179.69c.33.31.76.77,1.06,1.12s.7.86,1,1.23a1.79,1.79,0,0,0,.14-.13c-.35-.49-.33-.67-.28-.76a3.61,3.61,0,0,1,.79-.82l3.29-2.83a3.64,3.64,0,0,1,.94-.68c.14,0,.38.08.71.4a.61.61,0,0,0,.15-.13,14.12,14.12,0,0,1-1.06-1.12c-.3-.35-.7-.86-1-1.23l-.15.13c.35.49.34.66.28.76a3.49,3.49,0,0,1-.8.83l-1.25,1.09a.21.21,0,0,1-.12,0H278l0,0-.24-.27c-.23-.24-.46-.5-.66-.73s-.43-.51-.62-.76l-.27-.32,0-.05a.17.17,0,0,1,.05-.16l1.26-1.09a3.55,3.55,0,0,1,.94-.67h.08c.05,0,.21,0,.63.4a.88.88,0,0,0,.15-.12c-.33-.32-.76-.77-1.06-1.12s-.7-.87-1-1.23l-.15.12c.35.49.34.67.29.76a3.57,3.57,0,0,1-.81.83L273.32,176a3.91,3.91,0,0,1-.94.68c-.14.05-.38-.08-.71-.4a.83.83,0,0,0-.14.13c.32.31.75.77,1.05,1.12s.7.86,1,1.23a.49.49,0,0,0,.15-.13c-.35-.49-.33-.67-.28-.76a3.48,3.48,0,0,1,.8-.82l1.46-1.26a.18.18,0,0,1,.13-.06h0c.07,0,.12,0,1,1.07.31.36.58.7.85,1l0,.05v.06a.23.23,0,0,1-.07.11l-1.47,1.27a3.4,3.4,0,0,1-.94.67l-.07,0c-.06,0-.21,0-.64-.41l-.15.13m1.93,2.62-.05-.06c-.25-.36-.68-.92-1-1.29s-.79-.86-1.11-1.17l0,0,0-.07a.73.73,0,0,1,.43-.37h.05l0,0c.32.31.48.39.53.39a3.58,3.58,0,0,0,.85-.63l1.43-1.23-.79-1c-.47-.54-.76-.87-.86-1l-1.43,1.22a3.64,3.64,0,0,0-.75.76s0,.13.31.57l0,.05v0a.76.76,0,0,1-.43.38h-.07l0,0c-.26-.37-.69-.92-1-1.3s-.79-.86-1.11-1.17l-.05-.05,0-.07a.73.73,0,0,1,.43-.37h.06l0,0c.31.31.47.39.52.39a3.5,3.5,0,0,0,.85-.63l3.28-2.82a3.43,3.43,0,0,0,.75-.76s0-.19-.31-.57l0,0v-.06a.71.71,0,0,1,.43-.37h.08l0,.05a16.17,16.17,0,0,0,1,1.3c.32.36.79.87,1.11,1.17l.06.05,0,.07a.74.74,0,0,1-.44.37h-.05l0,0c-.31-.3-.48-.39-.52-.39a3.71,3.71,0,0,0-.86.63l-1.21,1,.21.26c.19.23.39.48.62.74l.65.73.19.2,1.19-1a3.55,3.55,0,0,0,.76-.75,1.4,1.4,0,0,0-.32-.57l0,0v-.05a.72.72,0,0,1,.44-.38h.07l0,.06a16.17,16.17,0,0,0,1,1.3c.31.36.79.86,1.12,1.17l.05,0,0,.06a.76.76,0,0,1-.44.38h-.05l0,0c-.31-.31-.48-.39-.52-.39a3.59,3.59,0,0,0-.86.63l-3.28,2.82a3.4,3.4,0,0,0-.75.76s0,.12.31.57l0,0v.05a.68.68,0,0,1-.43.37Z" transform="translate(0 0)"/><path class="cls-3" d="M281.8,181.45c-1.22,1.33-2.18,3.27-.92,4.43,1,.92,2.45,0,3.41-1,1.22-1.33,2.18-3.31.91-4.47-1-.92-2.44,0-3.4,1m4.14,4.35a3.92,3.92,0,1,1-.2-5.59,4,4,0,0,1,.2,5.59" transform="translate(0 0)"/><path class="cls-3" d="M284.24,180.14a3.83,3.83,0,0,0-2.35,1.39,6,6,0,0,0-1.37,2.23,1.83,1.83,0,0,0,.45,2,1.25,1.25,0,0,0,.9.36,3.76,3.76,0,0,0,2.33-1.36,6,6,0,0,0,1.36-2.25,1.88,1.88,0,0,0-.44-2,1.27,1.27,0,0,0-.88-.35m-2.37,6.25h0a1.57,1.57,0,0,1-1.07-.42,2.1,2.1,0,0,1-.51-2.28,6.5,6.5,0,0,1,1.42-2.32,4.07,4.07,0,0,1,2.53-1.46,1.51,1.51,0,0,1,1,.4,2.14,2.14,0,0,1,.51,2.29,6.26,6.26,0,0,1-1.41,2.35,4.05,4.05,0,0,1-2.51,1.44m1.25-7a3.91,3.91,0,0,0-2.87,1.23,3.91,3.91,0,0,0,.19,5.41A3.78,3.78,0,0,0,283,187a3.89,3.89,0,0,0,2.86-1.23,3.92,3.92,0,0,0-.19-5.42,3.71,3.71,0,0,0-2.54-.94m-.13,7.83a4,4,0,0,1-2.71-1,4.18,4.18,0,0,1-.21-5.75,4.12,4.12,0,0,1,3.05-1.31,4,4,0,0,1,2.7,1,4,4,0,0,1,1.26,2.78,4,4,0,0,1-4.09,4.28" transform="translate(0 0)"/><path class="cls-3" d="M291.2,184.79a50,50,0,0,0,.22,6.12,2.8,2.8,0,0,0,.3-.38l1.27-1.8a8.25,8.25,0,0,0,.76-1.31c.05-.23-.5-.67-.62-.75a.9.9,0,0,1,.25-.36c.42.33.67.58,1.1.89s.85.51,1.24.75a.8.8,0,0,1-.27.36c-.08-.06-.73-.48-.94-.33a9.25,9.25,0,0,0-.93,1.12l-2.3,3.27c-.39.56-.58.87-.91,1.38-.05,0-.23-.11-.26-.13a.61.61,0,0,1-.14-.42l-.45-7.52-2.44,3.48a5,5,0,0,0-.56,1c-.06.23.53.74.6.79a.72.72,0,0,1-.24.38c-.36-.28-.72-.61-1.13-.91s-.76-.45-1.21-.73a.85.85,0,0,1,.25-.36c.12.09.74.4.94.29a4.53,4.53,0,0,0,.79-.9l2.39-3.41a2.28,2.28,0,0,0,.44-1c0-.18-.36-.55-.48-.64s.16-.35.23-.36c.28.22.59.51,1,.81a10.31,10.31,0,0,0,1.08.65" transform="translate(0 0)"/><path class="cls-3" d="M289.43,185.61l.21.06.45,7.52a.63.63,0,0,0,.09.34l.14.08.16-.25c.22-.35.4-.62.7-1.05l2.3-3.28a9.66,9.66,0,0,1,1-1.15.36.36,0,0,1,.19,0,1.92,1.92,0,0,1,.81.33.65.65,0,0,0,.13-.16l-.37-.22c-.26-.15-.53-.3-.79-.48s-.44-.34-.64-.51l-.38-.33a1.63,1.63,0,0,0-.11.17c.18.14.64.54.58.81a6.5,6.5,0,0,1-.78,1.35l-1.26,1.81a3.15,3.15,0,0,1-.32.4l-.19-.08c0-.59-.08-1.22-.12-1.84a28.52,28.52,0,0,1-.12-4.22,11,11,0,0,1-1-.62c-.3-.22-.55-.43-.76-.61l-.19-.16a1.51,1.51,0,0,0-.1.17c.15.14.48.47.47.69a2.36,2.36,0,0,1-.46,1.06l-2.39,3.41a4.12,4.12,0,0,1-.83.92.29.29,0,0,1-.19.05,2,2,0,0,1-.79-.28,1,1,0,0,0-.12.16l.43.26a5.11,5.11,0,0,1,.7.43c.26.18.49.38.72.57l.33.27A.55.55,0,0,0,287,191c-.17-.16-.65-.59-.57-.87a4.68,4.68,0,0,1,.57-1Zm.94,8.26a.85.85,0,0,1-.33-.15.73.73,0,0,1-.19-.52l-.42-7.18-2.26,3.21a5,5,0,0,0-.53,1c0,.12.39.56.55.67l.05,0V191a.93.93,0,0,1-.29.47l-.07.05-.07-.06c-.14-.1-.28-.22-.42-.34s-.46-.38-.71-.56-.46-.29-.68-.42l-.52-.31-.06,0v-.07c0-.12.23-.46.36-.46h.07a1.85,1.85,0,0,0,.74.29h.06a3.9,3.9,0,0,0,.76-.86l2.4-3.41a2.37,2.37,0,0,0,.42-.92c0-.11-.31-.45-.44-.54a.14.14,0,0,1-.05-.16c0-.09.18-.4.33-.42h.06l0,0,.26.22c.22.18.45.38.75.59a11.09,11.09,0,0,0,1.06.65l.08,0,0,.08a27.74,27.74,0,0,0,.12,4.26c0,.51.07,1,.1,1.53l.08-.13,1.28-1.81a8.45,8.45,0,0,0,.74-1.26c0-.12-.33-.47-.57-.63l-.05,0v-.07a.9.9,0,0,1,.32-.46l.07,0,.06.05.47.39a7.08,7.08,0,0,0,.62.49,8.93,8.93,0,0,0,.77.48l.47.27.07.05,0,.09a.75.75,0,0,1-.33.42l-.07,0-.05,0a2.1,2.1,0,0,0-.75-.33h-.06a8.72,8.72,0,0,0-.89,1.09l-2.3,3.27c-.3.43-.48.7-.7,1.05l-.24.37Z" transform="translate(0 0)"/><path class="cls-3" d="M296.13,192.15c-.81,1.61-1.23,3.74.3,4.51,1.22.63,2.37-.61,3-1.88.81-1.61,1.21-3.77-.32-4.55-1.21-.62-2.35.65-3,1.92m5.15,3.09a3.91,3.91,0,1,1-1.67-5.34,4,4,0,0,1,1.67,5.34" transform="translate(0 0)"/><path class="cls-3" d="M298.48,190.19c-1.13,0-2,1.54-2.24,2-.79,1.54-1.2,3.61.25,4.35a1.33,1.33,0,0,0,.6.15c1.15,0,2-1.52,2.25-2,.86-1.68,1.1-3.68-.27-4.38a1.26,1.26,0,0,0-.59-.15M297.09,197h0a1.53,1.53,0,0,1-.71-.18c-1.6-.81-1.19-3-.35-4.67.68-1.35,1.6-2.15,2.45-2.15a1.46,1.46,0,0,1,.7.18c1.62.82,1.22,3.05.37,4.7-.67,1.33-1.59,2.12-2.46,2.12m.83-7.32a4,4,0,0,0-3.51,2.11,3.84,3.84,0,0,0-.2,3,3.77,3.77,0,0,0,1.83,2.2,3.63,3.63,0,0,0,1.64.38,3.86,3.86,0,0,0,1.87-7.27,3.59,3.59,0,0,0-1.63-.38m-.24,7.89a3.85,3.85,0,0,1-1.75-.41,4.15,4.15,0,0,1-1.73-5.48,4.19,4.19,0,0,1,3.72-2.24,3.78,3.78,0,0,1,1.74.41,4.1,4.1,0,0,1-2,7.72" transform="translate(0 0)"/><path class="cls-3" d="M303.77,199.45c0,.18.34.38.63.48l.71.25a1.49,1.49,0,0,0,1.14,0,3.22,3.22,0,0,0,1-.85s.1,0,.18,0a.64.64,0,0,1,.3.18,14.78,14.78,0,0,0-1.26,1.7l-3.75-1.32-1.56-.54a.65.65,0,0,1,.15-.41c.14,0,.65.18.76.06a3.29,3.29,0,0,0,.46-1l1.43-4.08a3.4,3.4,0,0,0,.28-1.08c0-.16-.48-.38-.62-.44a.59.59,0,0,1,.14-.41c.41.19,1.07.46,1.53.62s1.12.36,1.56.47a.71.71,0,0,1-.15.41c-.14,0-.66-.17-.76,0a3.21,3.21,0,0,0-.46,1L304,198.55a3.79,3.79,0,0,0-.22.9" transform="translate(0 0)"/><path class="cls-3" d="M301.25,199.25l1.46.51,3.66,1.28a13.76,13.76,0,0,1,1-1.37l.13-.17-.18-.08h0a3,3,0,0,1-1,.86,1.58,1.58,0,0,1-1.23,0l-.71-.25c-.12,0-.69-.26-.71-.58a3.13,3.13,0,0,1,.23-1l1.45-4.14a3.14,3.14,0,0,1,.48-1.05.35.35,0,0,1,.28-.09,2.52,2.52,0,0,1,.53.08.76.76,0,0,0,.06-.18c-.44-.11-1-.29-1.47-.44s-1-.4-1.45-.59a1.34,1.34,0,0,0-.07.18c.55.26.63.41.63.52a3.42,3.42,0,0,1-.28,1.11L302.6,198a3.74,3.74,0,0,1-.48,1.05.34.34,0,0,1-.27.09,2.9,2.9,0,0,1-.54-.09,1.06,1.06,0,0,0-.06.19m5.24,2.09-.1,0L302.64,200l-1.55-.55H301v-.07a.69.69,0,0,1,.19-.53l0,0h.06a2.71,2.71,0,0,0,.55.1h.09a3.23,3.23,0,0,0,.43-1l1.44-4.09a3.53,3.53,0,0,0,.27-1s-.05-.12-.55-.34l0,0,0-.06a.72.72,0,0,1,.19-.54l.06,0,.06,0c.4.19,1.05.46,1.52.62s1.11.36,1.54.46l.08,0V193a.7.7,0,0,1-.19.53l0,0-.06,0a2.37,2.37,0,0,0-.54-.09H306a3.52,3.52,0,0,0-.42,1l-1.46,4.14a2.94,2.94,0,0,0-.21.86c0,.08.23.25.54.36l.72.25a1.27,1.27,0,0,0,1.05,0,3,3,0,0,0,.92-.82.19.19,0,0,1,.17-.07l.13,0s.32.12.38.25l0,.07-.25.3a11.69,11.69,0,0,0-1.05,1.44Z" transform="translate(0 0)"/><path class="cls-3" d="M312.8,194.72a.61.61,0,0,1-.09.43c-.15,0-.68-.08-.76.06a3.63,3.63,0,0,0-.32,1.06l-.42,2.11a5,5,0,0,0-.13,2,1.78,1.78,0,0,0,1.49,1.46c.9.18,2-.44,2.41-2.46l.4-2a5.87,5.87,0,0,0,.13-1.44c0-.24-.65-.41-.79-.45a.64.64,0,0,1,.09-.43,11.9,11.9,0,0,0,1.39.37c.5.11.87.12,1.34.19a.66.66,0,0,1-.09.43c-.15,0-.78-.12-.92.1a5.22,5.22,0,0,0-.45,1.36l-.45,2.24c-.48,2.35-2.17,3.09-3.79,2.76a3,3,0,0,1-2.18-1.5,4.12,4.12,0,0,1-.1-2.69l.49-2.44a3.41,3.41,0,0,0,.14-1.1c0-.17-.54-.32-.68-.36a.6.6,0,0,1,.09-.43c.42.14,1.12.32,1.59.42a15.67,15.67,0,0,0,1.61.24" transform="translate(0 0)"/><path class="cls-3" d="M309.61,194.4c.58.17.68.32.7.43a3.57,3.57,0,0,1-.14,1.14l-.5,2.45a4,4,0,0,0,.1,2.61,2.92,2.92,0,0,0,2.09,1.44,4.26,4.26,0,0,0,.7.07c1.52,0,2.59-1,2.95-2.75l.45-2.23a5.77,5.77,0,0,1,.47-1.41c.08-.13.26-.19.55-.19a4.1,4.1,0,0,1,.41,0,1.06,1.06,0,0,0,0-.19l-.41-.05a7.54,7.54,0,0,1-.84-.13,10.94,10.94,0,0,1-1.31-.35.79.79,0,0,0,0,.2c.51.15.76.32.8.52a6,6,0,0,1-.13,1.48l-.4,2c-.33,1.62-1.17,2.59-2.23,2.59l-.32,0a1.88,1.88,0,0,1-1.58-1.55,5,5,0,0,1,.12-2.08l.43-2.11a3.43,3.43,0,0,1,.33-1.11c.06-.09.2-.14.46-.14l.34,0a1.06,1.06,0,0,0,0-.19,14.61,14.61,0,0,1-1.52-.24c-.45-.09-1.08-.25-1.52-.38a1.29,1.29,0,0,0,0,.19m2.95,8.38a3.91,3.91,0,0,1-.75-.08,3.09,3.09,0,0,1-2.25-1.56,4.15,4.15,0,0,1-.12-2.77l.5-2.45a3.61,3.61,0,0,0,.13-1s-.15-.13-.6-.26l-.05,0,0-.05a.69.69,0,0,1,.11-.56l.05,0,.07,0c.42.14,1.11.31,1.59.41a14.54,14.54,0,0,0,1.59.24h.07l0,.07a.76.76,0,0,1-.11.56l-.05,0h-.05a2.79,2.79,0,0,0-.39,0c-.22,0-.27,0-.27,0a3.57,3.57,0,0,0-.29,1l-.43,2.1a4.9,4.9,0,0,0-.12,2,1.65,1.65,0,0,0,1.4,1.36,1.24,1.24,0,0,0,.27,0c.94,0,1.69-.89,2-2.4l.39-1.95a5.26,5.26,0,0,0,.13-1.4s-.05-.17-.7-.35l-.05,0,0,0a.72.72,0,0,1,.11-.56l0-.05.16.05c.47.14.81.24,1.29.34.31.06.56.09.83.12l.51.07h.07l0,.06a.72.72,0,0,1-.12.56l0,0h-.1a3.88,3.88,0,0,0-.41,0c-.28,0-.34.06-.35.08a5.47,5.47,0,0,0-.43,1.32l-.46,2.24a3.25,3.25,0,0,1-3.18,2.94" transform="translate(0 0)"/><path class="cls-3" d="M319.87,202.84c.06.17.44.27.73.29l.76,0a1.41,1.41,0,0,0,1.1-.32,3.18,3.18,0,0,0,.69-1.07c0-.05.08-.07.16-.06a.78.78,0,0,1,.34.09,16.22,16.22,0,0,0-.75,2l-4-.25-1.64-.09a.61.61,0,0,1,0-.44c.15,0,.68,0,.75-.15a3.36,3.36,0,0,0,.16-1.1l.27-4.32a3.21,3.21,0,0,0,0-1.11c-.05-.15-.57-.24-.72-.26a.64.64,0,0,1,0-.43c.44.07,1.15.16,1.64.19s1.17,0,1.62,0a.64.64,0,0,1,0,.43c-.15,0-.68,0-.74.17a3.24,3.24,0,0,0-.17,1.09l-.27,4.37a3.37,3.37,0,0,0,0,.93" transform="translate(0 0)"/><path class="cls-3" d="M317.39,203.33l1.55.09,3.87.25a12.84,12.84,0,0,1,.61-1.61l.08-.19-.19,0h-.06a3.2,3.2,0,0,1-.71,1.1,1.49,1.49,0,0,1-1,.36h-.16l-.75,0c-.13,0-.74-.06-.84-.37a3.43,3.43,0,0,1,0-1l.27-4.37a3.23,3.23,0,0,1,.18-1.14c0-.06.09-.22.78-.24a1.15,1.15,0,0,0,0-.19c-.47,0-1.1,0-1.54,0s-1.1-.11-1.56-.18a1.34,1.34,0,0,0,0,.2c.67.1.72.26.74.33a3.47,3.47,0,0,1,0,1.15l-.27,4.32a3.37,3.37,0,0,1-.17,1.14c-.07.15-.29.21-.78.22a1.34,1.34,0,0,0,0,.2m5.61.59h-.11l-4-.25-1.64-.09h-.07l0-.05a.76.76,0,0,1,0-.57l0,0h.05c.54,0,.63-.08.65-.1a3.64,3.64,0,0,0,.14-1.05l.28-4.32a3.49,3.49,0,0,0,0-1.06s-.17-.12-.63-.18h-.05l0,0a.7.7,0,0,1,0-.57l0-.06h.08c.43.08,1.15.16,1.62.19s1.16,0,1.62,0h.07l0,.06a.69.69,0,0,1,0,.56l0,.05H321c-.46,0-.62.07-.64.1a3.29,3.29,0,0,0-.15,1.05l-.27,4.37a2.81,2.81,0,0,0,0,.89.93.93,0,0,0,.62.2l.76.05a1.37,1.37,0,0,0,1-.29,3.1,3.1,0,0,0,.66-1s.06-.13.24-.13h0a.77.77,0,0,1,.42.14l.05,0-.15.36a13.75,13.75,0,0,0-.62,1.67Z" transform="translate(0 0)"/><path class="cls-3" d="M327.27,195.84a.63.63,0,0,1,0,.43c-.15,0-.67.11-.72.26a3.91,3.91,0,0,0,0,1.11l.16,2.15a4.9,4.9,0,0,0,.44,2,1.74,1.74,0,0,0,1.83,1c.92-.07,1.8-1,1.64-3l-.15-2a5.83,5.83,0,0,0-.26-1.42c-.11-.21-.74-.21-.88-.21a.61.61,0,0,1,0-.44,13.72,13.72,0,0,0,1.44,0c.51,0,.87-.12,1.34-.18a.63.63,0,0,1,0,.43c-.15,0-.79.09-.86.35a6.07,6.07,0,0,0-.06,1.43l.18,2.28c.17,2.39-1.24,3.57-2.89,3.69a3,3,0,0,1-2.5-.85,4.14,4.14,0,0,1-.84-2.56l-.18-2.49a3.51,3.51,0,0,0-.18-1.09c-.07-.15-.6-.16-.75-.16a.64.64,0,0,1,0-.43c.45,0,1.16,0,1.65,0s1.17-.13,1.61-.2" transform="translate(0 0)"/><path class="cls-3" d="M324.12,196.39c.6,0,.74.13.78.23a3.3,3.3,0,0,1,.18,1.13l.19,2.49a4,4,0,0,0,.81,2.48,2.9,2.9,0,0,0,2.4.82,3,3,0,0,0,2-.95,3.44,3.44,0,0,0,.72-2.62l-.16-2.27a5.21,5.21,0,0,1,.06-1.48c.07-.26.5-.36.88-.42a.65.65,0,0,0,0-.19c-.14,0-.27,0-.4.06s-.53.08-.85.1a11.62,11.62,0,0,1-1.35,0,1.34,1.34,0,0,0,0,.2c.53,0,.82.1.91.28a5.81,5.81,0,0,1,.28,1.46l.15,2a3.83,3.83,0,0,1-.44,2.33,1.69,1.69,0,0,1-1.31.82h-.21a1.86,1.86,0,0,1-1.74-1.07,5,5,0,0,1-.45-2l-.16-2.15a3.47,3.47,0,0,1,0-1.15c0-.11.14-.24.74-.34a1.37,1.37,0,0,0,0-.19c-.44.07-1.08.15-1.53.19s-1.09.05-1.56,0a1.11,1.11,0,0,0,0,.19m4.06,7.4a3,3,0,0,1-2.28-.91,4.24,4.24,0,0,1-.87-2.62l-.18-2.49a3.33,3.33,0,0,0-.17-1.05s-.09-.09-.64-.09H324l0,0a.73.73,0,0,1-.05-.56l0-.06H324c.46,0,1.17,0,1.64,0s1.16-.12,1.6-.2h.07l0,0a.74.74,0,0,1,.05.57l0,0h-.06c-.56.08-.62.18-.62.18a3.48,3.48,0,0,0,0,1.05l.16,2.16a4.69,4.69,0,0,0,.43,1.94,1.61,1.61,0,0,0,1.52.94H329a1.47,1.47,0,0,0,1.13-.71,3.58,3.58,0,0,0,.4-2.19l-.14-2a5.25,5.25,0,0,0-.26-1.37s-.1-.15-.77-.16h-.06l0,0a.71.71,0,0,1,0-.57l0-.06h.15c.54,0,.92,0,1.35,0a6.68,6.68,0,0,0,.83-.11l.51-.08h.06l.05.05a.7.7,0,0,1,0,.57l0,.05h-.1c-.61.09-.71.21-.72.26a5.12,5.12,0,0,0-.06,1.39l.17,2.28a3.66,3.66,0,0,1-.78,2.78,3.26,3.26,0,0,1-2.21,1h-.32" transform="translate(0 0)"/><path class="cls-3" d="M335,201.25a1.93,1.93,0,0,1,.3.72,3,3,0,0,1-1.11,2.77.4.4,0,0,1-.29-.24,1.82,1.82,0,0,0,.59-1.37c-.07-.38-.61-.25-.74-1a.87.87,0,0,1,.72-1,.92.92,0,0,1,.53.1" transform="translate(0 0)"/><path class="cls-3" d="M334,204.52a.48.48,0,0,0,.11.09,2.92,2.92,0,0,0,1-2.62,1.74,1.74,0,0,0-.26-.65.78.78,0,0,0-.43-.07.71.71,0,0,0-.49.29.9.9,0,0,0-.14.55.78.78,0,0,0,.42.61.58.58,0,0,1,.32.39,1.85,1.85,0,0,1-.55,1.41m.17.34h0a.51.51,0,0,1-.39-.34l0-.06.05-.05a1.71,1.71,0,0,0,.55-1.26c0-.1-.09-.15-.22-.23a1,1,0,0,1-.52-.77,1.07,1.07,0,0,1,.17-.72,1,1,0,0,1,.65-.4,1,1,0,0,1,.6.11l0,0a1.78,1.78,0,0,1,.32.78,3.12,3.12,0,0,1-1.15,2.88Z" transform="translate(0 0)"/><path class="cls-3" d="M340.49,193.29a.64.64,0,0,1,.14.41c-.14.06-.63.27-.63.44a3.66,3.66,0,0,0,.26,1.08l.54,1.58s0,0,0,0l1.33-.41,1.26-.47s0,0,0-.05l-.54-1.57a3.37,3.37,0,0,0-.45-1c-.1-.13-.62,0-.76,0a.64.64,0,0,1-.14-.41c.44-.1,1.13-.3,1.58-.45s1.1-.41,1.52-.6a.63.63,0,0,1,.13.41c-.13.06-.62.28-.62.44a3.27,3.27,0,0,0,.26,1.07l1.39,4.1a3.21,3.21,0,0,0,.45,1c.1.13.62,0,.76,0a.66.66,0,0,1,.14.41c-.44.1-1.12.3-1.58.46a15.82,15.82,0,0,0-1.51.6.63.63,0,0,1-.14-.42c.14-.06.62-.27.62-.43a3.31,3.31,0,0,0-.26-1.08l-.63-1.84,0,0-1.27.4a6,6,0,0,0-1.32.5v.05l.62,1.82a3.49,3.49,0,0,0,.44,1c.1.13.62,0,.77,0a.59.59,0,0,1,.13.42,15.22,15.22,0,0,0-1.58.45,15.82,15.82,0,0,0-1.51.6.6.6,0,0,1-.14-.41c.13-.06.62-.28.63-.44a3.62,3.62,0,0,0-.27-1.08l-1.39-4.1a3.62,3.62,0,0,0-.44-1c-.11-.12-.63,0-.77,0a.64.64,0,0,1-.14-.41c.44-.1,1.13-.3,1.59-.45s1.1-.41,1.51-.6" transform="translate(0 0)"/><path class="cls-3" d="M339.88,201.42c0,.05,0,.13.07.19.41-.19,1-.42,1.43-.57s1.06-.32,1.5-.43a.76.76,0,0,0-.06-.18,2.58,2.58,0,0,1-.52.08.37.37,0,0,1-.29-.1,3.32,3.32,0,0,1-.46-1l-.63-1.84a.2.2,0,0,1,0-.15c.06-.07.09-.11,1.38-.55l1.28-.41.06,0,0,0a.25.25,0,0,1,.09.11l.62,1.83a3.31,3.31,0,0,1,.27,1.12c0,.07,0,.23-.63.52a1.89,1.89,0,0,0,.06.18c.42-.19,1-.42,1.44-.57s1-.32,1.5-.43A1.27,1.27,0,0,0,347,199a3,3,0,0,1-.52.07.4.4,0,0,1-.3-.09,3.9,3.9,0,0,1-.46-1.06l-1.39-4.1a3.31,3.31,0,0,1-.27-1.12c0-.1.08-.26.63-.51a.67.67,0,0,0-.07-.18c-.41.18-1,.42-1.43.56s-1.06.33-1.5.43a1.06,1.06,0,0,0,.06.19c.45-.11.71-.11.82,0a3.81,3.81,0,0,1,.46,1.05l.54,1.57a.18.18,0,0,1,0,.14l0,0-.38.14-.94.34-.93.3c-.13,0-.27.07-.4.12h-.05a.2.2,0,0,1-.13-.1l-.54-1.59a3.51,3.51,0,0,1-.27-1.12s0-.24.63-.51a1.27,1.27,0,0,0-.06-.18c-.42.18-1,.41-1.44.56s-1.06.33-1.5.43a.62.62,0,0,0,.07.19c.45-.11.7-.11.81,0a3.81,3.81,0,0,1,.46,1.05l1.39,4.1a3.65,3.65,0,0,1,.28,1.12c0,.11-.08.27-.64.51m0,.47-.05,0a.69.69,0,0,1-.19-.54l0-.05.05,0c.43-.19.55-.31.56-.34a3.32,3.32,0,0,0-.26-1l-1.4-4.11a3.09,3.09,0,0,0-.42-1s-.1-.06-.64.08h-.06l0,0a.71.71,0,0,1-.19-.54l0-.07.07,0c.44-.1,1.12-.29,1.58-.44s1.1-.41,1.5-.6l.07,0,.05,0a.69.69,0,0,1,.19.53l0,.06-.05,0c-.36.15-.55.29-.56.34a3.11,3.11,0,0,0,.26,1l.51,1.51.31-.09.93-.29c.29-.1.62-.23.92-.35l.25-.09-.52-1.5a3.48,3.48,0,0,0-.42-1s-.09-.06-.65.08h0l0,0a.72.72,0,0,1-.19-.54l0-.07.07,0c.43-.09,1.13-.29,1.58-.44s1.09-.42,1.49-.6l.07,0,.06,0a.7.7,0,0,1,.18.53l0,.06-.05,0c-.51.22-.56.34-.56.34a4.26,4.26,0,0,0,.26,1l1.4,4.1a3.11,3.11,0,0,0,.42,1,.21.21,0,0,0,.11,0,2.66,2.66,0,0,0,.53-.09h.06l0,0a.7.7,0,0,1,.19.53l0,.08h-.07c-.43.1-1.12.3-1.57.45s-1.1.41-1.51.59l-.07,0-.05-.05a.73.73,0,0,1-.18-.54l0-.05.05,0a1.42,1.42,0,0,0,.56-.34,3.65,3.65,0,0,0-.26-1l-.61-1.79-1.18.37a12.5,12.5,0,0,0-1.22.45l.6,1.78a3.27,3.27,0,0,0,.42,1,.21.21,0,0,0,.11,0,2.72,2.72,0,0,0,.54-.09l.05,0,.05,0a.69.69,0,0,1,.18.54l0,.07H343c-.43.1-1.11.3-1.57.45s-1.1.41-1.5.59Z" transform="translate(0 0)"/><path class="cls-3" d="M349,194.73s0,0,0,0a9.5,9.5,0,0,0,.87-.4,7.89,7.89,0,0,0,.81-.44s0-.06,0-.06l-1.89-1.63Zm-.83-4.12c0-.17.07-.53.18-.59a.45.45,0,0,1,.26,0l4.79,4.26c.3.26.47.44.67.62a1,1,0,0,0,1,0,.61.61,0,0,1,.22.38c-.42.18-1,.38-1.42.61s-1.15.66-1.51.87c-.08,0-.25-.37-.2-.39a1.25,1.25,0,0,0,.52-.5.31.31,0,0,0,0-.23c-.05-.09-1.43-1.28-1.43-1.28s-.06,0-.09,0c-.4.17-.74.35-1,.48l-1.07.55a.18.18,0,0,0,0,.09s0,.72.08,1.07a4.79,4.79,0,0,0,.13.83c.14.27.89,0,1,0a.61.61,0,0,1,.21.38,9.21,9.21,0,0,0-1.15.48,9,9,0,0,0-1.08.65.65.65,0,0,1-.21-.37,1.52,1.52,0,0,0,.55-.7,7,7,0,0,0,0-.92Z" transform="translate(0 0)"/><path class="cls-3" d="M349,192.51l.14,2.09c.22-.09.54-.24.75-.35l.71-.37Zm.07,2.37a.16.16,0,0,1-.14-.1l0,0-.16-2.5.19-.1,1.92,1.65,0,0c0,.14,0,.2-.07.21a7.82,7.82,0,0,1-.81.43c-.22.12-.65.32-.88.41Zm-.85,3.65a.89.89,0,0,0,.08.17l.05,0a10.17,10.17,0,0,1,1-.57,9.68,9.68,0,0,1,1.05-.44h0a.51.51,0,0,0-.09-.16,2.24,2.24,0,0,1-.67.14.4.4,0,0,1-.39-.19,6.1,6.1,0,0,1-.14-.87c0-.35-.08-1-.08-1.07a.22.22,0,0,1,.11-.2c.36-.2.64-.34,1.07-.55l.19-.1a8.63,8.63,0,0,1,.8-.39h.08a.19.19,0,0,1,.1,0l0,0a14.09,14.09,0,0,1,1.45,1.32.32.32,0,0,1,0,.33,1.2,1.2,0,0,1-.49.51,1.51,1.51,0,0,0,.09.18l.27-.16c.36-.23.82-.49,1.17-.67a7.72,7.72,0,0,1,.92-.4l.42-.18-.11-.16a1.51,1.51,0,0,1-.53.11.84.84,0,0,1-.57-.21c-.09-.07-.18-.16-.28-.25l-.39-.36-4.77-4.24a.42.42,0,0,0-.15,0,1.12,1.12,0,0,0-.11.48l.42,6.25a5.74,5.74,0,0,1,0,.93,1.5,1.5,0,0,1-.53.74m.09.45-.06,0a.72.72,0,0,1-.29-.47v-.08l.08,0a1.44,1.44,0,0,0,.48-.6,6.4,6.4,0,0,0,0-.88l-.42-6.27c0-.12.05-.6.25-.71a.49.49,0,0,1,.37,0l4.81,4.28c.16.13.28.25.4.35a3.31,3.31,0,0,0,.27.26.64.64,0,0,0,.41.14,1.32,1.32,0,0,0,.5-.12l.06,0,.06,0c.11.07.31.37.26.51v.05l-.06,0-.5.22c-.31.12-.63.25-.91.39s-.79.44-1.14.66l-.36.21,0,0h0c-.14-.05-.29-.36-.3-.46a.16.16,0,0,1,.08-.15,1.1,1.1,0,0,0,.45-.43c0-.07,0-.1,0-.13s-.74-.68-1.37-1.22a8.37,8.37,0,0,0-.78.37l-.19.1-1.07.55s.06.7.1,1a5.14,5.14,0,0,0,.12.79s.08,0,.17,0a2,2,0,0,0,.64-.15l.05,0,.05,0a.68.68,0,0,1,.28.51v.07l-.18.06a10,10,0,0,0-1,.43,7.82,7.82,0,0,0-.93.56Z" transform="translate(0 0)"/><path class="cls-3" d="M354.19,186.66a.71.71,0,0,1,.26.35c-.12.1-.56.43-.39.67a4,4,0,0,0,.73.56l2.78,1.95-1.3-4.47c-.07-.23-.07-.49,0-.56s.1,0,.22.07l4.55,3-1.18-3.61a3.67,3.67,0,0,0-.36-.89c-.12-.18-.76.21-.89.29a.68.68,0,0,1-.25-.36,12.57,12.57,0,0,0,1.16-.73c.41-.29.63-.52,1-.81a.65.65,0,0,1,.25.35c-.12.1-.53.41-.54.64a3.31,3.31,0,0,0,.19,1.07l1.76,5.74c.08.3.08.67,0,.76a.32.32,0,0,1-.27,0l-4.38-2.88,1.36,4.43c0,.14.15.69,0,.76a.31.31,0,0,1-.28,0l-5.15-3.66c-.3-.22-.67-.42-.89-.56s-.73.06-.86.14-.25-.27-.25-.35c.39-.22,1-.61,1.39-.89s.93-.71,1.27-1" transform="translate(0 0)"/><path class="cls-3" d="M358.74,192.88c.06,0,.11,0,.14,0a1.88,1.88,0,0,0-.09-.62l-1.36-4.44.18-.13,4.38,2.88s.1,0,.14,0a1,1,0,0,0,0-.63l-1.76-5.73a3.52,3.52,0,0,1-.19-1.11c0-.23.25-.46.52-.68a.76.76,0,0,0-.11-.16c-.12.09-.22.18-.32.27a7.49,7.49,0,0,1-.62.49c-.38.27-.64.42-1,.63l-.1.05a.74.74,0,0,0,.11.16,2,2,0,0,1,.79-.31.24.24,0,0,1,.2.1,2.85,2.85,0,0,1,.32.76l1.23,3.77-.18.13-4.55-3-.1-.06a.77.77,0,0,0,0,.42l1.3,4.47-.18.13-2.94-2.06a2.58,2.58,0,0,1-.6-.48c-.21-.29.17-.63.35-.78a.83.83,0,0,0-.11-.15c-.35.29-.84.68-1.21.94a14.72,14.72,0,0,1-1.32.85.64.64,0,0,0,.11.16,1.39,1.39,0,0,1,.62-.17.58.58,0,0,1,.3.07l.16.09a8.13,8.13,0,0,1,.74.47Zm.11.27a.65.65,0,0,1-.21-.05h0l-5.15-3.67c-.23-.17-.5-.32-.71-.45l-.17-.09c-.17-.11-.54,0-.74.14l0,0h-.05a.65.65,0,0,1-.34-.47v-.07l.06,0a14.39,14.39,0,0,0,1.38-.88,16,16,0,0,0,1.27-1l.05,0,.07,0a.75.75,0,0,1,.33.46v.06l-.08.06c-.35.29-.38.42-.34.48a2.64,2.64,0,0,0,.55.42l.16.11,2.5,1.76-1.21-4.14c-.07-.25-.09-.58.09-.7s.19,0,.36.08l4.26,2.81-1.13-3.45a2.88,2.88,0,0,0-.28-.69,1.63,1.63,0,0,0-.74.32l0,0-.05,0a.7.7,0,0,1-.33-.46v-.08l.24-.14c.36-.21.6-.35,1-.61s.42-.33.61-.48a4.49,4.49,0,0,1,.39-.33l.05,0,.07,0a.75.75,0,0,1,.33.46v.06l-.09.07c-.3.24-.45.41-.45.52a3.37,3.37,0,0,0,.18,1l1.76,5.73c.08.28.13.75-.07.89a.42.42,0,0,1-.38,0l-4.13-2.71L359,192.2c0,.12.2.75,0,.89a.32.32,0,0,1-.18.06" transform="translate(0 0)"/><path class="cls-3" d="M365.06,183.86s0,0,.05,0c.18-.14.53-.45.72-.63s.41-.39.65-.65c0,0,0-.07,0-.07l-2.28-1Zm-2-3.71c-.06-.16-.09-.53,0-.62a.39.39,0,0,1,.23-.11l5.82,2.72.81.4a1,1,0,0,0,1-.25c.12,0,.32.23.32.3-.36.29-.82.64-1.19,1s-.92,1-1.2,1.26c-.09,0-.35-.28-.3-.32a1.2,1.2,0,0,0,.35-.62.25.25,0,0,0-.06-.21c-.08-.08-1.74-.83-1.74-.83a.12.12,0,0,0-.09,0c-.33.28-.6.55-.81.75s-.58.54-.86.83a.09.09,0,0,0,0,.1s.24.68.38,1a4.25,4.25,0,0,0,.36.76c.21.22.85-.26.92-.32s.3.25.31.31a9.75,9.75,0,0,0-1,.78,9.49,9.49,0,0,0-.85.93c-.07,0-.25-.16-.31-.29a1.55,1.55,0,0,0,.33-.83,5.53,5.53,0,0,0-.27-.87Z" transform="translate(0 0)"/><path class="cls-3" d="M364.4,181.73l.73,2c.19-.16.46-.39.62-.55s.37-.35.57-.56Zm.7,2.27A.22.22,0,0,1,365,184l0,0-.87-2.35.16-.15,2.31,1,0,0c.08.13,0,.2,0,.22-.23.26-.39.4-.65.65s-.53.48-.73.63l0,0Zm.26,3.74a.86.86,0,0,0,.13.14l0,0a8.69,8.69,0,0,1,1.65-1.56h0a.58.58,0,0,0-.13-.14,1.66,1.66,0,0,1-.78.36.32.32,0,0,1-.24-.1,4.26,4.26,0,0,1-.39-.8c-.14-.32-.37-1-.38-1a.2.2,0,0,1,0-.22c.29-.29.52-.51.87-.84l.17-.16c.18-.17.4-.38.65-.59a.22.22,0,0,1,.16,0h.05a16.71,16.71,0,0,1,1.77.85.39.39,0,0,1,.1.31,1.35,1.35,0,0,1-.33.64.58.58,0,0,0,.13.14c.07-.08.16-.16.24-.26.29-.31.63-.68.9-.94s.52-.44.78-.66l.35-.28-.15-.12a1.27,1.27,0,0,1-.74.3.81.81,0,0,1-.34-.08l-.35-.17-.46-.23-5.79-2.71-.13.08a1.08,1.08,0,0,0,0,.49l2.17,5.88a4.86,4.86,0,0,1,.27.89,1.46,1.46,0,0,1-.29.86m.21.41h-.06a.76.76,0,0,1-.41-.37l0-.08.06-.06a1.38,1.38,0,0,0,.29-.71,6.11,6.11,0,0,0-.26-.86L363,180.19c-.05-.15-.12-.6,0-.75a.53.53,0,0,1,.3-.13h0L369.2,182a5.21,5.21,0,0,1,.47.23l.34.16a.49.49,0,0,0,.24,0,1.08,1.08,0,0,0,.64-.28l.05,0,.07,0c.13,0,.4.27.39.42v0l0,0L371,183c-.27.21-.54.42-.77.64s-.61.63-.89.93l-.31.33,0,0h-.05c-.14,0-.37-.27-.4-.37a.11.11,0,0,1,0-.15,1.09,1.09,0,0,0,.31-.55.16.16,0,0,0,0-.13c-.08,0-.91-.44-1.66-.78-.25.2-.45.4-.63.57l-.18.17c-.33.31-.57.53-.84.81,0,.09.25.69.37,1a4.59,4.59,0,0,0,.34.72.1.1,0,0,0,.07,0,1.55,1.55,0,0,0,.68-.35l0,0H367a.72.72,0,0,1,.42.42v.07l-.16.11c-.28.22-.52.4-.85.7a8.88,8.88,0,0,0-.76.82Z" transform="translate(0 0)"/><path class="cls-3" d="M368.26,174.14a.59.59,0,0,1,.33.29c-.09.12-.41.55-.34.69a3.75,3.75,0,0,0,.76.81l3.23,2.89a3.48,3.48,0,0,0,.88.67c.15.06.54-.3.65-.4a.63.63,0,0,1,.33.29c-.34.3-.84.81-1.17,1.17s-.75.89-1,1.26a.66.66,0,0,1-.32-.3c.09-.11.41-.54.33-.68a3.51,3.51,0,0,0-.76-.81l-3.22-2.89a3.26,3.26,0,0,0-.89-.67c-.15-.06-.54.3-.65.4a.57.57,0,0,1-.32-.29c.33-.3.84-.8,1.16-1.16s.76-.9,1-1.27" transform="translate(0 0)"/><path class="cls-3" d="M371.73,181.53a.89.89,0,0,0,.14.13c.27-.36.68-.86,1-1.2s.77-.8,1.1-1.11l-.14-.13c-.34.32-.57.44-.72.38a3.54,3.54,0,0,1-.92-.69L368.93,176a3.51,3.51,0,0,1-.78-.85c0-.09-.06-.27.3-.75a.93.93,0,0,0-.15-.13c-.27.36-.67.86-1,1.19s-.77.81-1.1,1.11a.61.61,0,0,0,.15.13c.33-.31.57-.43.71-.37a3.33,3.33,0,0,1,.93.69l3.22,2.89a3.8,3.8,0,0,1,.79.84c.05.1.06.27-.3.76m.24.41-.08,0a.69.69,0,0,1-.42-.37l0-.06,0-.05c.28-.37.33-.53.32-.56a3.34,3.34,0,0,0-.72-.76l-3.23-2.9a3.64,3.64,0,0,0-.85-.65,1.37,1.37,0,0,0-.53.38l0,0h-.05a.72.72,0,0,1-.43-.37l0-.08.06,0c.32-.3.82-.8,1.15-1.17s.75-.88,1-1.25l0-.06.07,0a.7.7,0,0,1,.43.38v.05l0,0c-.34.44-.32.56-.32.56a3.66,3.66,0,0,0,.73.77l3.23,2.89a3.44,3.44,0,0,0,.84.65s.22-.08.53-.38l0,0h.06a.7.7,0,0,1,.42.37l0,.07-.05.05c-.33.3-.83.8-1.16,1.16s-.75.9-1,1.26Z" transform="translate(0 0)"/><path class="cls-3" d="M370.93,170.85a.69.69,0,0,1,.34.27c-.09.13-.38.57-.3.71a3.37,3.37,0,0,0,.81.76l3.38,2.71a3.24,3.24,0,0,0,.92.62c.16.05.53-.33.63-.44a.61.61,0,0,1,.34.27c-.32.32-.79.86-1.1,1.23s-.7.94-.95,1.32a.64.64,0,0,1-.34-.27c.09-.13.38-.57.3-.71a3.58,3.58,0,0,0-.81-.76l-3.38-2.71a3.75,3.75,0,0,0-.92-.62c-.16,0-.53.34-.63.44a.65.65,0,0,1-.34-.27c.32-.32.79-.85,1.1-1.23s.7-.94.95-1.32" transform="translate(0 0)"/><path class="cls-3" d="M374.81,178a.49.49,0,0,0,.15.13c.25-.39.62-.9.9-1.25s.72-.85,1-1.17a1.83,1.83,0,0,0-.16-.13c-.32.34-.55.47-.7.42a3.32,3.32,0,0,1-1-.64l-3.38-2.7a3.43,3.43,0,0,1-.84-.8c-.06-.09-.07-.26.25-.77A.47.47,0,0,0,371,171c-.25.38-.62.89-.9,1.24a14.36,14.36,0,0,1-1,1.17.61.61,0,0,0,.15.13c.33-.35.55-.47.7-.42a3.55,3.55,0,0,1,.95.64l3.38,2.71a3.43,3.43,0,0,1,.84.79c.06.1.07.27-.25.77m.25.4H375a.7.7,0,0,1-.44-.35l0-.06,0,0c.31-.47.29-.58.28-.59a3.58,3.58,0,0,0-.76-.72L370.7,174a3.31,3.31,0,0,0-.89-.6s-.12,0-.5.41l0,0h0a.67.67,0,0,1-.45-.35l0-.07.05-.05a16.09,16.09,0,0,0,1.08-1.23c.3-.36.7-.93.95-1.3l0-.06h.07a.71.71,0,0,1,.44.36l0,0,0,.05c-.32.46-.29.58-.29.58a3.43,3.43,0,0,0,.77.73l3.38,2.71a3.89,3.89,0,0,0,.89.6,1.6,1.6,0,0,0,.5-.41l0-.05h0a.74.74,0,0,1,.45.35l0,.07-.06.06c-.31.31-.77.84-1.08,1.22s-.7.93-.95,1.31Z" transform="translate(0 0)"/><path class="cls-5" d="M292.89,154.54l-4.77,4.25-.78-.88.66-3c.21-.94.51-2.12.5-2.13h0l-1.63,1.47-1.54,1.37-.82-.93,4.77-4.25.78.88-.66,3c-.14.71-.47,2.05-.47,2.06h0l1.58-1.41,1.55-1.39Z" transform="translate(0 0)"/><path class="cls-5" d="M292.53,161.33a2.08,2.08,0,1,0-.12-2.84,1.93,1.93,0,0,0,.12,2.84m3.54-4.07a3.32,3.32,0,1,1-4.63.38,3.24,3.24,0,0,1,4.63-.38" transform="translate(0 0)"/><path class="cls-5" d="M299.72,163.39a.79.79,0,0,0,1.13-.14.77.77,0,0,0-.31-1.09l-.92-.6-.81,1.22Zm-1.38,2.4a.9.9,0,0,0,1.32-.2.92.92,0,0,0-.34-1.3l-1.05-.7-1,1.49Zm3-4.39a1.71,1.71,0,0,1,.64,2.42,1.37,1.37,0,0,1-1.42.57h0a1.69,1.69,0,0,1,.15,2,1.9,1.9,0,0,1-2.88.39l-2.18-1.45,3.53-5.33Z" transform="translate(0 0)"/></g><polygon class="cls-5" points="305.58 169.68 305.05 170.74 301.18 168.79 304.05 163.08 305.16 163.64 302.82 168.29 305.58 169.68"/><polygon class="cls-5" points="311.19 171.73 310.8 172.85 306.57 171.37 308.69 165.33 312.87 166.8 312.47 167.92 309.47 166.86 309.02 168.15 311.39 168.98 311.02 170.03 308.65 169.2 308.14 170.66 311.19 171.73"/><g class="cls-2"><path class="cls-5" d="M316.56,169.62a1.24,1.24,0,0,0-1-1.2c-.56-.12-1,.08-1.06.45s.55.83,1.27,1.26,1.74,1.2,1.51,2.32-1.35,1.71-2.75,1.42a2.56,2.56,0,0,1-2.11-2.41l1.25-.07a1.43,1.43,0,0,0,1.15,1.38c.66.14,1.06-.12,1.15-.54.14-.64-.66-1-1.46-1.46s-1.5-1-1.27-2.09a2.07,2.07,0,0,1,2.62-1.33,2.4,2.4,0,0,1,2,2.19Z" transform="translate(0 0)"/><path class="cls-5" d="M322.09,170.24a1.23,1.23,0,0,0-1.17-1.05c-.57-.05-1,.21-1,.59s.65.74,1.41,1.08,1.9.95,1.81,2.09-1.11,1.88-2.53,1.77a2.52,2.52,0,0,1-2.41-2.1l1.22-.24a1.41,1.41,0,0,0,1.32,1.22c.67.05,1-.27,1.08-.69.05-.65-.79-.87-1.65-1.25s-1.62-.79-1.53-1.9a2.08,2.08,0,0,1,2.42-1.67,2.37,2.37,0,0,1,2.23,1.9Z" transform="translate(0 0)"/></g><polygon class="cls-5" points="329.1 173.3 329.18 174.48 324.71 174.76 324.31 168.38 328.73 168.11 328.8 169.29 325.63 169.49 325.71 170.85 328.22 170.69 328.29 171.81 325.78 171.96 325.87 173.5 329.1 173.3"/><g class="cls-2"><path class="cls-5" d="M336.4,171.86a2.07,2.07,0,1,0-2.44-1.45,1.92,1.92,0,0,0,2.44,1.45m-1.48-5.18a3.32,3.32,0,1,1-2.21,4.08,3.23,3.23,0,0,1,2.21-4.08" transform="translate(0 0)"/><path class="cls-5" d="M343.36,169.32a.91.91,0,0,0,.54-1.23.93.93,0,0,0-1.29-.4l-1.14.53.74,1.62Zm-1.3-2.45a.75.75,0,1,0-.61-1.34l-1,.46.61,1.34Zm-.83-2.42a1.72,1.72,0,0,1,2.39.73,1.38,1.38,0,0,1-.26,1.51h0a1.7,1.7,0,0,1,1.75.9,1.91,1.91,0,0,1-1.19,2.65l-2.4,1.09-2.65-5.81Z" transform="translate(0 0)"/></g><polygon class="cls-5" points="350.49 165.19 351.11 166.2 347.42 168.47 344.07 163.03 345.13 162.38 347.85 166.81 350.49 165.19"/><polygon class="cls-5" points="352.28 165.31 348.48 160.17 349.48 159.44 353.28 164.58 352.28 165.31"/><g class="cls-2"><path class="cls-5" d="M358,159.73a2.65,2.65,0,0,1-.88,1.86,3.32,3.32,0,1,1-1.2-5.59l-.71,1.1a2,2,0,0,0-1.69.48,1.91,1.91,0,0,0-.07,2.84,2,2,0,0,0,2.9.2,1.86,1.86,0,0,0,.63-2l-.18-.21-1.3,1.16-.68-.77,2.07-1.87,2.36,2.62-.8.72c-.36-.4-.43-.5-.44-.5Z" transform="translate(0 0)"/></g><polygon class="cls-5" points="362.61 153.93 363.5 154.72 360.55 158.08 355.74 153.86 358.66 150.54 359.55 151.32 357.45 153.71 358.47 154.61 360.13 152.72 360.97 153.46 359.31 155.35 360.47 156.37 362.61 153.93"/><g class="cls-2"><path class="cls-3" d="M352.45,32.68c-.28.87-.59,1.71-1,2.69a.2.2,0,0,1-.21,0s-.44-.17-.41-.31c.26-.93.17-2.76-1-3.27a1.35,1.35,0,0,0-1.91.8c-.42,1,.48,2.44,1.14,3.49s1.67,2.36.85,4.24-2.93,2.19-4.63,1.45a14.28,14.28,0,0,1-2.75-1.68c.15-.77.63-2.39.79-2.85a1,1,0,0,1,.55,0c.11,0,.17.11.14.21-.23.91,0,3,1.41,3.61a1.51,1.51,0,0,0,2.16-.88c.49-1.11-.63-2.69-1.17-3.56-.79-1.26-1.61-2.45-.89-4.08s2.93-2.12,4.52-1.43a13.18,13.18,0,0,1,2.4,1.57" transform="translate(0 0)"/><path class="cls-3" d="M342.67,40.06a15,15,0,0,0,2.67,1.62,3.9,3.9,0,0,0,1.59.33,3,3,0,0,0,2.89-1.72c.73-1.67,0-2.78-.68-3.85l-.17-.27c-.68-1.08-1.6-2.57-1.15-3.61a1.45,1.45,0,0,1,1.37-1,1.76,1.76,0,0,1,.7.15c1.27.55,1.33,2.47,1.09,3.39a.85.85,0,0,0,.32.19c.05,0,.06,0,.09,0,.35-.94.65-1.74.92-2.55l-.47-.35A9.26,9.26,0,0,0,350,31.22a3.78,3.78,0,0,0-1.47-.29,3.09,3.09,0,0,0-2.91,1.65c-.66,1.51.05,2.63.79,3.81l.1.17.17.26c.59.93,1.47,2.34,1,3.41a1.6,1.6,0,0,1-1.51,1.12,2.05,2.05,0,0,1-.81-.18c-1.44-.62-1.72-2.77-1.47-3.75,0,0,0,0-.08-.07a1,1,0,0,0-.18,0l-.22,0c-.17.49-.6,1.95-.76,2.71m4.26,2.19a4.26,4.26,0,0,1-1.69-.35,15,15,0,0,1-2.77-1.7l-.06,0v-.08c.15-.76.64-2.4.8-2.86l0,0,0,0a.89.89,0,0,1,.38-.07,1,1,0,0,1,.28,0,.29.29,0,0,1,.21.35c-.23.91,0,2.9,1.33,3.47a1.8,1.8,0,0,0,.72.17,1.4,1.4,0,0,0,1.29-1c.42-1-.43-2.31-1-3.2l-.16-.26-.1-.16c-.74-1.19-1.52-2.41-.81-4a3.33,3.33,0,0,1,3.13-1.8,4,4,0,0,1,1.56.31A9.19,9.19,0,0,1,352,32.19l.54.4.07,0,0,.08c-.29.86-.6,1.7-1,2.7v0l0,0a.36.36,0,0,1-.32,0c-.25-.11-.51-.25-.48-.45.24-.85.2-2.64-.95-3.14a1.48,1.48,0,0,0-.6-.13,1.24,1.24,0,0,0-1.15.87c-.4.92.52,2.4,1.13,3.38l.17.27c.69,1.07,1.47,2.29.69,4.08a3.24,3.24,0,0,1-3.1,1.86" transform="translate(0 0)"/><path class="cls-3" d="M364,39.56c-.07.18-.84,2.31-1,2.48s-.34.09-.51,0-.14-.09-.16-.19a3.12,3.12,0,0,0-1.4-3.77c-2-1.31-4,.08-5.31,2.09-1.48,2.23-2.09,5.11,0,6.51a2.79,2.79,0,0,0,2.14.53A5.57,5.57,0,0,0,360,46.07a.91.91,0,0,1,.38.49c-.1.16-1.75,1.86-2,1.8A9.52,9.52,0,0,1,354.82,47a5.66,5.66,0,0,1-1.7-7.91,5.87,5.87,0,0,1,8.13-1.73,18.88,18.88,0,0,1,2.73,2.2" transform="translate(0 0)"/><path class="cls-3" d="M358.07,36.52a5.81,5.81,0,0,0-4.85,2.64,5.53,5.53,0,0,0,1.67,7.74,9.48,9.48,0,0,0,3.42,1.33h.05a10.7,10.7,0,0,0,1.87-1.7.82.82,0,0,0-.24-.32,5.53,5.53,0,0,1-2.15,1.09,3,3,0,0,1-2.23-.55c-2.3-1.52-1.47-4.55-.06-6.68,1.11-1.69,2.5-2.65,3.81-2.65A3,3,0,0,1,361,38a3.23,3.23,0,0,1,1.46,3.87s0,.05.09.08a.46.46,0,0,0,.26.07h.1c.06-.1.47-1.21.69-1.8.09-.26.17-.47.21-.58a18.5,18.5,0,0,0-2.66-2.13,5.57,5.57,0,0,0-3.11-.94m.27,12h-.09a9.94,9.94,0,0,1-3.49-1.37A5.77,5.77,0,0,1,353,39a6.06,6.06,0,0,1,5.05-2.75,5.87,5.87,0,0,1,3.24,1,19.51,19.51,0,0,1,2.76,2.22l.05.05,0,.08-.24.64c-.35,1-.64,1.74-.72,1.86s-.47.14-.68,0a.39.39,0,0,1-.2-.26v-.06a3,3,0,0,0-1.35-3.63,2.72,2.72,0,0,0-1.54-.49c-1.22,0-2.54.92-3.61,2.54-1.35,2-2.16,4.93,0,6.35a2.75,2.75,0,0,0,2.06.52,5.52,5.52,0,0,0,2.1-1.1l.07-.06.08,0a1,1,0,0,1,.42.56l0,0,0,.05c-.06.1-1.71,1.85-2.1,1.85Z" transform="translate(0 0)"/><path class="cls-3" d="M370.86,45.23c0,.12-.3.43-.45.45-.17-.14-.77-.62-1-.52a5.22,5.22,0,0,0-1.22,1.06L366.5,48a.07.07,0,0,0,0,.06c.46.47.88.93,1.42,1.46s1,.93,1.45,1.33a.17.17,0,0,0,.08,0l1.67-1.75a5.13,5.13,0,0,0,1-1.26c.1-.22-.41-.8-.56-1a.86.86,0,0,1,.45-.45c.42.5,1.13,1.27,1.64,1.76s1.27,1.16,1.78,1.56a.93.93,0,0,1-.44.46c-.17-.14-.77-.63-1-.53a5.12,5.12,0,0,0-1.22,1.07l-4.41,4.54a5.18,5.18,0,0,0-1,1.25c-.09.22.41.81.56,1a.94.94,0,0,1-.44.46c-.43-.51-1.14-1.27-1.65-1.77s-1.27-1.15-1.78-1.56a.93.93,0,0,1,.44-.46c.17.14.77.63,1,.53a4.9,4.9,0,0,0,1.22-1.07l2-2a.27.27,0,0,0,0-.08c-.43-.45-.88-.91-1.37-1.39-1.34-1.3-1.46-1.37-1.52-1.38s-.06,0-.06,0l-2,2a5.65,5.65,0,0,0-1,1.25c-.09.22.41.81.56,1a.88.88,0,0,1-.44.45c-.43-.5-1.14-1.27-1.65-1.76s-1.26-1.16-1.78-1.56a.93.93,0,0,1,.44-.46c.17.14.77.63,1,.53a5.16,5.16,0,0,0,1.22-1.07l4.41-4.54a5.18,5.18,0,0,0,1-1.25c.1-.22-.41-.81-.56-1a1,1,0,0,1,.45-.46c.42.51,1.13,1.27,1.64,1.76s1.27,1.16,1.79,1.57" transform="translate(0 0)"/><path class="cls-3" d="M364.19,54.55c.53.41,1.25,1.05,1.73,1.51s1.16,1.2,1.59,1.7a1.19,1.19,0,0,0,.27-.28c-.58-.68-.58-.93-.53-1a4.92,4.92,0,0,1,1-1.27l4.42-4.55a5.38,5.38,0,0,1,1.26-1.1l.13,0A2.1,2.1,0,0,1,375,50a1.07,1.07,0,0,0,.28-.28c-.52-.41-1.23-1-1.73-1.52S372.42,47,372,46.51a1,1,0,0,0-.28.29c.58.68.58.92.53,1a5.2,5.2,0,0,1-1.05,1.29l-1.68,1.75a.25.25,0,0,1-.16.06h0l-.43-.39c-.36-.32-.74-.66-1.06-1s-.67-.67-1-1l-.46-.47,0,0a.18.18,0,0,1,0-.18l1.71-1.75a5,5,0,0,1,1.26-1.09.2.2,0,0,1,.11,0c.08,0,.3,0,.94.53a1.07,1.07,0,0,0,.28-.28c-.52-.42-1.23-1.05-1.72-1.52s-1.16-1.19-1.6-1.7a1.2,1.2,0,0,0-.27.28c.65.76.56,1,.53,1.05a5.1,5.1,0,0,1-1,1.27l-4.42,4.55a5.1,5.1,0,0,1-1.26,1.09.24.24,0,0,1-.12,0,2.13,2.13,0,0,1-.94-.52,1,1,0,0,0-.27.28c.51.41,1.24,1.05,1.72,1.52s1.15,1.18,1.59,1.69a.9.9,0,0,0,.27-.28c-.65-.76-.56-1-.53-1a5,5,0,0,1,1.05-1.28l2-2a.19.19,0,0,1,.15-.08c.11,0,.17,0,1.6,1.41.5.49.93.94,1.38,1.39l0,0v.06a.33.33,0,0,1-.06.15l-2,2a5.32,5.32,0,0,1-1.26,1.09l-.12,0c-.07,0-.29,0-.94-.52a1,1,0,0,0-.28.29M367.43,58l-.05-.06c-.41-.49-1.11-1.25-1.63-1.75A23.5,23.5,0,0,0,364,54.68l-.05,0v-.07a1,1,0,0,1,.54-.56h0l.05,0c.58.48.79.52.84.52a4.87,4.87,0,0,0,1.19-1l2-2c-.42-.43-.84-.86-1.32-1.32-.3-.31-1.2-1.18-1.42-1.33l-1.95,2a5.37,5.37,0,0,0-1,1.22s.05.29.54.85l0,0v0a1,1,0,0,1-.54.56l-.07,0,0-.06c-.43-.51-1.13-1.27-1.64-1.75a23.1,23.1,0,0,0-1.78-1.56l-.05-.05v-.07a1,1,0,0,1,.54-.55h.05l.05,0a2.08,2.08,0,0,0,.84.51,4.83,4.83,0,0,0,1.2-1l4.42-4.55a5,5,0,0,0,1-1.22s0-.28-.54-.84l0,0v0a1,1,0,0,1,.54-.55l.07,0,0,0c.43.51,1.13,1.27,1.63,1.76s1.26,1.15,1.78,1.56l.06,0,0,.07a1,1,0,0,1-.53.55h-.06l0,0c-.58-.48-.8-.52-.85-.52a5.06,5.06,0,0,0-1.2,1L366.63,48l.4.41c.3.31.61.64,1,1s.7.65,1.06,1l.33.3L371,49a5,5,0,0,0,1-1.21s.06-.17-.54-.85l0,0V46.8a1,1,0,0,1,.53-.55l.07,0,.05.06c.42.5,1.12,1.25,1.63,1.75s1.27,1.16,1.78,1.56l.05,0v.07a1,1,0,0,1-.54.56h0l-.05,0a2,2,0,0,0-.83-.51,4.62,4.62,0,0,0-1.2,1l-4.42,4.55a5.05,5.05,0,0,0-1,1.21s-.06.17.54.85l0,.05v0a1,1,0,0,1-.54.55Z" transform="translate(0 0)"/><path class="cls-3" d="M375.07,57.47c-2.14,1.53-4.1,4-2.63,6.06,1.16,1.62,3.48.78,5.17-.43,2.14-1.54,4.1-4.09,2.63-6.12-1.15-1.61-3.48-.73-5.17.49m4.61,7.45a5.72,5.72,0,1,1,1.4-8,5.87,5.87,0,0,1-1.4,8" transform="translate(0 0)"/><path class="cls-3" d="M378.47,56.23a6.21,6.21,0,0,0-3.33,1.33,8.88,8.88,0,0,0-2.63,2.8,2.75,2.75,0,0,0,0,3.1,2,2,0,0,0,1.73.85A6.09,6.09,0,0,0,377.54,63a8.67,8.67,0,0,0,2.63-2.83,2.8,2.8,0,0,0,0-3.12,2,2,0,0,0-1.68-.82m-4.21,8.32h0a2.22,2.22,0,0,1-1.92-1,3,3,0,0,1,0-3.34,9,9,0,0,1,2.7-2.88A6.62,6.62,0,0,1,378.47,56a2.18,2.18,0,0,1,1.87.92,3,3,0,0,1,0,3.37,8.85,8.85,0,0,1-2.7,2.92,6.38,6.38,0,0,1-3.42,1.35m2.11-9.87a5.63,5.63,0,0,0-3.29,1,5.55,5.55,0,0,0,3.26,10.14,5.56,5.56,0,0,0,3.27-1,5.7,5.7,0,0,0,2.28-3.75A5.57,5.57,0,0,0,381,57a5.71,5.71,0,0,0-4.61-2.27m0,11.43a6,6,0,0,1-4.81-2.37,6,6,0,0,1,1.41-8.2,5.79,5.79,0,0,1,3.43-1.09,6,6,0,0,1,4.81,2.36,5.85,5.85,0,0,1,.95,4.31,6,6,0,0,1-2.37,3.9,5.83,5.83,0,0,1-3.42,1.09" transform="translate(0 0)"/><path class="cls-3" d="M382.63,69.11c-2.35,1.17-4.69,3.31-3.58,5.56.89,1.79,3.32,1.34,5.18.41,2.36-1.17,4.7-3.36,3.59-5.61-.88-1.78-3.32-1.28-5.19-.36M386,77.22a5.72,5.72,0,1,1,2.69-7.71A5.9,5.9,0,0,1,386,77.22" transform="translate(0 0)"/><path class="cls-3" d="M385.67,68.4a7.07,7.07,0,0,0-3,.82c-2.3,1.14-4.6,3.23-3.53,5.39a2.14,2.14,0,0,0,2.1,1.16,7,7,0,0,0,2.92-.79c2.49-1.24,4.55-3.41,3.54-5.45a2.08,2.08,0,0,0-2.05-1.13M381.26,76h0A2.37,2.37,0,0,1,379,74.72c-1.15-2.31,1.24-4.53,3.63-5.71a7.29,7.29,0,0,1,3.09-.85,2.34,2.34,0,0,1,2.26,1.26c1.16,2.35-1.24,4.58-3.65,5.77a7.12,7.12,0,0,1-3,.82m2.17-9.51a5.55,5.55,0,0,0-2.48.58,5.57,5.57,0,0,0,2.52,10.61,5.62,5.62,0,0,0,2.46-.57,5.57,5.57,0,0,0-2.5-10.62m0,11.43a5.81,5.81,0,0,1-2.62-11.07,5.85,5.85,0,0,1,2.58-.6A5.81,5.81,0,0,1,386,77.33a5.77,5.77,0,0,1-2.56.6" transform="translate(0 0)"/><path class="cls-3" d="M383.59,84.3c-.19.18-.11.74,0,1.15l.35,1a2.13,2.13,0,0,0,1,1.3,4.43,4.43,0,0,0,1.84.34c.07,0,.13.08.17.19a1.15,1.15,0,0,1,.07.51,23.21,23.21,0,0,0-3.09.09l-1.87-5.5c-.38-1.14-.7-2.06-.78-2.27A.9.9,0,0,1,382,81c.09.2.39.92.63.93a5.28,5.28,0,0,0,1.57-.39l6-2a5.11,5.11,0,0,0,1.49-.65c.18-.15,0-.9-.05-1.12a.94.94,0,0,1,.6-.2c.15.64.43,1.65.66,2.32s.6,1.61.87,2.21a1,1,0,0,1-.6.2c-.09-.2-.4-.91-.64-.92a5,5,0,0,0-1.58.39l-6.05,2a5.87,5.87,0,0,0-1.25.56" transform="translate(0 0)"/><path class="cls-3" d="M381.49,81.19c.11.31.4,1.14.75,2.2l1.51,4.45.33,1a12.2,12.2,0,0,1,1.74-.09H387a1.67,1.67,0,0,0-.07-.35c0-.07-.05-.11-.06-.11a4.5,4.5,0,0,1-1.89-.35,2.19,2.19,0,0,1-1.1-1.37l-.36-1.05c0-.1-.32-1,0-1.27a5.38,5.38,0,0,1,1.29-.59l6.06-2a5.57,5.57,0,0,1,1.55-.4h.07c.14,0,.35.12.71.92a1,1,0,0,0,.37-.12c-.27-.6-.62-1.5-.84-2.13s-.48-1.6-.63-2.24a1.13,1.13,0,0,0-.38.12c.21.87.11,1.08,0,1.17a4.69,4.69,0,0,1-1.52.67l-6,2a5.79,5.79,0,0,1-1.56.4h-.06c-.21,0-.41-.28-.7-.93a1.21,1.21,0,0,0-.38.12m2.43,7.87-.39-1.15L382,83.46l-.78-2.27,0-.06,0,0a1.11,1.11,0,0,1,.63-.25H382l.06,0,0,.09c.33.77.47.82.5.82h.05a5.67,5.67,0,0,0,1.48-.38l6-2a4.76,4.76,0,0,0,1.45-.62s.13-.12-.09-1v0l0,0a1.08,1.08,0,0,1,.65-.25h.08l.07,0,0,.08c.14.63.42,1.62.65,2.3s.6,1.6.87,2.2l0,.06-.05.06a1.06,1.06,0,0,1-.63.26h-.1l-.05,0,0,0c-.36-.83-.53-.85-.53-.85h-.06a5.58,5.58,0,0,0-1.48.38l-6.05,2.06a5,5,0,0,0-1.21.54c-.12.1-.09.56.06,1l.35,1.06a2,2,0,0,0,1,1.23,4.42,4.42,0,0,0,1.8.32c.12,0,.22.11.28.27a1.23,1.23,0,0,1,.05.61l0,.06h-1.34a12.68,12.68,0,0,0-1.8.1Z" transform="translate(0 0)"/><path class="cls-3" d="M393.83,94.47c.74-.15.88-.26.83-.52a4.06,4.06,0,0,0-.62-1.12.4.4,0,0,1,.28-.27s.18-.06.21,0c1.19,1.74,2.4,3.41,2.42,3.46v0c0,.1-.2.23-.28.26a6.48,6.48,0,0,0-1.62.16l-6.5,1.25a5,5,0,0,0-1.56.44c-.21.13-.13.9-.1,1.12a1,1,0,0,1-.62.12c-.06-.66-.19-1.59-.33-2.29a21.56,21.56,0,0,0-.55-2.24.89.89,0,0,1,.62-.12c.06.21.28,1,.51,1a5.11,5.11,0,0,0,1.62-.18Z" transform="translate(0 0)"/><path class="cls-3" d="M386.38,99.28h0a1.17,1.17,0,0,0,.38-.07c-.09-.89.05-1.09.17-1.16a5.28,5.28,0,0,1,1.6-.46l6.5-1.25a8.47,8.47,0,0,1,1.46-.17h.16a.66.66,0,0,0,.19-.14h0s-.3-.41-.61-.86c-.48-.67-1.12-1.58-1.77-2.52l-.08,0h0a.35.35,0,0,0-.17.14,4.24,4.24,0,0,1,.61,1.11c.07.4-.23.53-.93.66l-5.69,1.1a8.17,8.17,0,0,1-1.37.2h0a1.27,1.27,0,0,1-.28,0c-.07,0-.31,0-.58-1h0a1.28,1.28,0,0,0-.37.07c.19.64.41,1.52.53,2.17s.25,1.52.32,2.2m0,.24-.16,0-.07,0V99.4c-.06-.69-.19-1.62-.32-2.28s-.36-1.59-.55-2.23l0-.07.06,0a1.11,1.11,0,0,1,.59-.17.38.38,0,0,1,.16,0l.06,0v.06c.2.72.37.9.41.91a5.51,5.51,0,0,0,1.58-.17l5.69-1.1c.77-.15.75-.25.73-.38a3.92,3.92,0,0,0-.59-1.06l-.05,0,0-.06a.55.55,0,0,1,.37-.36,1.13,1.13,0,0,1,.18,0,.19.19,0,0,1,.16.08c.65,1,1.31,1.87,1.78,2.54a7.88,7.88,0,0,1,.65,1v0c0,.23-.35.4-.36.4h-.22a7.77,7.77,0,0,0-1.42.16l-6.5,1.26a5.45,5.45,0,0,0-1.52.42s-.12.25,0,1v.06l0,0a1,1,0,0,1-.59.17" transform="translate(0 0)"/><path class="cls-3" d="M394.27,104.92c1.43-.15,3.13-.67,3-1.74-.07-.65-1.08-1.05-2.62-.89s-2.76.73-2.63,1.92a1.32,1.32,0,0,0,.41.8,10.39,10.39,0,0,0,1.83-.09m-2.75,0a2.8,2.8,0,0,1-.58-1.32c-.18-1.63.57-3.16,3.05-3.43a3.74,3.74,0,0,1,4,3.13c.2,1.88-1.65,3.64-3.87,3.87a6.92,6.92,0,0,1-4.81-1.44,7.33,7.33,0,0,1-2.76-4,.41.41,0,0,1,.43-.16,6.4,6.4,0,0,0,4.51,3.38" transform="translate(0 0)"/><path class="cls-3" d="M392.49,104.89a10.85,10.85,0,0,0,1.77-.08c1.4-.16,3-.67,2.9-1.62-.05-.5-.77-.82-1.83-.82-.21,0-.43,0-.66,0-.81.09-2.67.44-2.52,1.78a1.26,1.26,0,0,0,.34.7m.35.25-.4,0h0l0,0a1.46,1.46,0,0,1-.46-.88c-.12-1.1.88-1.84,2.73-2l.69,0c1.21,0,2,.39,2.07,1,.12,1.13-1.53,1.71-3.12,1.88a12.42,12.42,0,0,1-1.44.1m-6.13-3.43a7.25,7.25,0,0,0,2.7,3.91,7.11,7.11,0,0,0,4.12,1.45c.2,0,.41,0,.61,0,2.19-.24,3.95-2,3.76-3.75a3.63,3.63,0,0,0-3.54-3l-.35,0a3.34,3.34,0,0,0-2.44,1.16,2.89,2.89,0,0,0-.51,2.13,2.8,2.8,0,0,0,.55,1.27l-.11.19a6.48,6.48,0,0,1-4.55-3.39.3.3,0,0,0-.24.08m6.82,5.6a7.31,7.31,0,0,1-4.26-1.5,7.44,7.44,0,0,1-2.8-4.1v0l0,0a.5.5,0,0,1,.47-.23h.14l0,.06a6.28,6.28,0,0,0,4.13,3.26,2.88,2.88,0,0,1-.43-1.13,3.25,3.25,0,0,1,.55-2.31A3.66,3.66,0,0,1,394,100l.38,0a3.88,3.88,0,0,1,3.78,3.26c.21,1.92-1.62,3.75-4,4a4.35,4.35,0,0,1-.63,0" transform="translate(0 0)"/><path class="cls-3" d="M387.57,115.62l-.1-6.12a.6.6,0,0,1,.31-.15,28.9,28.9,0,0,0,4.4,3.42,5.75,5.75,0,0,0,3.08.92,1.92,1.92,0,0,0,1.95-1.83,2.56,2.56,0,0,0-1.26-1.92.48.48,0,0,1,.41-.36,3.93,3.93,0,0,1,2.21,3.33,2.76,2.76,0,0,1-2.84,3,4.75,4.75,0,0,1-3-1.23,39,39,0,0,1-3.46-3.1l.05,2.89c0,1,.93,1.3,1.55,1.56a.23.23,0,0,1,.13.23.57.57,0,0,1-.1.34c-.81-.18-3-.86-3.32-1" transform="translate(0 0)"/><path class="cls-3" d="M387.69,115.54l.31.09c.71.22,2.15.65,2.83.81a.45.45,0,0,0,0-.2c0-.06,0-.12-.05-.12l-.15-.06c-.62-.26-1.47-.6-1.48-1.61l-.05-2.89.2-.09a40.17,40.17,0,0,0,3.45,3.1,4.72,4.72,0,0,0,2.88,1.2h.06a2.65,2.65,0,0,0,2.72-2.86,3.83,3.83,0,0,0-2.11-3.21.37.37,0,0,0-.25.2l.05,0a2.52,2.52,0,0,1,1.19,1.93,2,2,0,0,1-2.06,2h-.09a6,6,0,0,1-3.06-.94,23.37,23.37,0,0,1-3.63-2.75l-.74-.64a.4.4,0,0,0-.16.08Zm3.25,1.17-.07,0c-.66-.13-2.2-.6-2.94-.83l-.39-.12-.08,0v-.08l-.1-6.18,0,0a.77.77,0,0,1,.37-.19h.06l0,0,.79.69a23.32,23.32,0,0,0,3.6,2.73,5.84,5.84,0,0,0,2.94.9h.08a1.8,1.8,0,0,0,1.83-1.71,2.31,2.31,0,0,0-1.1-1.74l-.12-.09,0,0v0a.49.49,0,0,1,.15-.32.54.54,0,0,1,.37-.16h.05a4.05,4.05,0,0,1,2.28,3.44,2.87,2.87,0,0,1-3,3.1h-.06a4.91,4.91,0,0,1-3-1.26,41.61,41.61,0,0,1-3.26-2.89l.05,2.59c0,.85.71,1.13,1.33,1.38l.15.07a.34.34,0,0,1,.2.34.67.67,0,0,1-.13.41Z" transform="translate(0 0)"/><path class="cls-3" d="M398.06,125.8c0,.1-.18.1-.27.1a5.5,5.5,0,0,1-1-.53l-9.52-5.25a.72.72,0,0,1,0-.28c0-.12.14-.74.47-.72,1,.78,5.46,3.52,8.65,5.28l.27-3.88c.05-.84-.72-1.17-1.36-1.43-.05,0-.08,0-.09-.21a.57.57,0,0,1,.17-.39c.82.28,2.55.8,3.07,1,0,.27-.32,4.84-.32,4.84,0,.59,0,1.42,0,1.52" transform="translate(0 0)"/><path class="cls-3" d="M387.36,120l9.48,5.23.36.21a2.85,2.85,0,0,0,.6.3.36.36,0,0,0,.15,0,.93.93,0,0,1,0-.23c0-.32,0-.85,0-1.26,0,0,.27-4,.32-4.74-.61-.18-2.11-.64-2.91-.9a.4.4,0,0,0-.09.25c0,.08,0,.1,0,.11.63.25,1.49.61,1.42,1.54l-.28,4.06-.16-.09c-3.09-1.7-7.56-4.42-8.63-5.25-.18,0-.3.45-.31.6a.43.43,0,0,0,0,.19m10.48,6h-.06a2.14,2.14,0,0,1-.7-.33l-.36-.2-9.55-5.29a.52.52,0,0,1-.05-.36c0-.17.15-.82.56-.82h0l0,0c1,.78,5.36,3.45,8.47,5.17l.25-3.69c.06-.76-.65-1.05-1.27-1.31-.12,0-.16-.12-.16-.31a.67.67,0,0,1,.2-.49l.05,0,.07,0c.82.27,2.52.79,3.07,1l.09,0v.09c0,.27-.32,4.84-.32,4.84,0,.4,0,.93,0,1.24v.27c0,.07-.05.22-.34.22" transform="translate(0 0)"/><path class="cls-5" d="M361.25,83.59l-17,16.35c3.72-5.83,5-15.52,1.31-21.79a25.1,25.1,0,0,0-5.26-6.81c6.58,2.49,13.41,4.68,21,4.91,0,.07.07,7.5,0,7.34M350.4,144.18,329.66,124,361.25,93.1c0,21.14,0,28.63,0,28.63,0,8.72-5.95,17.31-10.85,22.45m-22.74,11.91V132.32l17.49,16.32a43.77,43.77,0,0,1-17.49,7.45m9.76-49.76-9.76,9.2,0-6a26.91,26.91,0,0,0,9.78-3.25m-9.86-33.66c4.64.29,8.63,3.56,11,7.33,2.49,5.1,2.67,12.76-1.55,17.12a14.75,14.75,0,0,1-9.5,5.32Zm-6.1-6.23s.07,50,0,49.34L287.3,83.34V76.1c14.59-1.19,31.32-6.59,36.65-21.9a28.73,28.73,0,0,0,9.9,13.3,23.74,23.74,0,0,0-12.39-1.06m0,89.65a48.22,48.22,0,0,1-17-6.92s17-16.85,17-16.85Zm-34.16-34.3V92.22l32.35,31.83-20.84,20.06c-6.19-6.31-10.53-13.83-11.51-22.32m78.08-49.41c-6.11.31-11.86-.91-17.21-2.35-8.53-2.63-19.45-9.37-20-19.61h8.26c-.09-.83.27-3,0-3.1.27.08-25.66.06-25.58,0-.08.06,0,3.1,0,3.1h9.31c-3.1,14.73-21.89,21.84-36.88,21.68v49.62c.39,6.93,3.18,12.87,6.91,18.52,9.79,13.61,24.93,22.86,41.53,19.33,15.67-3.86,31.4-18.47,33.65-35Z" transform="translate(0 0)"/></g><rect class="cls-3" x="323.99" y="68.99" width="1.15" height="87.11"/><g class="cls-2"><path class="cls-3" d="M324.58,107.06l0-1.15c16.49-.54,18.79-14.52,19.08-17.31a18.46,18.46,0,0,0-4.93-12.92c-3.44-3.61-8.19-5.48-14.14-5.57V69c6.28.09,11.31,2.09,15,5.93a19.71,19.71,0,0,1,5.25,13.79c-.31,3-2.75,17.81-20.19,18.38" transform="translate(0 0)"/><path class="cls-5" d="M323.85,45.4c7.82-10,6.74-21,.49-31.66-.71,10.22-10.89,19.11-.9,31.66Z" transform="translate(0 0)"/><path class="cls-5" d="M322.56,46c-8.65-8.17-10-26.63,1.06-38.37,12.38,9.5,9.37,30.65,1,38.48h4.21A33.65,33.65,0,0,0,333.48,17c-1.8-5.09-4.64-11-9.86-13.33-3.51,2-7.17,7.15-9.27,12.94-2.9,9.73-2.56,20.08,3.17,29.44Z" transform="translate(0 0)"/></g><polygon class="cls-3" points="361.28 87.52 301.16 146.38 301.96 147.2 361.28 89.13 361.28 87.52"/><polygon class="cls-3" points="287.32 87 287.32 88.61 347.41 147.2 348.21 146.38 287.32 87"/><g class="cls-6"><rect class="cls-7" y="17.25" width="1448.45" height="394.81"/></g><polygon class="cls-8" points="17.27 304.25 17.27 252.69 41.98 252.69 41.98 260.4 26.13 260.4 26.13 273.68 37.98 273.68 37.98 281.4 26.13 281.4 26.13 304.25 17.27 304.25"/><path class="cls-8" d="M54.34,285.11h7.15L58,263h-.14Zm-2.85,19.14H42.92l9.5-51.56h11l9.49,51.56H64.35l-1.58-11.43H53.06Z" transform="translate(0 0)"/><rect class="cls-8" x="79.28" y="252.69" width="8.86" height="51.56"/><polygon class="cls-8" points="103.07 260.4 94.5 260.4 94.5 252.69 120.49 252.69 120.49 260.4 111.92 260.4 111.92 304.25 103.07 304.25 103.07 260.4"/><polygon class="cls-8" points="125.72 304.25 125.72 252.69 134.57 252.69 134.57 273.68 144 273.68 144 252.69 152.85 252.69 152.85 304.25 144 304.25 144 281.4 134.57 281.4 134.57 304.25 125.72 304.25"/><rect class="cls-8" x="179.01" y="251.97" width="3.85" height="52.99"/><path class="cls-8" d="M221,285.11h7.14L224.65,263h-.14Zm-2.86,19.14h-8.57l9.5-51.56h11l9.5,51.56H231l-1.57-11.43h-9.72Z" transform="translate(0 0)"/><g class="cls-2"><path class="cls-8" d="M262.58,269.9v-4c0-4.36-2-6.21-4.29-6.21-3.56,0-4.71,1.85-4.71,5.71v26.14c0,3.86,1.15,5.71,4.71,5.71,3.22,0,4.29-1.85,4.29-5.21v-6.21h8.86v5.92c0,7.29-4.29,13.22-13.15,13.22-9.28,0-13.56-5.93-13.56-13.22V265.19c0-7.29,4.28-13.22,13.56-13.22,8.86,0,13.15,6.43,13.15,14.14v3.79Z" transform="translate(0 0)"/></g><path class="cls-8" d="M288.44,285.11h7.15L292.09,263H292Zm-2.85,19.14H277l9.5-51.56h11l9.5,51.56h-8.56l-1.58-11.43h-9.71Z" transform="translate(0 0)"/><g class="cls-2"><path class="cls-8" d="M321,297h3.07c4.71,0,6.36-1.79,6.36-7.21V267.19c0-5.43-1.65-7.21-6.36-7.21H321Zm-8.86-44.28h13.15c9.14,0,14,5,14,15.57v20.42c0,10.57-4.86,15.57-14,15.57H312.16Z" transform="translate(0 0)"/></g><polygon class="cls-8" points="347.88 304.25 347.88 252.69 371.59 252.69 371.59 260.4 356.74 260.4 356.74 273.68 368.17 273.68 368.17 281.4 356.74 281.4 356.74 296.54 372.59 296.54 372.59 304.25 347.88 304.25"/><polygon class="cls-8" points="415.1 252.69 415.1 304.25 407.39 304.25 407.39 263.96 407.25 263.96 399.25 304.25 394.96 304.25 386.96 263.96 386.82 263.96 386.82 304.25 379.1 304.25 379.1 252.69 390.75 252.69 397.03 282.82 397.17 282.82 403.46 252.69 415.1 252.69"/><rect class="cls-8" x="424.46" y="252.69" width="8.86" height="51.56"/><g class="cls-2"><path class="cls-8" d="M461,269.9v-4c0-4.36-2-6.21-4.29-6.21-3.57,0-4.71,1.85-4.71,5.71v26.14c0,3.86,1.14,5.71,4.71,5.71,3.21,0,4.29-1.85,4.29-5.21v-6.21h8.85v5.92c0,7.29-4.29,13.22-13.14,13.22-9.29,0-13.57-5.93-13.57-13.22V265.19c0-7.29,4.28-13.22,13.57-13.22,8.85,0,13.14,6.43,13.14,14.14v3.79Z" transform="translate(0 0)"/><path class="cls-8" d="M495,265.4c-.36-4.43-2.71-5.71-4.71-5.71-2.86,0-4.43,1.85-4.43,5.06,0,8.79,18,13,18,27,0,8.5-5.7,13.22-14,13.22s-12.93-6.57-13.29-14.29l8.43-1.21c.36,5.21,2.43,7.78,5.29,7.78,3.07,0,5.14-1.64,5.14-4.71,0-10.22-18-12.93-18-27.71,0-8.21,5-12.86,13.71-12.86,7.22,0,11.51,5.22,12.29,12.5Z" transform="translate(0 0)"/></g><rect class="cls-8" x="528.12" y="251.97" width="3.85" height="52.99"/><g class="cls-2"><path class="cls-8" d="M580,269.9v-4c0-4.36-2-6.21-4.29-6.21-3.56,0-4.71,1.85-4.71,5.71v26.14c0,3.86,1.15,5.71,4.71,5.71,3.22,0,4.29-1.85,4.29-5.21v-6.21h8.86v5.92c0,7.29-4.29,13.22-13.15,13.22-9.28,0-13.56-5.93-13.56-13.22V265.19c0-7.29,4.28-13.22,13.56-13.22,8.86,0,13.15,6.43,13.15,14.14v3.79Z" transform="translate(0 0)"/><path class="cls-8" d="M606.7,291.54c0,3.85,1.15,5.71,4.71,5.71s4.72-1.86,4.72-5.71V265.4c0-3.86-1.15-5.71-4.72-5.71s-4.71,1.85-4.71,5.71Zm-8.85-26.35c0-7.29,4.28-13.22,13.56-13.22S625,257.9,625,265.19v26.57C625,299,620.7,305,611.41,305s-13.56-5.93-13.56-13.21Z" transform="translate(0 0)"/></g><polygon class="cls-8" points="669.06 252.69 669.06 304.25 661.35 304.25 661.35 263.96 661.2 263.96 653.21 304.25 648.92 304.25 640.92 263.96 640.78 263.96 640.78 304.25 633.06 304.25 633.06 252.69 644.71 252.69 650.99 282.82 651.13 282.82 657.41 252.69 669.06 252.69"/><polygon class="cls-8" points="712.71 252.69 712.71 304.25 705 304.25 705 263.96 704.85 263.96 696.86 304.25 692.57 304.25 684.57 263.96 684.43 263.96 684.43 304.25 676.72 304.25 676.72 252.69 688.36 252.69 694.64 282.82 694.78 282.82 701.07 252.69 712.71 252.69"/><g class="cls-2"><path class="cls-8" d="M720.86,252.69h8.86v38.92c0,3.78,1.5,5.64,4.71,5.64s4.72-1.86,4.72-5.64V252.69H748v38.56c0,8.86-5.14,13.72-13.57,13.72s-13.57-4.86-13.57-13.72Z" transform="translate(0 0)"/></g><polygon class="cls-8" points="756.58 304.25 756.58 252.69 764.8 252.69 775.58 282.18 775.72 282.18 775.72 252.69 783.72 252.69 783.72 304.25 776.01 304.25 764.73 272.04 764.58 272.04 764.58 304.25 756.58 304.25"/><rect class="cls-8" x="793.51" y="252.69" width="8.86" height="51.56"/><polygon class="cls-8" points="817.3 260.4 808.74 260.4 808.74 252.69 834.73 252.69 834.73 260.4 826.16 260.4 826.16 304.25 817.3 304.25 817.3 260.4"/><polygon class="cls-8" points="855.95 304.25 847.09 304.25 847.09 282.83 836.38 252.69 845.38 252.69 851.59 272.33 851.73 272.33 857.66 252.69 866.66 252.69 855.95 282.83 855.95 304.25"/></g></g></svg>