<svg xmlns="http://www.w3.org/2000/svg" xmlns:xlink="http://www.w3.org/1999/xlink" viewBox="0 0 80.43 91.69"><defs><style>.cls-1,.cls-32{fill:none;}.cls-2{font-size:7.78px;fill:#fff;}.cls-2,.cls-34{font-family:TradeGothicLTStd-BdCn20, Trade Gothic LT Std;}.cls-3{letter-spacing:0.02em;}.cls-4{letter-spacing:0.02em;}.cls-5{letter-spacing:0.05em;}.cls-6{letter-spacing:0.04em;}.cls-7{letter-spacing:0.02em;}.cls-8{letter-spacing:0.03em;}.cls-9{letter-spacing:0.01em;}.cls-10{letter-spacing:0.04em;}.cls-11{letter-spacing:0.04em;}.cls-12{letter-spacing:0.02em;}.cls-13{letter-spacing:0.02em;}.cls-14{letter-spacing:0.04em;}.cls-15{letter-spacing:0.03em;}.cls-16{letter-spacing:0.02em;}.cls-17{letter-spacing:0.02em;}.cls-18{letter-spacing:0em;}.cls-19{letter-spacing:0.03em;}.cls-20{letter-spacing:0.02em;}.cls-21{letter-spacing:0.03em;}.cls-22{letter-spacing:0.01em;}.cls-23{letter-spacing:0.03em;}.cls-24{letter-spacing:0.03em;}.cls-25{letter-spacing:0.04em;}.cls-26{letter-spacing:0.03em;}.cls-27{letter-spacing:-0.01em;}.cls-28{clip-path:url(#clip-path);}.cls-29{letter-spacing:0.05em;}.cls-30{letter-spacing:0.02em;}.cls-31{letter-spacing:0.03em;}.cls-32{stroke:#fff;stroke-miterlimit:10;stroke-width:0.15px;}.cls-33{fill:#191919;}.cls-34{font-size:32.45px;fill:#ffc841;}.cls-35{letter-spacing:0.01em;}.cls-36{letter-spacing:0em;}</style><clipPath id="clip-path" transform="translate(-15.64 0)"><rect class="cls-1" width="113.89" height="89.85"/></clipPath></defs><g id="Layer_2" data-name="Layer 2"><g id="Layer_1-2" data-name="Layer 1"><text class="cls-2" transform="translate(3.84 60.65)"><tspan class="cls-3">O</tspan><tspan x="4.06" y="0">F </tspan><tspan class="cls-4" x="9.24" y="0">G</tspan><tspan class="cls-5" x="13.27" y="0">R</tspan><tspan class="cls-6" x="17.57" y="0">A</tspan><tspan class="cls-7" x="21.36" y="0">D</tspan><tspan class="cls-8" x="25.41" y="0">U</tspan><tspan class="cls-9" x="29.54" y="0">A</tspan><tspan class="cls-10" x="33.1" y="0">T</tspan><tspan class="cls-11" x="36.45" y="0">E</tspan><tspan x="40.21" y="0">S </tspan><tspan class="cls-12" x="45.39" y="0">C</tspan><tspan class="cls-13" x="49.42" y="0">O</tspan><tspan class="cls-14" x="53.48" y="0">N</tspan><tspan class="cls-15" x="57.7" y="0">T</tspan><tspan class="cls-16" x="60.99" y="0">I</tspan><tspan class="cls-17" x="63.27" y="0">NU</tspan><tspan x="71.41" y="0">E </tspan></text><text class="cls-2" transform="translate(15.33 70.38)"><tspan class="cls-10">T</tspan><tspan class="cls-17" x="3.35" y="0">H</tspan><tspan class="cls-13" x="7.42" y="0">E</tspan><tspan class="cls-16" x="11.05" y="0">I</tspan><tspan class="cls-18" x="13.33" y="0">R </tspan><tspan class="cls-19" x="18.94" y="0">E</tspan><tspan class="cls-7" x="22.63" y="0">D</tspan><tspan class="cls-20" x="26.68" y="0">U</tspan><tspan class="cls-21" x="30.73" y="0">C</tspan><tspan class="cls-22" x="34.84" y="0">A</tspan><tspan class="cls-15" x="38.4" y="0">T</tspan><tspan class="cls-9" x="41.69" y="0">I</tspan><tspan class="cls-3" x="43.96" y="0">O</tspan><tspan x="48.02" y="0">N </tspan></text><text class="cls-2" transform="translate(21.58 80.11)"><tspan class="cls-4">I</tspan><tspan class="cls-23" x="2.3" y="0">M</tspan><tspan class="cls-24" x="7.28" y="0">M</tspan><tspan class="cls-19" x="12.24" y="0">E</tspan><tspan class="cls-22" x="15.93" y="0">D</tspan><tspan class="cls-15" x="19.92" y="0">I</tspan><tspan class="cls-22" x="22.35" y="0">A</tspan><tspan class="cls-25" x="25.91" y="0">T</tspan><tspan class="cls-26" x="29.27" y="0">E</tspan><tspan class="cls-27" x="32.98" y="0">L</tspan><tspan x="35.97" y="0">Y</tspan></text><text class="cls-2" transform="translate(61.03 80.12)"> </text><g class="cls-28"><text class="cls-2" transform="translate(12.44 89.85)"><tspan class="cls-6">A</tspan><tspan class="cls-29" x="3.79" y="0">F</tspan><tspan class="cls-10" x="7.66" y="0">T</tspan><tspan class="cls-19" x="11.01" y="0">E</tspan><tspan x="14.7" y="0">R </tspan><tspan class="cls-4" x="20.31" y="0">G</tspan><tspan class="cls-5" x="24.34" y="0">R</tspan><tspan class="cls-6" x="28.65" y="0">A</tspan><tspan class="cls-30" x="32.43" y="0">D</tspan><tspan class="cls-31" x="36.48" y="0">U</tspan><tspan class="cls-22" x="40.61" y="0">A</tspan><tspan class="cls-15" x="44.17" y="0">T</tspan><tspan class="cls-9" x="47.46" y="0">I</tspan><tspan class="cls-3" x="49.73" y="0">O</tspan><tspan x="53.79" y="0">N</tspan></text><path class="cls-32" d="M43.69,9h-.32A32.07,32.07,0,0,0,30,11.82v8.42l.17,0a44.25,44.25,0,0,1,13.23-1.81h.32a51.23,51.23,0,0,1,13.56,1.81l.16,0V11.87A36.51,36.51,0,0,0,43.69,9Z" transform="translate(-15.64 0)"/><path class="cls-33" d="M17.8,11.5l4.14,1.81V9.78Zm7.37,3.21,4.19,1.83V11.82a.6.6,0,0,1,.33-.54A32.38,32.38,0,0,1,43.37,8.37h.32a36.92,36.92,0,0,1,14,3,.61.61,0,0,1,.35.55v4.36l11-4.75L48.15,2.19a12,12,0,0,0-4-1h-.44A10.25,10.25,0,0,0,40.62,2h0L25.17,8.43ZM30,18.07a.49.49,0,0,1-.24-.05l-5.41-2.35a.62.62,0,0,1-.37-.56V8.94l-.79.33v5a.61.61,0,0,1-.85.56L16,12.05a.61.61,0,0,1-.37-.57.59.59,0,0,1,.38-.55L40.13.89A11.2,11.2,0,0,1,43.65,0l.52,0a13,13,0,0,1,4.47,1.08l22.1,9.85a.62.62,0,0,1,0,1.12L57.65,17.72a.63.63,0,0,1-.58,0,.6.6,0,0,1-.27-.51V12.27A36.76,36.76,0,0,0,43.68,9.59h-.31A32.48,32.48,0,0,0,30.58,12.2v5.26a.61.61,0,0,1-.28.51.56.56,0,0,1-.33.1" transform="translate(-15.64 0)"/><path class="cls-33" d="M43.37,17.75h.32c5.69.06,10.65.7,13.11,1.65V12.27A36.76,36.76,0,0,0,43.68,9.59h-.31A32.58,32.58,0,0,0,30.58,12.2v7.18c2.39-1,7.22-1.63,12.79-1.63M30.14,20.88H30l-.19,0a.62.62,0,0,1-.47-.59V11.82a.6.6,0,0,1,.33-.54A32.38,32.38,0,0,1,43.37,8.37h.32a36.92,36.92,0,0,1,14,3,.61.61,0,0,1,.35.55v8.37a.62.62,0,0,1-.47.59l-.18,0A.64.64,0,0,1,57,20.8C55.39,19.94,50.68,19,43.68,19h-.31c-6.86,0-11.43.91-12.91,1.82a.62.62,0,0,1-.32.09" transform="translate(-15.64 0)"/><path class="cls-33" d="M31.57,20.3c1.79.88,5.57,2.44,12.12,2.44S54,21.22,55.77,20.33A46.51,46.51,0,0,0,43.68,19h-.31c-5.61,0-9.69.61-11.8,1.33M43.69,24C36,24,31.93,21.86,30.4,21.07l-.47-.23a.6.6,0,0,1-.39-.51.59.59,0,0,1,.28-.58c2-1.21,7.31-2,13.55-2h.33c6.33.07,11.77.85,13.84,2a.6.6,0,0,1,.32.57.61.61,0,0,1-.4.53l-.44.22C55.5,21.85,51.46,24,43.69,24" transform="translate(-15.64 0)"/><path class="cls-33" d="M21.58,37.46a2.22,2.22,0,0,0,.37,0c1.38,0,2.17-1,2.42-3a.63.63,0,0,1,.52-.53.6.6,0,0,1,.64.35,1.78,1.78,0,0,1,.08.18,6.3,6.3,0,0,0,0-2.62A26.71,26.71,0,0,0,25,29.15a29,29,0,0,1-1.3-8.56,2.54,2.54,0,0,1-.55,0,15.29,15.29,0,0,1-.57,2.57c-.74,2.24-1.31,7.52-.86,9.29.06.24.13.48.2.72.39,1.37.9,3.15-.33,4.32M22,38.7a5.33,5.33,0,0,1-2.17-.51.63.63,0,0,1-.33-.58.62.62,0,0,1,.41-.54c1.65-.58,1.44-1.63.88-3.6l-.21-.74a17.92,17.92,0,0,1,0-5,26.78,26.78,0,0,1,.92-5A15,15,0,0,0,22,19.7a.64.64,0,0,1,.31-.48.6.6,0,0,1,.58,0,1.42,1.42,0,0,0,1.16.06.61.61,0,0,1,.57.06.64.64,0,0,1,.26.51,28.41,28.41,0,0,0,1.26,9,26.72,26.72,0,0,1,.69,2.84c.61,3.67-1.12,5-1.2,5.1a.6.6,0,0,1-.68,0,3.23,3.23,0,0,1-3,1.9" transform="translate(-15.64 0)"/><path class="cls-33" d="M23.16,9.27v6.1a2.62,2.62,0,0,1,.79,0V8.94Zm1.4,7.56a.64.64,0,0,1-.3-.08,1.37,1.37,0,0,0-.7-.19,1.32,1.32,0,0,0-.7.19.66.66,0,0,1-.61,0,.61.61,0,0,1-.31-.53V8.86a.62.62,0,0,1,.38-.56l2-.83a.61.61,0,0,1,.57,0,.6.6,0,0,1,.27.51v8.19a.63.63,0,0,1-.3.53.68.68,0,0,1-.31.08" transform="translate(-15.64 0)"/><path class="cls-33" d="M23.56,16.56a1.32,1.32,0,0,0-.7.19,1.41,1.41,0,0,0,.05,2.47,1.42,1.42,0,0,0,1.16.06,1.4,1.4,0,0,0,.19-2.53,1.34,1.34,0,0,0-.7-.19m0,4a2.74,2.74,0,0,1-1.22-.29,2.68,2.68,0,1,1,1.22.29" transform="translate(-15.64 0)"/></g><text class="cls-34" transform="translate(14.1 50.06)"><tspan class="cls-35">9</tspan><tspan class="cls-36" x="14.6" y="0">9</tspan><tspan x="29.14" y="0">%</tspan></text></g></g></svg>