<svg xmlns="http://www.w3.org/2000/svg" xmlns:xlink="http://www.w3.org/1999/xlink" viewBox="0 0 78.41 89.93"><defs><style>.cls-1,.cls-4{fill:none;}.cls-2{fill:#fff;}.cls-3{clip-path:url(#clip-path);}.cls-4{stroke:#fff;stroke-miterlimit:10;stroke-width:0.15px;}.cls-5{fill:#191919;}.cls-6{fill:#ffc841;}</style><clipPath id="clip-path" transform="translate(-15.64 0)"><rect class="cls-1" width="113.89" height="89.85"/></clipPath></defs><g id="Layer_2" data-name="Layer 2"><g id="Layer_1-2" data-name="Layer 1"><path class="cls-2" d="M20,56.39A1.35,1.35,0,0,1,21.43,55a1.35,1.35,0,0,1,1.48,1.44v2.89a1.35,1.35,0,0,1-1.48,1.44A1.35,1.35,0,0,1,20,59.28Zm1,2.87c0,.42.12.62.51.62s.51-.2.51-.62V56.41c0-.42-.12-.62-.51-.62s-.51.2-.51.62Z" transform="translate(-15.64 0)"/><path class="cls-2" d="M24,60.65V55H26.7v.84H25v1.44h1.29v.85H25v2.49Z" transform="translate(-15.64 0)"/><path class="cls-2" d="M30.52,57.8H32.1v2.85h-.46l-.18-.42a1.12,1.12,0,0,1-1,.49,1.28,1.28,0,0,1-1.29-1.44V56.39A1.34,1.34,0,0,1,30.61,55a1.41,1.41,0,0,1,1.45,1.54v.36h-.92c0-.84-.17-1.06-.55-1.06s-.43.14-.43.61v2.89c0,.36.11.59.45.59s.53-.21.53-.78v-.54h-.62Z" transform="translate(-15.64 0)"/><path class="cls-2" d="M34.19,60.65h-1V55h1.36c1.08,0,1.63.46,1.63,1.65,0,.91-.35,1.27-.68,1.42l.82,2.55h-1l-.68-2.33-.5,0Zm0-3.1h.34c.52,0,.72-.2.72-.87s-.2-.86-.72-.86h-.34Z" transform="translate(-15.64 0)"/><path class="cls-2" d="M38.09,60.65h-.94l1-5.62h1.2l1,5.62h-.93l-.17-1.25H38.26Zm.31-2.09h.78l-.39-2.41h0Z" transform="translate(-15.64 0)"/><path class="cls-2" d="M41.31,55h1.44c1,0,1.52.54,1.52,1.69V59c0,1.15-.53,1.7-1.52,1.7H41.31Zm1,4.82h.33c.52,0,.7-.19.7-.78V56.61c0-.59-.18-.79-.7-.79h-.33Z" transform="translate(-15.64 0)"/><path class="cls-2" d="M45.36,55h1v4.24c0,.41.16.61.51.61s.51-.2.51-.61V55h1v4.2a1.48,1.48,0,1,1-3,0Z" transform="translate(-15.64 0)"/><path class="cls-2" d="M50.05,60.65h-.93l1-5.62h1.2l1,5.62h-.94l-.17-1.25H50.22Zm.31-2.09h.78l-.38-2.41h0Z" transform="translate(-15.64 0)"/><path class="cls-2" d="M53.61,55.87h-.94V55h2.84v.84h-.94v4.78h-1Z" transform="translate(-15.64 0)"/><path class="cls-2" d="M56.4,60.65V55H59v.84H57.36v1.44h1.25v.85H57.36V59.8h1.73v.85Z" transform="translate(-15.64 0)"/><path class="cls-2" d="M61.92,56.41c0-.48-.3-.62-.52-.62s-.48.2-.48.55c0,1,2,1.42,2,2.94a1.37,1.37,0,0,1-1.52,1.44,1.47,1.47,0,0,1-1.45-1.55l.92-.14c0,.57.26.85.57.85a.49.49,0,0,0,.56-.51c0-1.11-2-1.41-2-3A1.32,1.32,0,0,1,61.5,55a1.34,1.34,0,0,1,1.33,1.36Z" transform="translate(-15.64 0)"/><path class="cls-2" d="M67.28,56.9v-.43c0-.48-.21-.68-.46-.68s-.52.2-.52.62v2.85c0,.42.13.62.52.62s.46-.2.46-.57v-.67h1v.64a1.34,1.34,0,0,1-1.43,1.44,1.35,1.35,0,0,1-1.48-1.44V56.39A1.35,1.35,0,0,1,66.82,55a1.39,1.39,0,0,1,1.43,1.54v.41Z" transform="translate(-15.64 0)"/><path class="cls-2" d="M69.37,56.39a1.48,1.48,0,0,1,3,0v2.89a1.48,1.48,0,0,1-3,0Zm1,2.87c0,.42.13.62.52.62s.51-.2.51-.62V56.41c0-.42-.12-.62-.51-.62s-.52.2-.52.62Z" transform="translate(-15.64 0)"/><path class="cls-2" d="M73.43,60.65V55h.89l1.18,3.21h0V55h.87v5.62h-.84l-1.23-3.51h0v3.51Z" transform="translate(-15.64 0)"/><path class="cls-2" d="M78.21,55.87h-.93V55h2.83v.84h-.93v4.78h-1Z" transform="translate(-15.64 0)"/><path class="cls-2" d="M81.08,60.65V55h1v5.62Z" transform="translate(-15.64 0)"/><path class="cls-2" d="M83.22,60.65V55h.9l1.17,3.21h0V55h.87v5.62h-.84l-1.23-3.51h0v3.51Z" transform="translate(-15.64 0)"/><path class="cls-2" d="M87.29,55h1v4.24c0,.41.16.61.51.61s.52-.2.52-.61V55h1v4.2a1.48,1.48,0,1,1-3,0Z" transform="translate(-15.64 0)"/><path class="cls-2" d="M91.36,60.65V55H94v.84H92.33v1.44h1.24v.85H92.33V59.8h1.73v.85Z" transform="translate(-15.64 0)"/><path class="cls-2" d="M32,65.6h-.93v-.84h2.83v.84H33v4.78H32Z" transform="translate(-15.64 0)"/><path class="cls-2" d="M34.79,70.38V64.76h1v2.29h1V64.76h1v5.62h-1V67.89h-1v2.49Z" transform="translate(-15.64 0)"/><path class="cls-2" d="M38.86,70.38V64.76h2.58v.84H39.82v1.45h1.25v.84H39.82v1.65h1.73v.84Z" transform="translate(-15.64 0)"/><path class="cls-2" d="M42.61,70.38V64.76h1v5.62Z" transform="translate(-15.64 0)"/><path class="cls-2" d="M45.73,70.38h-1V64.76h1.36c1.08,0,1.63.46,1.63,1.66,0,.9-.35,1.27-.68,1.41l.82,2.55h-1l-.69-2.33a3.62,3.62,0,0,1-.49,0Zm0-3.1h.34c.52,0,.71-.19.71-.86s-.19-.87-.71-.87h-.34Z" transform="translate(-15.64 0)"/><path class="cls-2" d="M50.38,70.38V64.76H53v.84H51.34v1.45h1.25v.84H51.34v1.65h1.73v.84Z" transform="translate(-15.64 0)"/><path class="cls-2" d="M54.07,64.76H55.5c1,0,1.52.54,1.52,1.7v2.22c0,1.15-.53,1.7-1.52,1.7H54.07Zm1,4.82h.34c.51,0,.69-.19.69-.78V66.34c0-.59-.18-.79-.69-.79H55Z" transform="translate(-15.64 0)"/><path class="cls-2" d="M58.11,64.76h1V69c0,.41.16.62.51.62s.51-.21.51-.62V64.76h1V69a1.48,1.48,0,1,1-3,0Z" transform="translate(-15.64 0)"/><path class="cls-2" d="M64.11,66.64V66.2c0-.48-.22-.68-.47-.68s-.51.2-.51.62V69c0,.42.12.63.51.63s.47-.21.47-.57v-.68h1V69a1.46,1.46,0,0,1-2.92,0v-2.9a1.35,1.35,0,0,1,1.48-1.44,1.4,1.4,0,0,1,1.44,1.54v.42Z" transform="translate(-15.64 0)"/><path class="cls-2" d="M66.83,70.38H65.9l1-5.62h1.2l1,5.62h-.94l-.17-1.25H67Zm.31-2.09h.78l-.38-2.41h0Z" transform="translate(-15.64 0)"/><path class="cls-2" d="M70.4,65.6h-.94v-.84h2.83v.84h-.93v4.78h-1Z" transform="translate(-15.64 0)"/><path class="cls-2" d="M73.26,70.38V64.76h1v5.62Z" transform="translate(-15.64 0)"/><path class="cls-2" d="M75.39,66.12a1.48,1.48,0,0,1,3,0V69a1.48,1.48,0,0,1-3,0Zm1,2.87c0,.42.12.63.51.63s.51-.21.51-.63V66.14c0-.42-.12-.62-.51-.62s-.51.2-.51.62Z" transform="translate(-15.64 0)"/><path class="cls-2" d="M79.45,70.38V64.76h.9L81.52,68h0V64.76h.87v5.62h-.84l-1.23-3.51h0v3.51Z" transform="translate(-15.64 0)"/><path class="cls-2" d="M37.82,80.11V74.49h1v5.62Z" transform="translate(-15.64 0)"/><path class="cls-2" d="M43.86,74.49v5.62H43V75.72h0l-.87,4.39h-.46l-.88-4.39h0v4.39h-.84V74.49h1.27l.68,3.29h0l.68-3.29Z" transform="translate(-15.64 0)"/><path class="cls-2" d="M48.84,74.49v5.62H48V75.72h0l-.87,4.39h-.47l-.87-4.39h0v4.39h-.84V74.49h1.27l.68,3.29h0l.68-3.29Z" transform="translate(-15.64 0)"/><path class="cls-2" d="M49.93,80.11V74.49h2.58v.84H50.89v1.45h1.25v.84H50.89v1.65h1.73v.84Z" transform="translate(-15.64 0)"/><path class="cls-2" d="M53.61,74.49h1.44c1,0,1.52.55,1.52,1.7v2.23c0,1.15-.53,1.69-1.52,1.69H53.61Zm1,4.83h.33c.52,0,.7-.2.7-.79V76.07c0-.59-.18-.78-.7-.78h-.33Z" transform="translate(-15.64 0)"/><path class="cls-2" d="M57.75,80.11V74.49h1v5.62Z" transform="translate(-15.64 0)"/><path class="cls-2" d="M60.6,80.11h-.93l1-5.62h1.2l1,5.62H62l-.17-1.24H60.77ZM60.91,78h.78l-.38-2.42h0Z" transform="translate(-15.64 0)"/><path class="cls-2" d="M64.16,75.33h-.93v-.84h2.83v.84h-.93v4.78h-1Z" transform="translate(-15.64 0)"/><path class="cls-2" d="M67,80.11V74.49h2.58v.84H67.92v1.45h1.25v.84H67.92v1.65h1.73v.84Z" transform="translate(-15.64 0)"/><path class="cls-2" d="M70.62,80.11V74.49h1v4.78H73.1v.84Z" transform="translate(-15.64 0)"/><path class="cls-2" d="M75.4,80.11h-1V77.78l-1.16-3.29h1l.67,2.14h0l.65-2.14h1L75.4,77.78Z" transform="translate(-15.64 0)"/><g class="cls-3"><path class="cls-2" d="M29.11,89.85h-.93l1-5.62h1.2l1,5.62h-.93l-.17-1.24H29.28Zm.31-2.09h.78l-.38-2.41h0Z" transform="translate(-15.64 0)"/><path class="cls-2" d="M32.34,89.85V84.23H35v.84H33.3v1.45h1.29v.84H33.3v2.49Z" transform="translate(-15.64 0)"/><path class="cls-2" d="M36.76,85.07h-.93v-.84h2.83v.84h-.93v4.78h-1Z" transform="translate(-15.64 0)"/><path class="cls-2" d="M39.56,89.85V84.23h2.58v.84H40.52v1.45h1.25v.84H40.52V89h1.73v.84Z" transform="translate(-15.64 0)"/><path class="cls-2" d="M44.21,89.85h-1V84.23H44.6c1.08,0,1.63.46,1.63,1.66,0,.9-.35,1.27-.67,1.42l.81,2.54h-1l-.68-2.33a3.73,3.73,0,0,1-.5,0Zm0-3.1h.34c.52,0,.72-.19.72-.86s-.2-.86-.72-.86h-.34Z" transform="translate(-15.64 0)"/><path class="cls-2" d="M50.19,87h1.58v2.85h-.46l-.18-.42a1.14,1.14,0,0,1-1,.5,1.29,1.29,0,0,1-1.29-1.44v-2.9a1.34,1.34,0,0,1,1.42-1.44,1.41,1.41,0,0,1,1.45,1.55v.35h-.92c0-.84-.17-1-.56-1-.23,0-.42.14-.42.61V88.5c0,.35.11.59.45.59s.53-.22.53-.78v-.55h-.62Z" transform="translate(-15.64 0)"/><path class="cls-2" d="M53.86,89.85h-1V84.23h1.36c1.08,0,1.63.46,1.63,1.66,0,.9-.35,1.27-.68,1.42L56,89.85H55l-.68-2.33a3.73,3.73,0,0,1-.5,0Zm0-3.1h.34c.52,0,.72-.19.72-.86s-.2-.86-.72-.86h-.34Z" transform="translate(-15.64 0)"/><path class="cls-2" d="M57.75,89.85h-.93l1-5.62h1.19l1,5.62h-.93L59,88.61h-1Zm.32-2.09h.77l-.38-2.41h0Z" transform="translate(-15.64 0)"/><path class="cls-2" d="M61,84.23h1.44c1,0,1.52.55,1.52,1.7v2.22c0,1.16-.53,1.7-1.52,1.7H61Zm1,4.83h.33c.52,0,.7-.2.7-.79V85.81c0-.59-.18-.78-.7-.78H62Z" transform="translate(-15.64 0)"/><path class="cls-2" d="M65,84.23h1v4.24c0,.42.17.62.52.62s.51-.2.51-.62V84.23h1v4.2a1.48,1.48,0,1,1-3,0Z" transform="translate(-15.64 0)"/><path class="cls-2" d="M69.72,89.85h-.93l1-5.62H71l1,5.62h-.93L71,88.61H69.89ZM70,87.76h.78l-.38-2.41h0Z" transform="translate(-15.64 0)"/><path class="cls-2" d="M73.28,85.07h-.93v-.84h2.83v.84h-.93v4.78h-1Z" transform="translate(-15.64 0)"/><path class="cls-2" d="M76.15,89.85V84.23h1v5.62Z" transform="translate(-15.64 0)"/><path class="cls-2" d="M78.28,85.59a1.48,1.48,0,0,1,3,0v2.9a1.48,1.48,0,0,1-3,0Zm1,2.88c0,.42.13.62.52.62s.51-.2.51-.62V85.62c0-.42-.12-.62-.51-.62s-.52.2-.52.62Z" transform="translate(-15.64 0)"/><path class="cls-2" d="M82.34,89.85V84.23h.89l1.18,3.22h0V84.23h.88v5.62h-.84l-1.23-3.51h0v3.51Z" transform="translate(-15.64 0)"/><path class="cls-4" d="M43.69,9h-.32A32.07,32.07,0,0,0,30,11.82v8.42l.17,0a44.25,44.25,0,0,1,13.23-1.81h.32a51.23,51.23,0,0,1,13.56,1.81l.16,0V11.87A36.51,36.51,0,0,0,43.69,9Z" transform="translate(-15.64 0)"/><path class="cls-5" d="M17.8,11.5l4.14,1.81V9.78Zm7.37,3.21,4.19,1.83V11.82a.6.6,0,0,1,.33-.54A32.38,32.38,0,0,1,43.37,8.37h.32a36.92,36.92,0,0,1,14,3,.61.61,0,0,1,.35.55v4.36l11-4.75L48.15,2.19a12,12,0,0,0-4-1h-.44A10.25,10.25,0,0,0,40.62,2h0L25.17,8.43ZM30,18.07a.49.49,0,0,1-.24-.05l-5.41-2.35a.62.62,0,0,1-.37-.56V8.94l-.79.33v5a.61.61,0,0,1-.85.56L16,12.05a.61.61,0,0,1-.37-.57.59.59,0,0,1,.38-.55L40.13.89A11.2,11.2,0,0,1,43.65,0l.52,0a13,13,0,0,1,4.47,1.08l22.1,9.85a.62.62,0,0,1,0,1.12L57.65,17.72a.63.63,0,0,1-.58,0,.6.6,0,0,1-.27-.51V12.27A36.76,36.76,0,0,0,43.68,9.59h-.31A32.48,32.48,0,0,0,30.58,12.2v5.26a.61.61,0,0,1-.28.51.56.56,0,0,1-.33.1" transform="translate(-15.64 0)"/><path class="cls-5" d="M43.37,17.75h.32c5.69.06,10.65.7,13.11,1.65V12.27A36.76,36.76,0,0,0,43.68,9.59h-.31A32.58,32.58,0,0,0,30.58,12.2v7.18c2.39-1,7.22-1.63,12.79-1.63M30.14,20.88H30l-.19,0a.62.62,0,0,1-.47-.59V11.82a.6.6,0,0,1,.33-.54A32.38,32.38,0,0,1,43.37,8.37h.32a36.92,36.92,0,0,1,14,3,.61.61,0,0,1,.35.55v8.37a.62.62,0,0,1-.47.59l-.18,0A.64.64,0,0,1,57,20.8C55.39,19.94,50.68,19,43.68,19h-.31c-6.86,0-11.43.91-12.91,1.82a.62.62,0,0,1-.32.09" transform="translate(-15.64 0)"/><path class="cls-5" d="M31.57,20.3c1.79.88,5.57,2.44,12.12,2.44S54,21.22,55.77,20.33A46.51,46.51,0,0,0,43.68,19h-.31c-5.61,0-9.69.61-11.8,1.33M43.69,24C36,24,31.93,21.86,30.4,21.07l-.47-.23a.6.6,0,0,1-.39-.51.59.59,0,0,1,.28-.58c2-1.21,7.31-2,13.55-2h.33c6.33.07,11.77.85,13.84,2a.6.6,0,0,1,.32.57.61.61,0,0,1-.4.53l-.44.22C55.5,21.85,51.46,24,43.69,24" transform="translate(-15.64 0)"/><path class="cls-5" d="M21.58,37.46a2.22,2.22,0,0,0,.37,0c1.38,0,2.17-1,2.42-3a.63.63,0,0,1,.52-.53.6.6,0,0,1,.64.35,1.78,1.78,0,0,1,.08.18,6.3,6.3,0,0,0,0-2.62A26.71,26.71,0,0,0,25,29.15a29,29,0,0,1-1.3-8.56,2.54,2.54,0,0,1-.55,0,15.29,15.29,0,0,1-.57,2.57c-.74,2.24-1.31,7.52-.86,9.29.06.24.13.48.2.72.39,1.37.9,3.15-.33,4.32M22,38.7a5.33,5.33,0,0,1-2.17-.51.63.63,0,0,1-.33-.58.62.62,0,0,1,.41-.54c1.65-.58,1.44-1.63.88-3.6l-.21-.74a17.92,17.92,0,0,1,0-5,26.78,26.78,0,0,1,.92-5A15,15,0,0,0,22,19.7a.64.64,0,0,1,.31-.48.6.6,0,0,1,.58,0,1.42,1.42,0,0,0,1.16.06.61.61,0,0,1,.57.06.64.64,0,0,1,.26.51,28.41,28.41,0,0,0,1.26,9,26.72,26.72,0,0,1,.69,2.84c.61,3.67-1.12,5-1.2,5.1a.6.6,0,0,1-.68,0,3.23,3.23,0,0,1-3,1.9" transform="translate(-15.64 0)"/><path class="cls-5" d="M23.16,9.27v6.1a2.62,2.62,0,0,1,.79,0V8.94Zm1.4,7.56a.64.64,0,0,1-.3-.08,1.37,1.37,0,0,0-.7-.19,1.32,1.32,0,0,0-.7.19.66.66,0,0,1-.61,0,.61.61,0,0,1-.31-.53V8.86a.62.62,0,0,1,.38-.56l2-.83a.61.61,0,0,1,.57,0,.6.6,0,0,1,.27.51v8.19a.63.63,0,0,1-.3.53.68.68,0,0,1-.31.08" transform="translate(-15.64 0)"/><path class="cls-5" d="M23.56,16.56a1.32,1.32,0,0,0-.7.19,1.41,1.41,0,0,0,.05,2.47,1.42,1.42,0,0,0,1.16.06,1.4,1.4,0,0,0,.19-2.53,1.34,1.34,0,0,0-.7-.19m0,4a2.74,2.74,0,0,1-1.22-.29,2.68,2.68,0,1,1,1.22.29" transform="translate(-15.64 0)"/></g><path class="cls-6" d="M35.23,43.76V45c0,1.53.52,2.24,1.72,2.24s1.88-.71,1.88-2.24V39.48A4,4,0,0,1,35.52,41c-2.33,0-4.28-1.36-4.28-4.8V33.44c0-4.93,1.69-7.14,5.71-7.14s5.71,2,5.71,6.43V44c0,4.41-1.69,6.42-5.71,6.42a4.93,4.93,0,0,1-5.23-5.19V43.76Zm3.6-12c0-1.53-.68-2.24-1.88-2.24s-1.88.71-1.88,2.24v3.89c0,1.53.68,2.24,1.68,2.24a4.08,4.08,0,0,0,2.08-1.07Z" transform="translate(-15.64 0)"/><path class="cls-6" d="M49.83,43.76V45c0,1.53.52,2.24,1.72,2.24s1.88-.71,1.88-2.24V39.48A4,4,0,0,1,50.12,41c-2.33,0-4.28-1.36-4.28-4.8V33.44c0-4.93,1.69-7.14,5.71-7.14s5.71,2,5.71,6.43V44c0,4.41-1.68,6.42-5.71,6.42a4.93,4.93,0,0,1-5.22-5.19V43.76Zm3.6-12c0-1.53-.68-2.24-1.88-2.24s-1.88.71-1.88,2.24v3.89c0,1.53.68,2.24,1.69,2.24a4.09,4.09,0,0,0,2.07-1.07Z" transform="translate(-15.64 0)"/><path class="cls-6" d="M65.83,26.62A5.33,5.33,0,1,1,60.5,32,5.31,5.31,0,0,1,65.83,26.62Zm0,8.05A2.73,2.73,0,1,0,63.1,32,2.74,2.74,0,0,0,65.83,34.67ZM79.39,26.3,66.12,50.38H63.69L77,26.3Zm-2.2,13.11a5.33,5.33,0,1,1-5.33,5.32A5.3,5.3,0,0,1,77.19,39.41Zm0,8.05a2.73,2.73,0,1,0-2.73-2.73A2.74,2.74,0,0,0,77.19,47.46Z" transform="translate(-15.64 0)"/></g></g></svg>