<svg xmlns="http://www.w3.org/2000/svg" xmlns:xlink="http://www.w3.org/1999/xlink" viewBox="0 0 121.63 95.63"><defs><style>.cls-1{fill:none;}.cls-2{fill:#ffc841;}.cls-3{fill:#fff;}.cls-4{clip-path:url(#clip-path);}.cls-5{fill:#231f20;}</style><clipPath id="clip-path" transform="translate(-9.19)"><rect class="cls-1" width="140.15" height="99.43"/></clipPath></defs><g id="Layer_2" data-name="Layer 2"><g id="Layer_1-2" data-name="Layer 1"><path class="cls-2" d="M27,45.19h2.74c1.91,0,2.93,1.05,2.93,3.26v4.26c0,2.21-1,3.26-2.93,3.26H27Zm1.85,9.25h.64c1,0,1.33-.37,1.33-1.5V48.22c0-1.13-.35-1.5-1.33-1.5h-.64Z" transform="translate(-9.19)"/><path class="cls-2" d="M34.44,45.19h1.85v8.14c0,.79.32,1.17,1,1.17s1-.38,1-1.17V45.19h1.85v8.06a2.6,2.6,0,0,1-2.83,2.87,2.61,2.61,0,0,1-2.84-2.87Z" transform="translate(-9.19)"/><path class="cls-2" d="M43.13,56H41.34l2-10.78h2.3l2,10.78H45.82l-.33-2.39h-2Zm.6-4h1.49l-.73-4.63h0Z" transform="translate(-9.19)"/><path class="cls-2" d="M49,56V45.19h1.85v9.17h2.91V56Z" transform="translate(-9.19)"/><path class="cls-2" d="M58.1,56V45.19H60v9.17h2.91V56Z" transform="translate(-9.19)"/><path class="cls-2" d="M65.73,56H63.94l2-10.78h2.3L70.2,56H68.41l-.32-2.39h-2Zm.59-4h1.5l-.73-4.63h0Z" transform="translate(-9.19)"/><path class="cls-2" d="M71.62,56V45.19h1.72l2.25,6.17h0V45.19H77.3V56H75.68l-2.35-6.73h0V56Z" transform="translate(-9.19)"/><path class="cls-2" d="M81.64,50.51h3V56h-.9l-.34-.81a2.15,2.15,0,0,1-1.87,1,2.46,2.46,0,0,1-2.47-2.76V47.8A2.55,2.55,0,0,1,81.8,45a2.7,2.7,0,0,1,2.78,3v.68H82.82c0-1.61-.33-2-1.06-2-.45,0-.82.27-.82,1.18v5.54c0,.69.22,1.13.86,1.13s1-.41,1-1.49V52H81.64Z" transform="translate(-9.19)"/><path class="cls-2" d="M86.49,45.19h1.85v8.14c0,.79.31,1.17,1,1.17s1-.38,1-1.17V45.19h1.85v8.06a2.84,2.84,0,1,1-5.67,0Z" transform="translate(-9.19)"/><path class="cls-2" d="M95.16,56H93.37l2-10.78h2.29l2,10.78H97.85l-.33-2.39h-2Zm.6-4h1.49l-.73-4.63h0Z" transform="translate(-9.19)"/><path class="cls-2" d="M103.42,50.51h3V56h-.9l-.34-.81a2.16,2.16,0,0,1-1.87,1,2.47,2.47,0,0,1-2.48-2.76V47.8A2.56,2.56,0,0,1,103.58,45a2.7,2.7,0,0,1,2.78,3v.68H104.6c0-1.61-.33-2-1.06-2-.45,0-.82.27-.82,1.18v5.54c0,.69.22,1.13.86,1.13s1-.41,1-1.49V52h-1.18Z" transform="translate(-9.19)"/><path class="cls-2" d="M108.28,56V45.19h5V46.8h-3.11v2.78h2.39v1.61h-2.39v3.17h3.32V56Z" transform="translate(-9.19)"/><path class="cls-2" d="M16.71,60.12V70.89H15.1V62.48h0L13.4,70.89h-.9l-1.67-8.41h0v8.41H9.19V60.12h2.43l1.31,6.3h0l1.32-6.3Z" transform="translate(-9.19)"/><path class="cls-2" d="M19.87,70.89H18.08l2-10.77h2.3l2,10.77H22.56l-.33-2.38h-2Zm.6-4H22l-.73-4.62h0Z" transform="translate(-9.19)"/><path class="cls-2" d="M25.77,70.89V60.12h1.72l2.25,6.16h0V60.12h1.67V70.89H29.83l-2.36-6.73h0v6.73Z" transform="translate(-9.19)"/><path class="cls-2" d="M33.25,60.12H36c1.91,0,2.93,1,2.93,3.25v4.27c0,2.21-1,3.25-2.93,3.25H33.25Zm1.85,9.25h.64c1,0,1.33-.37,1.33-1.51V63.15c0-1.14-.34-1.51-1.33-1.51H35.1Z" transform="translate(-9.19)"/><path class="cls-2" d="M41.89,70.89H40.1l2-10.77h2.29l2,10.77H44.58l-.33-2.38h-2Zm.6-4H44l-.73-4.62h0Z" transform="translate(-9.19)"/><path class="cls-2" d="M49.64,70.89H47.79V60.12h2.59c2.08,0,3.14.88,3.14,3.18,0,1.73-.67,2.43-1.3,2.71l1.57,4.88H51.91l-1.32-4.46a8.66,8.66,0,0,1-1,0Zm0-5.94h.65c1,0,1.38-.37,1.38-1.65s-.38-1.66-1.38-1.66h-.65Z" transform="translate(-9.19)"/><path class="cls-2" d="M55.52,70.89V60.12h1.85V70.89Z" transform="translate(-9.19)"/><path class="cls-2" d="M59.31,70.89V60.12H61l2.25,6.16h0V60.12H65V70.89H63.37L61,64.16h0v6.73Z" transform="translate(-9.19)"/><path class="cls-2" d="M70.34,70.89V60.12h1.85V70.89Z" transform="translate(-9.19)"/><path class="cls-2" d="M81.61,60.12V70.89H80V62.48h0L78.3,70.89h-.9l-1.67-8.41h0v8.41H74.09V60.12h2.43l1.31,6.3h0l1.32-6.3Z" transform="translate(-9.19)"/><path class="cls-2" d="M90.85,60.12V70.89H89.24V62.48h0l-1.68,8.41h-.89L85,62.48h0v8.41H83.33V60.12h2.43l1.31,6.3h0l1.32-6.3Z" transform="translate(-9.19)"/><path class="cls-2" d="M92.63,70.89V60.12h5v1.61h-3.1v2.78h2.38v1.61H94.48v3.16h3.31v1.61Z" transform="translate(-9.19)"/><path class="cls-2" d="M101.24,70.89H99.39V60.12H102c2.08,0,3.14.88,3.14,3.18,0,1.73-.68,2.43-1.3,2.71l1.57,4.88h-1.88l-1.32-4.46a8.8,8.8,0,0,1-1,0Zm0-5.94h.65c1,0,1.38-.37,1.38-1.65s-.38-1.66-1.38-1.66h-.65Z" transform="translate(-9.19)"/><path class="cls-2" d="M110.37,62.77c-.07-.92-.57-1.19-1-1.19-.6,0-.93.39-.93,1.06,0,1.84,3.76,2.72,3.76,5.64A2.63,2.63,0,0,1,109.3,71a2.84,2.84,0,0,1-2.78-3l1.76-.26c.08,1.09.51,1.63,1.11,1.63a1,1,0,0,0,1.07-1c0-2.14-3.76-2.71-3.76-5.79,0-1.72,1-2.69,2.87-2.69a2.58,2.58,0,0,1,2.56,2.61Z" transform="translate(-9.19)"/><path class="cls-2" d="M113.91,70.89V60.12h1.85V70.89Z" transform="translate(-9.19)"/><path class="cls-2" d="M117.69,62.73a2.84,2.84,0,0,1,5.67,0v5.55a2.84,2.84,0,0,1-5.67,0Zm1.85,5.51c0,.8.23,1.19,1,1.19s1-.39,1-1.19V62.77c0-.8-.24-1.19-1-1.19s-1,.39-1,1.19Z" transform="translate(-9.19)"/><path class="cls-2" d="M125.15,70.89V60.12h1.71l2.26,6.16h0V60.12h1.67V70.89h-1.61l-2.36-6.73h0v6.73Z" transform="translate(-9.19)"/><path class="cls-2" d="M43.94,85.82V75.05H46.6c2.28,0,3.34.88,3.34,3.17S48.88,81.4,46.6,81.4h-.81v4.42Zm1.85-5.94h.72c1.21,0,1.58-.37,1.58-1.66s-.37-1.65-1.58-1.65h-.72Z" transform="translate(-9.19)"/><path class="cls-2" d="M53.39,85.82H51.54V75.05h2.6c2.07,0,3.13.88,3.13,3.17,0,1.73-.67,2.44-1.3,2.72l1.57,4.88H55.66l-1.31-4.46a9.09,9.09,0,0,1-1,0Zm0-5.94h.66c1,0,1.37-.37,1.37-1.66s-.37-1.65-1.37-1.65h-.66Z" transform="translate(-9.19)"/><path class="cls-2" d="M59,77.66a2.84,2.84,0,0,1,5.67,0v5.55a2.84,2.84,0,0,1-5.67,0Zm1.85,5.5c0,.81.24,1.2,1,1.2s1-.39,1-1.2V77.7c0-.8-.23-1.19-1-1.19s-1,.39-1,1.19Z" transform="translate(-9.19)"/><path class="cls-2" d="M69,80.36h3v5.46h-.89L70.79,85a2.14,2.14,0,0,1-1.86,1,2.47,2.47,0,0,1-2.48-2.76V77.66a2.55,2.55,0,0,1,2.72-2.76,2.69,2.69,0,0,1,2.77,2.95v.69H70.18c0-1.61-.33-2-1.06-2-.44,0-.82.27-.82,1.18v5.53c0,.69.23,1.14.87,1.14s1-.42,1-1.5v-1H69Z" transform="translate(-9.19)"/><path class="cls-2" d="M75.72,85.82H73.87V75.05h2.6c2.07,0,3.13.88,3.13,3.17,0,1.73-.67,2.44-1.3,2.72l1.57,4.88H78l-1.31-4.46a9.09,9.09,0,0,1-1,0Zm0-5.94h.66c1,0,1.37-.37,1.37-1.66s-.37-1.65-1.37-1.65h-.66Z" transform="translate(-9.19)"/><path class="cls-2" d="M82.9,85.82H81.11l2-10.77h2.3l2,10.77H85.59l-.33-2.39h-2Zm.6-4H85l-.73-4.63h0Z" transform="translate(-9.19)"/><path class="cls-2" d="M96.26,75.05V85.82H94.65V77.4h0l-1.68,8.42h-.89L90.38,77.4h0v8.42H88.74V75.05h2.43l1.31,6.29h0l1.32-6.29Z" transform="translate(-9.19)"/><path class="cls-3" d="M39.27,89.94h.8l.65,3.57h0l.53-3.57h.91l-1,5.61h-.81l-.7-3.71h0L39,95.55H38.2l-1.07-5.61H38l.59,3.57h0Z" transform="translate(-9.19)"/><path class="cls-3" d="M43.18,95.55V89.94h1v5.61Z" transform="translate(-9.19)"/><path class="cls-3" d="M46,90.78H45.1v-.84h2.83v.84H47v4.77H46Z" transform="translate(-9.19)"/><path class="cls-3" d="M48.83,95.55V89.94h1v2.28h1V89.94h1v5.61h-1V93.06h-1v2.49Z" transform="translate(-9.19)"/><path class="cls-3" d="M53,95.55V89.94h1v5.61Z" transform="translate(-9.19)"/><path class="cls-3" d="M55.11,95.55V89.94H56l1.17,3.21h0V89.94h.87v5.61h-.84L56,92h0v3.51Z" transform="translate(-9.19)"/><path class="cls-3" d="M61.3,95.55h-.94l1-5.61h1.2l1,5.61H62.7l-.17-1.24H61.47Zm.31-2.08h.78L62,91.06h0Z" transform="translate(-9.19)"/><path class="cls-3" d="M65.88,95.55V89.94h1V92h0l1-2.07h1l-1,2.09L69,95.55H68l-.78-2.61h0l-.34.62v2Z" transform="translate(-9.19)"/><path class="cls-3" d="M69.46,93.82V93.1h1.9v.72Z" transform="translate(-9.19)"/><path class="cls-3" d="M72.88,91.1h-.77v-.52a6.1,6.1,0,0,0,1.15-.72h.49v5.69h-.87Z" transform="translate(-9.19)"/><path class="cls-3" d="M75.17,95.55V94.8c1.2-1.75,1.86-2.72,1.86-3.54,0-.45-.18-.64-.44-.64s-.47.24-.47.58v.39h-.91v-.27a1.37,1.37,0,0,1,1.43-1.46,1.25,1.25,0,0,1,1.3,1.24c0,.89-.28,1.54-1.79,3.66h1.71v.79Z" transform="translate(-9.19)"/><path class="cls-3" d="M82.24,91.32c0-.48-.29-.62-.51-.62s-.48.2-.48.55c0,1,2,1.42,2,2.94a1.37,1.37,0,0,1-1.53,1.44,1.47,1.47,0,0,1-1.44-1.55l.91-.14c0,.57.27.85.58.85a.5.5,0,0,0,.56-.51c0-1.11-2-1.41-2-3a1.31,1.31,0,0,1,1.49-1.4,1.34,1.34,0,0,1,1.34,1.36Z" transform="translate(-9.19)"/><path class="cls-3" d="M86.14,91.81v-.43c0-.48-.22-.68-.47-.68s-.51.2-.51.62v2.85c0,.42.12.62.51.62s.47-.2.47-.57v-.67h1v.64a1.33,1.33,0,0,1-1.43,1.44,1.35,1.35,0,0,1-1.48-1.44V91.3a1.35,1.35,0,0,1,1.48-1.44A1.39,1.39,0,0,1,87.1,91.4v.41Z" transform="translate(-9.19)"/><path class="cls-3" d="M88.22,95.55V89.94h1v2.28h1V89.94h1v5.61h-1V93.06h-1v2.49Z" transform="translate(-9.19)"/><path class="cls-3" d="M92.27,91.3a1.48,1.48,0,0,1,3,0v2.89a1.48,1.48,0,0,1-3,0Zm1,2.87c0,.42.12.62.51.62s.52-.2.52-.62V91.32c0-.42-.13-.62-.52-.62s-.51.2-.51.62Z" transform="translate(-9.19)"/><path class="cls-3" d="M96.32,91.3a1.48,1.48,0,0,1,3,0v2.89a1.48,1.48,0,0,1-3,0Zm1,2.87c0,.42.12.62.51.62s.52-.2.52-.62V91.32c0-.42-.13-.62-.52-.62s-.51.2-.51.62Z" transform="translate(-9.19)"/><path class="cls-3" d="M100.36,95.55V89.94h1v4.77h1.52v.84Z" transform="translate(-9.19)"/><g class="cls-4"><path class="cls-5" d="M62,.8a17,17,0,0,1-17,29.41l1-1.66A15.05,15.05,0,0,0,61.08,2.48Z" transform="translate(-9.19)"/></g><polygon class="cls-5" points="37.18 26.06 38.8 27.02 36.49 31.01 34.87 30.07 37.18 26.06"/><polygon class="cls-5" points="52.22 0 49.9 4.01 51.55 4.95 53.86 0.95 52.22 0"/><g class="cls-4"><path class="cls-5" d="M53.55,2.39A13.12,13.12,0,1,1,40.42,15.51,13.12,13.12,0,0,1,53.55,2.39" transform="translate(-9.19)"/><path class="cls-3" d="M53.55,3.46A12,12,0,1,1,41.49,15.51a12,12,0,0,1,12.06-12" transform="translate(-9.19)"/><path class="cls-5" d="M56.82,3.55s.3.67.67.83.84.07.89.32-.11.54-.26.5-.73-.65-.88-.52-.1.46.17.61.69.27.8.54.19.19.21.38-.05.31-.25.46.2.72.56.72.57,0,.69-.44,0-.61.3-.55.52.08.61.21,0,.33.23.34.25-.19.33-.19a.92.92,0,0,1,.55.5c0,.25.27.29.33.17s0-.34.25-.25.91.65.93.94-.08.46-.32.42a.9.9,0,0,0-.52,0c-.32.08-.53-.17-.8-.34S61,8.12,60.79,8s-.53-.52-1.13-.16-.84.4-.84.65a1.29,1.29,0,0,1-.49.86c-.29.25.47,1.53.21,1.91s-.44.5-.19.77a8.83,8.83,0,0,1,1.35,1.62c.23.54,1.24.27,1.51.17s.46-.47.75-.26-.1.26.49.28.6.12.37.5-.44.46-.18.82a1.61,1.61,0,0,1,.48,1.51c-.21.75-.48.52-.38,1.47S63,20,62.59,20.5,62,21.69,62.34,22s.86-.46,1.55-1.41A9.89,9.89,0,0,0,65.42,18a8,8,0,0,0,.36-1.76,12.26,12.26,0,0,0-9-12.73" transform="translate(-9.19)"/><path class="cls-5" d="M54.18,3.21a2.14,2.14,0,0,0-.65.61c-.19.33-.19.34-.36.42s0,.17-.23.12-.35-.42-.46-.56.17-.51-.32-.46-.63.12-.69.19,0,.1.07.31,0,.32-.3.32-.42-.22-.63-.17-.23.17-.35.27-.07.13-.3.19a2.94,2.94,0,0,0-.75.14c-.17.11-.32.22-.36.36s-.13.19,0,.25.38-.06.38.28-.06.4.12.4.45-.17.4-.38.11-.34.3-.38a.36.36,0,0,0,.31-.25c.06-.09.27-.34.44-.19a2.69,2.69,0,0,0,.69.57c.43.23.65.58.51.75s-.21.09-.36,0A.78.78,0,0,0,51,5.9c-.19.12-.42.14-.31.27s.52.44.12.57-.8-.11-.92.12.31.15-.27.51-1.12.5-1.22,1.06-.23.65-.51.76a1.52,1.52,0,0,1-.66.1c-.21,0-.32-.21-.66,0a3,3,0,0,0-1.11,1.19,1.55,1.55,0,0,0-.06,1.15.5.5,0,0,0,.65,0c.19-.21.42-.52.54-.46s0,.4-.12.72-.11.43,0,.46.27-.07.36.14a1.38,1.38,0,0,1,.14.42,3.42,3.42,0,0,0,.13.42c.12.25-.09.23.38.23s.71.05.86-.17.35-.52.56-.48.34.51.82.32a1,1,0,0,1,1.22.23c.25.35.33.4.65.44a1,1,0,0,1,.8.77c0,.32,0,.28-.15.68s-.19.61.19.54.54-.31.84-.19,1,0,1.15.23a.92.92,0,0,0,.52.21.9.9,0,0,1,.68.74c.06.42-.53.94-.84,1.4s-.46.26-.36,1,.08,1.2-.19,1.24-.59-.17-.78.48a2,2,0,0,1-.86,1.28c-.41.27-.62.3-.6.59s0,.52-.42,1-.11,1.68,0,1.87.38.29.24.36-1.12-.4-1.22-1.6a19.07,19.07,0,0,0-.74-2.93c-.06-.47.32-1.12,0-1.56s-1.6-1.11-1.6-1.4a2,2,0,0,0-.16-1.09c-.19-.25-.86-.86-.68-1.43s.38-.88.48-1.3.3-.78,0-.84a4.85,4.85,0,0,0-.69-.1c-.63-.11-.49-.23-.89-.63s-.41-.67-.75-.74-1-.52-1-1,.17-.3.09-.8a7.33,7.33,0,0,0,0-.74c-.08-.18-.12-.56-.23-.35s0,.73-.29.67a.27.27,0,0,1-.19-.42,2.81,2.81,0,0,0,.38-1.07c0-.34-.3-.36.5-1.07s.76-1.28,1.43-1.93,4.28-3.13,8-2.56" transform="translate(-9.19)"/></g><rect class="cls-5" x="42.6" y="31.43" width="3.52" height="6.48"/><g class="cls-4"><path class="cls-5" d="M47.4,35.84H59.7a1.49,1.49,0,0,1,0,3H47.4a1.49,1.49,0,0,1,0-3" transform="translate(-9.19)"/><path class="cls-5" d="M45.39,37.32H61.71a1.48,1.48,0,0,1,1.47,1.49v1.3a.18.18,0,0,1-.17.17H44.07a.17.17,0,0,1-.15-.17v-1.3a1.47,1.47,0,0,1,1.47-1.49" transform="translate(-9.19)"/></g><path class="cls-3" d="M73.2,8.22V2.6h1V4.89h1V2.6h1V8.22h-1V5.73h-1V8.22Z" transform="translate(-9.19)"/><path class="cls-3" d="M78,8.22h-.94l1-5.62h1.2l1,5.62h-.93L79.22,7H78.16Zm.31-2.09h.78l-.39-2.41h0Z" transform="translate(-9.19)"/><path class="cls-3" d="M82.66,2.6h.79l.66,3.58h0l.54-3.58h.9l-1,5.62h-.81l-.7-3.71h0l-.66,3.71h-.81L80.52,2.6h.9L82,6.18h0Z" transform="translate(-9.19)"/><path class="cls-3" d="M86.8,8.22h-.93l1-5.62h1.2l1,5.62H88.2L88,7H87Zm.31-2.09h.78l-.38-2.41h0Z" transform="translate(-9.19)"/><path class="cls-3" d="M90.1,8.22V2.6h1V8.22Z" transform="translate(-9.19)"/><path class="cls-3" d="M92.32,8.22V2.6h1V8.22Z" transform="translate(-9.19)"/><path class="cls-3" d="M95.35,3.52l-.54,1H94.4l.38-1h-.35V2.6h.92Z" transform="translate(-9.19)"/><path class="cls-3" d="M98.22,4c0-.48-.3-.62-.52-.62s-.48.2-.48.55c0,1,2,1.42,2,3A1.38,1.38,0,0,1,97.66,8.3a1.48,1.48,0,0,1-1.45-1.56l.92-.13c0,.57.26.85.57.85a.5.5,0,0,0,.56-.52c0-1.11-2-1.41-2-3a1.32,1.32,0,0,1,1.5-1.4,1.36,1.36,0,0,1,1.34,1.36Z" transform="translate(-9.19)"/><path class="cls-2" d="M76.93,16H73.75V13.77a24.18,24.18,0,0,0,4.77-3h2V34.51H76.93Z" transform="translate(-9.19)"/><path class="cls-2" d="M87.93,13.68c-.08-1-.62-1.3-1.07-1.3-.65,0-1,.42-1,1.15,0,2,4.09,3,4.09,6.13a2.87,2.87,0,0,1-3.18,3,3.08,3.08,0,0,1-3-3.24l1.92-.28c.08,1.19.55,1.77,1.2,1.77A1,1,0,0,0,88,19.84c0-2.32-4.08-2.93-4.08-6.29,0-1.87,1.13-2.92,3.11-2.92,1.64,0,2.61,1.18,2.79,2.84Z" transform="translate(-9.19)"/><path class="cls-2" d="M93.1,12.54H91.16V10.79h5.9v1.75h-2v10h-2Z" transform="translate(-9.19)"/><path class="cls-3" d="M83.91,30.42H83l1-5.62h1.2l1,5.62h-.93l-.17-1.25H84.08Zm.31-2.09H85l-.38-2.41h0Z" transform="translate(-9.19)"/><path class="cls-3" d="M87.14,30.42V24.8H88L89.21,28h0V24.8h.87v5.62h-.84L88,26.91h0v3.51Z" transform="translate(-9.19)"/><path class="cls-3" d="M91.21,24.8h1.43c1,0,1.53.54,1.53,1.7v2.22c0,1.15-.53,1.7-1.53,1.7H91.21Zm1,4.83h.33c.52,0,.69-.2.69-.79V26.38c0-.59-.17-.79-.69-.79h-.33Z" transform="translate(-9.19)"/><path class="cls-3" d="M83.35,34a1.48,1.48,0,0,1,3,0v2.89a1.48,1.48,0,0,1-3,0Zm1,2.87c0,.42.13.62.52.62s.51-.2.51-.62V34c0-.42-.12-.62-.51-.62s-.52.2-.52.62Z" transform="translate(-9.19)"/><path class="cls-3" d="M87.4,38.21V32.59h.9l1.17,3.21h0V32.59h.87v5.62h-.84L88.29,34.7h0v3.51Z" transform="translate(-9.19)"/><path class="cls-3" d="M91.45,38.21V32.59h1v4.78h1.52v.84Z" transform="translate(-9.19)"/><path class="cls-3" d="M96.23,38.21h-1V35.87L94.1,32.59h1l.68,2.14h0l.64-2.14h1l-1.17,3.28Z" transform="translate(-9.19)"/></g></g></svg>