<svg xmlns="http://www.w3.org/2000/svg" xmlns:xlink="http://www.w3.org/1999/xlink" viewBox="0 0 126.67 97.39"><defs><style>.cls-1{fill:none;}.cls-2,.cls-22{font-size:14.93px;}.cls-2,.cls-22,.cls-49,.cls-50{fill:#ffc841;}.cls-2,.cls-22,.cls-25,.cls-49,.cls-50,.cls-52{font-family:TradeGothicLTStd-BdCn20, Trade Gothic LT Std;}.cls-3{letter-spacing:0em;}.cls-4{letter-spacing:0.01em;}.cls-5{letter-spacing:0.03em;}.cls-6{letter-spacing:0.04em;}.cls-7{letter-spacing:0.02em;}.cls-8{letter-spacing:0em;}.cls-9{letter-spacing:0em;}.cls-10,.cls-22{letter-spacing:0.01em;}.cls-11{letter-spacing:0.01em;}.cls-12{letter-spacing:0em;}.cls-13{letter-spacing:0em;}.cls-14{letter-spacing:0.01em;}.cls-15{letter-spacing:0.02em;}.cls-16{letter-spacing:-0.01em;}.cls-17{letter-spacing:0em;}.cls-18{letter-spacing:0.01em;}.cls-19{letter-spacing:0.01em;}.cls-20{letter-spacing:0em;}.cls-21{letter-spacing:-0.01em;}.cls-23{letter-spacing:0.03em;}.cls-24{letter-spacing:0em;}.cls-25,.cls-52{font-size:7.79px;}.cls-25,.cls-41,.cls-52{fill:#fff;}.cls-26{letter-spacing:0.03em;}.cls-27{letter-spacing:0.03em;}.cls-28{letter-spacing:0.04em;}.cls-29{letter-spacing:0.02em;}.cls-30{letter-spacing:0.01em;}.cls-31{letter-spacing:0em;}.cls-32{letter-spacing:0.03em;}.cls-33{letter-spacing:-0.03em;}.cls-34{letter-spacing:-0.02em;}.cls-35{letter-spacing:0.02em;}.cls-36{letter-spacing:0.02em;}.cls-37{letter-spacing:0.02em;}.cls-38{letter-spacing:0.02em;}.cls-39{clip-path:url(#clip-path);}.cls-40{fill:#231f20;}.cls-42{letter-spacing:0.04em;}.cls-43{letter-spacing:0.01em;}.cls-44{letter-spacing:0.01em;}.cls-45{letter-spacing:0.03em;}.cls-46{letter-spacing:0.01em;}.cls-47{letter-spacing:0.02em;}.cls-48{letter-spacing:0.03em;}.cls-49{font-size:32.45px;}.cls-50{font-size:16.22px;}.cls-51{letter-spacing:0.03em;}.cls-52{letter-spacing:0.04em;}.cls-53{letter-spacing:0.02em;}.cls-54{letter-spacing:0.02em;}.cls-55{letter-spacing:0.03em;}.cls-56{letter-spacing:-0.01em;}</style><clipPath id="clip-path" transform="translate(-8.4)"><rect class="cls-1" width="140.15" height="99.43"/></clipPath></defs><g id="Layer_2" data-name="Layer 2"><g id="Layer_1-2" data-name="Layer 1"><text class="cls-2" transform="translate(17.7 55.97)"><tspan class="cls-3">D</tspan><tspan class="cls-4" x="7.45" y="0">U</tspan><tspan class="cls-5" x="15.06" y="0">A</tspan><tspan x="22.08" y="0">L </tspan><tspan class="cls-6" x="31.2" y="0">L</tspan><tspan class="cls-7" x="37.66" y="0">A</tspan><tspan class="cls-8" x="44.63" y="0">N</tspan><tspan class="cls-9" x="52.09" y="0">G</tspan><tspan class="cls-10" x="59.5" y="0">U</tspan><tspan class="cls-11" x="67.09" y="0">A</tspan><tspan class="cls-12" x="73.87" y="0">G</tspan><tspan x="81.29" y="0" xml:space="preserve">E  </tspan></text><text class="cls-2" transform="translate(0 70.89)"><tspan class="cls-5">M</tspan><tspan class="cls-7" x="9.51" y="0">A</tspan><tspan class="cls-13" x="16.48" y="0">N</tspan><tspan class="cls-14" x="23.96" y="0">D</tspan><tspan class="cls-15" x="31.52" y="0">A</tspan><tspan class="cls-13" x="38.49" y="0">R</tspan><tspan class="cls-16" x="45.97" y="0">I</tspan><tspan class="cls-8" x="50.02" y="0">N </tspan><tspan class="cls-17" x="60.79" y="0">I</tspan><tspan class="cls-18" x="64.9" y="0">M</tspan><tspan class="cls-19" x="74.14" y="0">M</tspan><tspan class="cls-10" x="83.33" y="0">E</tspan><tspan class="cls-4" x="90.09" y="0">R</tspan><tspan class="cls-20" x="97.71" y="0">S</tspan><tspan class="cls-21" x="104.36" y="0">I</tspan><tspan x="108.39" y="0">ON</tspan></text><text class="cls-2" transform="translate(123.36 70.89)"> </text><text class="cls-22" transform="translate(34.65 85.82)">P<tspan class="cls-8" x="7.6" y="0">R</tspan><tspan class="cls-3" x="15.06" y="0">O</tspan><tspan class="cls-12" x="22.51" y="0">G</tspan><tspan class="cls-23" x="29.93" y="0">R</tspan><tspan class="cls-5" x="37.88" y="0">A</tspan><tspan class="cls-24" x="44.9" y="0">M</tspan></text><text class="cls-2" transform="translate(88.71 85.82)"> </text><text class="cls-25" transform="translate(28.74 95.55)"><tspan class="cls-26">W</tspan><tspan class="cls-27" x="5.44" y="0">I</tspan><tspan class="cls-28" x="7.87" y="0">T</tspan><tspan class="cls-29" x="11.23" y="0">H</tspan><tspan class="cls-30" x="15.24" y="0">I</tspan><tspan class="cls-31" x="17.51" y="0">N A </tspan><tspan class="cls-32" x="28.32" y="0">K</tspan><tspan class="cls-33" x="31.98" y="0">-</tspan><tspan class="cls-34" x="34.37" y="0">1</tspan><tspan x="37.7" y="0">2 </tspan><tspan class="cls-26" x="42.89" y="0">S</tspan><tspan class="cls-35" x="46.59" y="0">C</tspan><tspan class="cls-36" x="50.62" y="0">H</tspan><tspan class="cls-37" x="54.68" y="0">O</tspan><tspan class="cls-38" x="58.73" y="0">O</tspan><tspan x="62.81" y="0">L</tspan></text><g class="cls-39"><path class="cls-40" d="M62,.8a17,17,0,0,1-17,29.41l1-1.66A15.05,15.05,0,0,0,61.08,2.48Z" transform="translate(-8.4)"/></g><polygon class="cls-40" points="37.97 26.06 39.59 27.02 37.28 31.01 35.66 30.07 37.97 26.06"/><polygon class="cls-40" points="53.01 0 50.69 4.01 52.34 4.95 54.65 0.95 53.01 0"/><g class="cls-39"><path class="cls-40" d="M53.55,2.39A13.12,13.12,0,1,1,40.42,15.51,13.12,13.12,0,0,1,53.55,2.39" transform="translate(-8.4)"/><path class="cls-41" d="M53.55,3.46A12,12,0,1,1,41.49,15.51a12,12,0,0,1,12.06-12" transform="translate(-8.4)"/><path class="cls-40" d="M56.82,3.55s.3.67.67.83.84.07.89.32-.11.54-.26.5-.73-.65-.88-.52-.1.46.17.61.69.27.8.54.19.19.21.38-.05.31-.25.46.2.72.56.72.57,0,.69-.44,0-.61.3-.55.52.08.61.21,0,.33.23.34.25-.19.33-.19a.92.92,0,0,1,.55.5c0,.25.27.29.33.17s0-.34.25-.25.91.65.93.94-.08.46-.32.42a.9.9,0,0,0-.52,0c-.32.08-.53-.17-.8-.34S61,8.12,60.79,8s-.53-.52-1.13-.16-.84.4-.84.65a1.29,1.29,0,0,1-.49.86c-.29.25.47,1.53.21,1.91s-.44.5-.19.77a8.83,8.83,0,0,1,1.35,1.62c.23.54,1.24.27,1.51.17s.46-.47.75-.26-.1.26.49.28.6.12.37.5-.44.46-.18.82a1.61,1.61,0,0,1,.48,1.51c-.21.75-.48.52-.38,1.47S63,20,62.59,20.5,62,21.69,62.34,22s.86-.46,1.55-1.41A9.89,9.89,0,0,0,65.42,18a8,8,0,0,0,.36-1.76,12.26,12.26,0,0,0-9-12.73" transform="translate(-8.4)"/><path class="cls-40" d="M54.18,3.21a2.14,2.14,0,0,0-.65.61c-.19.33-.19.34-.36.42s0,.17-.23.12-.35-.42-.46-.56.17-.51-.32-.46-.63.12-.69.19,0,.1.07.31,0,.32-.3.32-.42-.22-.63-.17-.23.17-.35.27-.07.13-.3.19a2.94,2.94,0,0,0-.75.14c-.17.11-.32.22-.36.36s-.13.19,0,.25.38-.06.38.28-.06.4.12.4.45-.17.4-.38.11-.34.3-.38a.36.36,0,0,0,.31-.25c.06-.09.27-.34.44-.19a2.69,2.69,0,0,0,.69.57c.43.23.65.58.51.75s-.21.09-.36,0A.78.78,0,0,0,51,5.9c-.19.12-.42.14-.31.27s.52.44.12.57-.8-.11-.92.12.31.15-.27.51-1.12.5-1.22,1.06-.23.65-.51.76a1.52,1.52,0,0,1-.66.1c-.21,0-.32-.21-.66,0a3,3,0,0,0-1.11,1.19,1.55,1.55,0,0,0-.06,1.15.5.5,0,0,0,.65,0c.19-.21.42-.52.54-.46s0,.4-.12.72-.11.43,0,.46.27-.07.36.14a1.38,1.38,0,0,1,.14.42,3.42,3.42,0,0,0,.13.42c.12.25-.09.23.38.23s.71.05.86-.17.35-.52.56-.48.34.51.82.32a1,1,0,0,1,1.22.23c.25.35.33.4.65.44a1,1,0,0,1,.8.77c0,.32,0,.28-.15.68s-.19.61.19.54.54-.31.84-.19,1,0,1.15.23a.92.92,0,0,0,.52.21.9.9,0,0,1,.68.74c.06.42-.53.94-.84,1.4s-.46.26-.36,1,.08,1.2-.19,1.24-.59-.17-.78.48a2,2,0,0,1-.86,1.28c-.41.27-.62.3-.6.59s0,.52-.42,1-.11,1.68,0,1.87.38.29.24.36-1.12-.4-1.22-1.6a19.07,19.07,0,0,0-.74-2.93c-.06-.47.32-1.12,0-1.56s-1.6-1.11-1.6-1.4a2,2,0,0,0-.16-1.09c-.19-.25-.86-.86-.68-1.43s.38-.88.48-1.3.3-.78,0-.84a4.85,4.85,0,0,0-.69-.1c-.63-.11-.49-.23-.89-.63s-.41-.67-.75-.74-1-.52-1-1,.17-.3.09-.8a7.33,7.33,0,0,0,0-.74c-.08-.18-.12-.56-.23-.35s0,.73-.29.67a.27.27,0,0,1-.19-.42,2.81,2.81,0,0,0,.38-1.07c0-.34-.3-.36.5-1.07s.76-1.28,1.43-1.93,4.28-3.13,8-2.56" transform="translate(-8.4)"/></g><rect class="cls-40" x="43.4" y="31.43" width="3.52" height="6.48"/><g class="cls-39"><path class="cls-40" d="M47.4,35.84H59.7a1.49,1.49,0,0,1,0,3H47.4a1.49,1.49,0,0,1,0-3" transform="translate(-8.4)"/><path class="cls-40" d="M45.39,37.32H61.71a1.48,1.48,0,0,1,1.47,1.49v1.3a.18.18,0,0,1-.17.17H44.07a.17.17,0,0,1-.15-.17v-1.3a1.47,1.47,0,0,1,1.47-1.49" transform="translate(-8.4)"/></g><text class="cls-25" transform="translate(64.33 8.22)"><tspan class="cls-42">H</tspan><tspan class="cls-43" x="4.23" y="0">A</tspan><tspan class="cls-44" x="7.79" y="0">W</tspan><tspan class="cls-45" x="13.04" y="0">A</tspan><tspan class="cls-46" x="16.77" y="0">I</tspan><tspan class="cls-47" x="18.99" y="0">I</tspan><tspan class="cls-48" x="21.29" y="0">’</tspan><tspan x="23.26" y="0">S</tspan></text><text class="cls-49" transform="translate(62.79 34.51)">1</text><text class="cls-50" transform="translate(74.89 22.5)"><tspan class="cls-51">S</tspan><tspan x="7.67" y="0">T</tspan></text><text class="cls-52" transform="translate(74.48 30.42)">A<tspan class="cls-53" x="3.79" y="0">N</tspan><tspan class="cls-31" x="7.87" y="0">D </tspan></text><text class="cls-25" transform="translate(87.98 30.42)"> </text><text class="cls-25" transform="translate(74.48 38.21)"><tspan class="cls-54">O</tspan><tspan class="cls-55" x="4.06" y="0">N</tspan><tspan class="cls-56" x="8.15" y="0">L</tspan><tspan x="11.14" y="0">Y</tspan></text></g></g></svg>