<svg xmlns="http://www.w3.org/2000/svg" xmlns:xlink="http://www.w3.org/1999/xlink" viewBox="0 0 108.8 62.84"><defs><style>.cls-1{fill:none;}.cls-2{fill:#fff;}.cls-3{clip-path:url(#clip-path);}.cls-4{fill:#ffc841;}</style><clipPath id="clip-path" transform="translate(-2.57 0.26)"><rect class="cls-1" width="113.89" height="77.55"/></clipPath></defs><g id="Layer_2" data-name="Layer 2"><g id="Layer_1-2" data-name="Layer 1"><path class="cls-2" d="M12.61,52.77V47.15h1v5.62Z" transform="translate(-2.57 0.26)"/><path class="cls-2" d="M14.75,52.77V47.15h.89l1.18,3.21h0V47.15h.87v5.62h-.84l-1.23-3.51h0v3.51Z" transform="translate(-2.57 0.26)"/><path class="cls-2" d="M20.37,52.77V47.15h2.69V48H21.33v1.45h1.3v.84h-1.3v2.49Z" transform="translate(-2.57 0.26)"/><path class="cls-2" d="M24.13,52.77V47.15h1v5.62Z" transform="translate(-2.57 0.26)"/><path class="cls-2" d="M26.27,52.77V47.15h.9l1.17,3.21h0V47.15h.87v5.62h-.84l-1.23-3.51h0v3.51Z" transform="translate(-2.57 0.26)"/><path class="cls-2" d="M31.06,52.77h-.93l1-5.62h1.2l1,5.62h-.94l-.17-1.25H31.23Zm.31-2.09h.78l-.38-2.41h0Z" transform="translate(-2.57 0.26)"/><path class="cls-2" d="M34.29,52.77V47.15h.9l1.17,3.21h0V47.15h.87v5.62h-.84l-1.23-3.51h0v3.51Z" transform="translate(-2.57 0.26)"/><path class="cls-2" d="M40.3,49v-.43c0-.48-.22-.68-.47-.68s-.51.2-.51.62v2.85c0,.42.12.63.51.63s.47-.21.47-.57v-.68h1v.65a1.33,1.33,0,0,1-1.43,1.44,1.35,1.35,0,0,1-1.48-1.44v-2.9a1.35,1.35,0,0,1,1.48-1.44,1.39,1.39,0,0,1,1.43,1.54V49Z" transform="translate(-2.57 0.26)"/><path class="cls-2" d="M42.46,52.77V47.15h1v5.62Z" transform="translate(-2.57 0.26)"/><path class="cls-2" d="M45.31,52.77h-.93l1-5.62h1.2l1,5.62h-.94l-.17-1.25H45.48Zm.31-2.09h.78L46,48.27h0Z" transform="translate(-2.57 0.26)"/><path class="cls-2" d="M48.51,52.77V47.15h1v4.78H51v.84Z" transform="translate(-2.57 0.26)"/><path class="cls-2" d="M53.88,52.77H53l1-5.62h1.2l1,5.62h-.93l-.17-1.25H54.05Zm.31-2.09H55l-.38-2.41h0Z" transform="translate(-2.57 0.26)"/><path class="cls-2" d="M57.18,52.77V47.15h1v5.62Z" transform="translate(-2.57 0.26)"/><path class="cls-2" d="M59.32,47.15h1.43c1,0,1.53.54,1.53,1.7v2.22c0,1.15-.53,1.7-1.53,1.7H59.32Zm1,4.82h.33c.52,0,.69-.19.69-.78V48.73c0-.59-.17-.79-.69-.79h-.33Z" transform="translate(-2.57 0.26)"/><path class="cls-2" d="M65.51,52.77h-.94l1-5.62H66.8l1,5.62h-.93l-.17-1.25H65.68Zm.31-2.09h.78l-.39-2.41h0Z" transform="translate(-2.57 0.26)"/><path class="cls-2" d="M70.18,47.15H71l.65,3.58h0l.54-3.58h.9l-1,5.62h-.81l-.7-3.71h0l-.66,3.71H69.1L68,47.15h.9l.59,3.58h0Z" transform="translate(-2.57 0.26)"/><path class="cls-2" d="M74.32,52.77h-.93l1-5.62h1.2l1,5.62h-.94l-.17-1.25H74.49Zm.31-2.09h.78L75,48.27h0Z" transform="translate(-2.57 0.26)"/><path class="cls-2" d="M78.52,52.77h-1V47.15h1.36c1.08,0,1.63.46,1.63,1.66,0,.9-.35,1.27-.68,1.41l.82,2.55h-1L79,50.44a3.86,3.86,0,0,1-.5,0Zm0-3.1h.34c.52,0,.72-.19.72-.86s-.2-.87-.72-.87h-.34Z" transform="translate(-2.57 0.26)"/><path class="cls-2" d="M81.68,47.15h1.43c1,0,1.53.54,1.53,1.7v2.22c0,1.15-.53,1.7-1.53,1.7H81.68Zm1,4.82H83c.51,0,.69-.19.69-.78V48.73c0-.59-.18-.79-.69-.79h-.33Z" transform="translate(-2.57 0.26)"/><path class="cls-2" d="M85.73,52.77V47.15h2.58V48H86.7v1.45h1.24v.84H86.7v1.65h1.72v.84Z" transform="translate(-2.57 0.26)"/><path class="cls-2" d="M89.42,47.15h1.43c1,0,1.53.54,1.53,1.7v2.22c0,1.15-.53,1.7-1.53,1.7H89.42Zm1,4.82h.33c.51,0,.69-.19.69-.78V48.73c0-.59-.18-.79-.69-.79h-.33Z" transform="translate(-2.57 0.26)"/><path class="cls-2" d="M95.6,48h-.93v-.84H97.5V48h-.93v4.78h-1Z" transform="translate(-2.57 0.26)"/><path class="cls-2" d="M98.38,48.51a1.48,1.48,0,0,1,3,0v2.9a1.48,1.48,0,0,1-3,0Zm1,2.87c0,.42.13.63.52.63s.51-.21.51-.63V48.53c0-.42-.13-.62-.51-.62s-.52.2-.52.62Z" transform="translate(-2.57 0.26)"/><path class="cls-2" d="M6.49,56.88V62.5H5.65V58.11h0L4.76,62.5H4.3l-.88-4.39h0V62.5H2.57V56.88H3.84l.68,3.29h0l.68-3.29Z" transform="translate(-2.57 0.26)"/><path class="cls-2" d="M8.29,62.5H7.36l1-5.62h1.2l1,5.62H9.69l-.17-1.24H8.46Zm.31-2.08h.78L9,58H9Z" transform="translate(-2.57 0.26)"/><path class="cls-2" d="M12.49,62.5h-1V56.88h1.36c1.08,0,1.63.46,1.63,1.66,0,.9-.35,1.27-.68,1.42l.82,2.54h-1L13,60.17a3.73,3.73,0,0,1-.5,0Zm0-3.1h.34c.52,0,.72-.19.72-.86s-.2-.86-.72-.86h-.34Z" transform="translate(-2.57 0.26)"/><path class="cls-2" d="M17.34,62.5h-1V60.17l-1.16-3.29h1L16.87,59h0l.65-2.14h1l-1.17,3.29Z" transform="translate(-2.57 0.26)"/><path class="cls-2" d="M19.37,62.5V56.88h1V59h0l1-2.08h1l-1,2.1,1.17,3.52h-1l-.78-2.61h0l-.34.62v2Z" transform="translate(-2.57 0.26)"/><path class="cls-2" d="M23.27,62.5V56.88h.89l1.18,3.22h0V56.88h.87V62.5h-.84L24.15,59h0V62.5Z" transform="translate(-2.57 0.26)"/><path class="cls-2" d="M27.33,58.25a1.48,1.48,0,0,1,3,0v2.89a1.48,1.48,0,0,1-3,0Zm1,2.87c0,.42.12.62.51.62s.51-.2.51-.62V58.27c0-.42-.12-.62-.51-.62s-.51.2-.51.62Z" transform="translate(-2.57 0.26)"/><path class="cls-2" d="M31.37,62.5V56.88h1v4.78h1.52v.84Z" transform="translate(-2.57 0.26)"/><path class="cls-2" d="M34.73,62.5V56.88h1v4.78h1.51v.84Z" transform="translate(-2.57 0.26)"/><path class="cls-2" d="M41.29,58.27c0-.48-.29-.62-.51-.62s-.48.2-.48.55c0,1,2,1.42,2,2.94a1.37,1.37,0,0,1-1.53,1.44A1.48,1.48,0,0,1,39.29,61l.91-.13c0,.57.27.85.58.85a.49.49,0,0,0,.56-.51c0-1.12-2-1.41-2-3a1.31,1.31,0,0,1,1.49-1.4,1.34,1.34,0,0,1,1.34,1.36Z" transform="translate(-2.57 0.26)"/><path class="cls-2" d="M43.93,57.72H43v-.84h2.83v.84h-.93V62.5h-1Z" transform="translate(-2.57 0.26)"/><path class="cls-2" d="M46.72,56.88h1v4.25c0,.41.16.61.51.61s.51-.2.51-.61V56.88h1v4.21a1.48,1.48,0,1,1-3,0Z" transform="translate(-2.57 0.26)"/><path class="cls-2" d="M50.8,56.88h1.43c1,0,1.52.55,1.52,1.7v2.23c0,1.15-.53,1.69-1.52,1.69H50.8Zm1,4.83h.34c.51,0,.69-.2.69-.79V58.46c0-.59-.18-.78-.69-.78h-.34Z" transform="translate(-2.57 0.26)"/><path class="cls-2" d="M54.85,62.5V56.88h2.58v.84H55.81v1.45h1.25V60H55.81v1.65h1.73v.84Z" transform="translate(-2.57 0.26)"/><path class="cls-2" d="M58.54,62.5V56.88h.89l1.18,3.22h0V56.88h.87V62.5h-.84L59.42,59h0V62.5Z" transform="translate(-2.57 0.26)"/><path class="cls-2" d="M63.33,57.72h-.94v-.84h2.83v.84h-.93V62.5h-1Z" transform="translate(-2.57 0.26)"/><path class="cls-2" d="M67.93,58.27c0-.48-.29-.62-.51-.62s-.48.2-.48.55c0,1,2,1.42,2,2.94a1.37,1.37,0,0,1-1.53,1.44A1.48,1.48,0,0,1,65.93,61l.92-.13c0,.57.26.85.57.85a.49.49,0,0,0,.56-.51c0-1.12-2-1.41-2-3a1.32,1.32,0,0,1,1.49-1.4,1.34,1.34,0,0,1,1.34,1.36Z" transform="translate(-2.57 0.26)"/><path class="cls-2" d="M71.92,62.5H71l1-5.62h1.2l1,5.62h-.94l-.17-1.24H72.09Zm.31-2.08H73L72.63,58h0Z" transform="translate(-2.57 0.26)"/><path class="cls-2" d="M75.15,62.5V56.88h.9l1.17,3.22h0V56.88h.87V62.5h-.84L76,59h0V62.5Z" transform="translate(-2.57 0.26)"/><path class="cls-2" d="M79.23,56.88h1.43c1,0,1.52.55,1.52,1.7v2.23c0,1.15-.52,1.69-1.52,1.69H79.23Zm1,4.83h.34c.51,0,.69-.2.69-.79V58.46c0-.59-.18-.78-.69-.78h-.34Z" transform="translate(-2.57 0.26)"/><path class="cls-2" d="M84.85,62.5V56.88h2.69v.84H85.82v1.45h1.29V60H85.82V62.5Z" transform="translate(-2.57 0.26)"/><path class="cls-2" d="M88.88,62.5h-.94l1-5.62h1.2l1,5.62h-.93l-.17-1.24H89.05Zm.31-2.08H90L89.58,58h0Z" transform="translate(-2.57 0.26)"/><path class="cls-2" d="M96,56.88V62.5h-.84V58.11h0l-.87,4.39H93.8l-.87-4.39h0V62.5h-.84V56.88h1.27L94,60.17h0l.68-3.29Z" transform="translate(-2.57 0.26)"/><path class="cls-2" d="M97.16,62.5V56.88h1V62.5Z" transform="translate(-2.57 0.26)"/><path class="cls-2" d="M99.28,62.5V56.88h1v4.78h1.51v.84Z" transform="translate(-2.57 0.26)"/><path class="cls-2" d="M102.74,62.5V56.88h1V62.5Z" transform="translate(-2.57 0.26)"/><path class="cls-2" d="M104.88,62.5V56.88h2.58v.84h-1.62v1.45h1.25V60h-1.25v1.65h1.73v.84Z" transform="translate(-2.57 0.26)"/><path class="cls-2" d="M110.4,58.27c0-.48-.3-.62-.51-.62s-.49.2-.49.55c0,1,2,1.42,2,2.94a1.37,1.37,0,0,1-1.52,1.44A1.48,1.48,0,0,1,108.39,61l.92-.13c0,.57.26.85.58.85a.5.5,0,0,0,.56-.51c0-1.12-2-1.41-2-3a1.31,1.31,0,0,1,1.49-1.4,1.35,1.35,0,0,1,1.34,1.36Z" transform="translate(-2.57 0.26)"/><g class="cls-3"><path class="cls-4" d="M33.57,4.54c0-2.64,1.56-4.8,4.93-4.8s4.93,2.16,4.93,4.8V14.2c0,2.65-1.55,4.8-4.93,4.8s-4.93-2.15-4.93-4.8Zm3.22,9.58c0,1.4.41,2.08,1.71,2.08s1.72-.68,1.72-2.08V4.62c0-1.4-.42-2.07-1.72-2.07s-1.71.67-1.71,2.07Z" transform="translate(-2.57 0.26)"/><path class="cls-4" d="M53.27,0h3.17L52.52,18.74H49.3L45.38,0h3.17l2.34,13h0Z" transform="translate(-2.57 0.26)"/><path class="cls-4" d="M58.75,18.74V0h8.62V2.8H62V7.63h4.15v2.81H62v5.5h5.76v2.8Z" transform="translate(-2.57 0.26)"/><path class="cls-4" d="M73.62,18.74H70.41V0h4.51c3.61,0,5.45,1.53,5.45,5.53,0,3-1.17,4.23-2.25,4.72l2.72,8.49H77.57L75.29,11a16.11,16.11,0,0,1-1.67.08Zm0-10.33h1.15c1.74,0,2.38-.65,2.38-2.88s-.64-2.88-2.38-2.88H73.62Z" transform="translate(-2.57 0.26)"/><path class="cls-4" d="M9.16,21.73h1.56V24a5.85,5.85,0,0,1,3.61,2.37l-2,1.68a2.73,2.73,0,0,0-1.64-1.5v5.37c2.21,1.4,4.21,2.88,4.21,5.79,0,2.59-1.48,4.8-4.21,5v3H9.16v-3A6,6,0,0,1,5,39.82l2.15-1.64a3.26,3.26,0,0,0,2.05,2.08v-6.1c-2-1.22-3.94-2.83-3.94-5.34A4.54,4.54,0,0,1,9.16,24Zm0,4.83a2,2,0,0,0-1.29,1.92,3.26,3.26,0,0,0,1.29,2.59Zm1.56,13.7a2.26,2.26,0,0,0,1.45-2.41,3.35,3.35,0,0,0-1.45-2.7Z" transform="translate(-2.57 0.26)"/><path class="cls-4" d="M20.22,37.33V38.6c0,1.17.47,1.87,1.45,1.87s1.54-.65,1.54-2.21V36.84c0-2-.78-2.65-2.76-2.65V31.64c1.9,0,2.63-.62,2.63-2.85,0-1.77-.34-2.49-1.3-2.49s-1.46.44-1.46,1.92V29h-2.9v-.89a4.08,4.08,0,0,1,4.38-4.36c2.78,0,4.18,2.31,4.18,4.81,0,2.18-.36,3.4-2,4.3,1.89,1,2.31,2.11,2.31,4.65,0,3.74-1.48,5.5-4.67,5.5-2.68,0-4.29-1.35-4.29-4.57V37.33Z" transform="translate(-2.57 0.26)"/><path class="cls-4" d="M47.87,24V42.75H45.06V28.11H45L42.1,42.75H40.55L37.64,28.11h0V42.75H34.78V24H39L41.3,35h.05l2.29-11Z" transform="translate(-2.57 0.26)"/><path class="cls-4" d="M51.09,42.75V24H54.3V42.75Z" transform="translate(-2.57 0.26)"/><path class="cls-4" d="M57.5,42.75V24h3.22V40h5.06v2.8Z" transform="translate(-2.57 0.26)"/><path class="cls-4" d="M68.09,42.75V24h3.22V40h5.06v2.8Z" transform="translate(-2.57 0.26)"/><path class="cls-4" d="M79,42.75V24h3.21V42.75Z" transform="translate(-2.57 0.26)"/><path class="cls-4" d="M85.4,28.56c0-2.65,1.56-4.81,4.93-4.81s4.94,2.16,4.94,4.81v9.65c0,2.65-1.56,4.8-4.94,4.8s-4.93-2.15-4.93-4.8Zm3.22,9.57c0,1.4.42,2.08,1.71,2.08s1.72-.68,1.72-2.08v-9.5c0-1.4-.42-2.07-1.72-2.07s-1.71.67-1.71,2.07Z" transform="translate(-2.57 0.26)"/><path class="cls-4" d="M98.3,42.75V24h3l3.92,10.72h.05V24h2.91V42.75h-2.81l-4.1-11.7h-.05v11.7Z" transform="translate(-2.57 0.26)"/></g></g></g></svg>