<svg xmlns="http://www.w3.org/2000/svg" xmlns:xlink="http://www.w3.org/1999/xlink" viewBox="0 0 113.33 67.14"><defs><style>.cls-1{fill:none;}.cls-2{font-size:7.79px;fill:#fff;}.cls-2,.cls-34,.cls-38{font-family:TradeGothicLTStd-BdCn20, Trade Gothic LT Std;}.cls-3{letter-spacing:0.01em;}.cls-4{letter-spacing:0em;}.cls-5{letter-spacing:0.02em;}.cls-6{letter-spacing:0.04em;}.cls-7{letter-spacing:0.02em;}.cls-8{letter-spacing:0.01em;}.cls-9{letter-spacing:0.03em;}.cls-10{letter-spacing:0.05em;}.cls-11{letter-spacing:0.03em;}.cls-12{letter-spacing:0.01em;}.cls-13{letter-spacing:0.01em;}.cls-14{letter-spacing:0.04em;}.cls-15{letter-spacing:0.03em;}.cls-16{letter-spacing:0.02em;}.cls-17{letter-spacing:0.03em;}.cls-18{letter-spacing:0.04em;}.cls-19{letter-spacing:0.04em;}.cls-20{letter-spacing:0.02em;}.cls-21{letter-spacing:0.05em;}.cls-22{letter-spacing:0.05em;}.cls-23{letter-spacing:0.02em;}.cls-24{letter-spacing:0.05em;}.cls-25{letter-spacing:0.04em;}.cls-26{letter-spacing:0.02em;}.cls-27{letter-spacing:0.05em;}.cls-28{letter-spacing:0em;}.cls-29{letter-spacing:0.05em;}.cls-30{letter-spacing:0.02em;}.cls-31{letter-spacing:0.02em;}.cls-32{letter-spacing:0.03em;}.cls-33{clip-path:url(#clip-path);}.cls-34,.cls-38{font-size:25.96px;fill:#ffc841;}.cls-34{letter-spacing:0.01em;}.cls-35{letter-spacing:0.02em;}.cls-36{letter-spacing:0.01em;}.cls-37{letter-spacing:0em;}.cls-39{letter-spacing:0.02em;}.cls-40{letter-spacing:-0.01em;}.cls-41{letter-spacing:-0.01em;}.cls-42{letter-spacing:0.02em;}.cls-43{letter-spacing:0.01em;}.cls-44{letter-spacing:-0.01em;}.cls-45{letter-spacing:0em;}</style><clipPath id="clip-path" transform="translate(-2.16 2.8)"><rect class="cls-1" width="113.89" height="77.55"/></clipPath></defs><g id="Layer_2" data-name="Layer 2"><g id="Layer_1-2" data-name="Layer 1"><text class="cls-2" transform="translate(9.85 55.57)"><tspan class="cls-3">I</tspan><tspan class="cls-4" x="2.27" y="0">N </tspan><tspan class="cls-5" x="7.9" y="0">F</tspan><tspan class="cls-3" x="11.53" y="0">I</tspan><tspan class="cls-6" x="13.8" y="0">NA</tspan><tspan class="cls-7" x="21.82" y="0">N</tspan><tspan class="cls-8" x="25.88" y="0">C</tspan><tspan class="cls-9" x="29.85" y="0">I</tspan><tspan class="cls-10" x="32.28" y="0">A</tspan><tspan x="36.09" y="0">L </tspan><tspan class="cls-11" x="40.85" y="0">A</tspan><tspan class="cls-3" x="44.58" y="0">I</tspan><tspan class="cls-4" x="46.85" y="0">D </tspan><tspan class="cls-12" x="52.47" y="0">A</tspan><tspan class="cls-13" x="56.03" y="0">W</tspan><tspan class="cls-14" x="61.29" y="0">A</tspan><tspan class="cls-15" x="65.08" y="0">R</tspan><tspan class="cls-16" x="69.21" y="0">D</tspan><tspan class="cls-17" x="73.26" y="0">E</tspan><tspan x="76.95" y="0">D </tspan><tspan class="cls-18" x="82.57" y="0">T</tspan><tspan class="cls-4" x="85.9" y="0">O </tspan></text><text class="cls-2" transform="translate(0 65.31)"><tspan class="cls-19">M</tspan><tspan class="cls-14" x="5.11" y="0">A</tspan><tspan class="cls-20" x="8.9" y="0">R</tspan><tspan class="cls-21" x="12.97" y="0">Y</tspan><tspan class="cls-22" x="16.79" y="0">K</tspan><tspan class="cls-5" x="20.64" y="0">N</tspan><tspan class="cls-23" x="24.71" y="0">O</tspan><tspan class="cls-6" x="28.79" y="0">L</tspan><tspan x="32.15" y="0">L </tspan><tspan class="cls-24" x="36.91" y="0">S</tspan><tspan class="cls-25" x="40.74" y="0">T</tspan><tspan class="cls-20" x="44.1" y="0">U</tspan><tspan class="cls-26" x="48.17" y="0">D</tspan><tspan class="cls-15" x="52.22" y="0">E</tspan><tspan class="cls-6" x="55.91" y="0">N</tspan><tspan class="cls-27" x="60.14" y="0">T</tspan><tspan x="63.55" y="0">S </tspan><tspan class="cls-14" x="68.74" y="0">A</tspan><tspan class="cls-20" x="72.53" y="0">N</tspan><tspan class="cls-4" x="76.6" y="0">D </tspan><tspan class="cls-28" x="82.23" y="0">F</tspan><tspan class="cls-29" x="85.69" y="0">A</tspan><tspan class="cls-30" x="89.51" y="0">M</tspan><tspan class="cls-31" x="94.41" y="0">I</tspan><tspan class="cls-32" x="96.7" y="0">L</tspan><tspan class="cls-3" x="99.98" y="0">I</tspan><tspan class="cls-18" x="102.26" y="0">E</tspan><tspan x="106.02" y="0">S</tspan></text><g class="cls-33"><text class="cls-34" transform="translate(29.86 21.55)">O<tspan class="cls-35" x="13.14" y="0">V</tspan><tspan class="cls-36" x="25.18" y="0">E</tspan><tspan class="cls-37" x="36.83" y="0">R</tspan></text><text class="cls-38" transform="translate(79.72 21.55)"> </text><text class="cls-38" transform="translate(2.02 45.56)"><tspan class="cls-39">$</tspan><tspan x="11.94" y="0">3 </tspan><tspan class="cls-40" x="29.23" y="0">M</tspan><tspan class="cls-41" x="44.91" y="0">I</tspan><tspan class="cls-42" x="51.92" y="0">L</tspan><tspan class="cls-43" x="62.51" y="0">L</tspan><tspan class="cls-44" x="72.79" y="0">I</tspan><tspan class="cls-45" x="79.67" y="0">O</tspan><tspan x="92.57" y="0">N </tspan></text></g></g></g></svg>